<?xml version="1.0" standalone="no"?>
<!DOCTYPE svg PUBLIC "-//W3C//DTD SVG 1.1//EN" "http://www.w3.org/Graphics/SVG/1.1/DTD/svg11.dtd" >
<svg xmlns="http://www.w3.org/2000/svg">
<metadata></metadata>
<defs>
<font id="merlothin_italic" horiz-adv-x="1036" >
<font-face units-per-em="2048" ascent="1434" descent="-614" />
<missing-glyph horiz-adv-x="411" />
<glyph horiz-adv-x="0" />
<glyph horiz-adv-x="682" />
<glyph unicode=" "  horiz-adv-x="411" />
<glyph unicode="&#x09;" horiz-adv-x="411" />
<glyph unicode="&#xa0;" horiz-adv-x="411" />
<glyph unicode="!" horiz-adv-x="458" d="M186 43q5 22 21.5 36.5t38.5 14.5t34.5 -14.5t8.5 -36.5t-22 -36.5t-40 -14.5t-33.5 14.5t-7.5 36.5zM291 322q-12 0 -13.5 8.5t3.5 31.5l190 1031q5 24 12 32.5t25 8.5q19 0 22.5 -9t-2.5 -32l-211 -1031q-5 -24 -9.5 -32t-16.5 -8z" />
<glyph unicode="&#x22;" horiz-adv-x="550" d="M459 1497h4q29 0 20 -39l-80 -303q-2 -12 -13 -10q-8 1 -7 10l39 303q3 39 37 39zM670 1497h4q29 0 20 -39l-80 -303q-2 -12 -13 -10q-8 1 -7 10l39 303q3 39 37 39z" />
<glyph unicode="#" horiz-adv-x="1599" d="M1520 588q13 0 17 -4.5t1 -16.5t-8.5 -16t-18.5 -4h-415l-160 -508q-7 -26 -13.5 -32.5t-21.5 -6.5q-14 0 -15.5 6.5t5.5 32.5l160 508h-320l-160 -508q-7 -26 -13 -32.5t-21 -6.5q-14 0 -16 6.5t5 32.5l160 508h-444q-14 0 -18 4t-1 16t8.5 16.5t18.5 4.5h448l107 336 h-434q-14 0 -18 4t-1 16t8.5 16.5t18.5 4.5h440l135 430q7 25 14 32t23 7q13 0 14.5 -6.5t-6.5 -32.5l-135 -430h320l135 430q7 25 14 32t23 7q13 0 14.5 -6.5t-6.5 -32.5l-135 -430h420q13 0 17 -4.5t1 -16.5t-8.5 -16t-18.5 -4h-426l-106 -336h412zM850 924l-107 -336h320 l106 336h-319z" />
<glyph unicode="$" horiz-adv-x="1081" d="M162 135q-10 11 -10 18t12 17q12 12 19 11.5t18 -11.5q46 -52 135.5 -93.5t206.5 -41.5q161 0 282.5 98t147.5 234q12 59 -3 109.5t-49 87.5t-81 69.5t-101 61.5t-107.5 58.5t-101.5 64t-82.5 74t-50.5 94t-6 118.5q20 127 126.5 222.5t277.5 111.5l22 116q3 14 8.5 18.5 t18.5 4.5q14 0 17.5 -5t0.5 -18l-22 -112h18q82 0 158 -23t112 -46l35 -23q15 -10 2 -29q-9 -12 -16 -13.5t-21 7.5q-131 84 -276 84q-97 0 -176 -28t-127 -72.5t-76 -92.5t-35 -96q-9 -60 7 -110.5t51.5 -88t83 -71t101.5 -63l108 -59t101 -64t80.5 -73.5t47.5 -92.5 t2 -115.5q-32 -161 -162.5 -266t-298.5 -113l-22 -115q-3 -13 -8 -17.5t-19 -4.5t-17.5 4.5t-0.5 17.5l22 113q-122 4 -212.5 48t-139.5 95z" />
<glyph unicode="%" horiz-adv-x="1181" d="M487 1020q-85 0 -135 62t-33 147q17 88 91 150.5t159 62.5q88 0 138.5 -62.5t33.5 -150.5q-17 -85 -92 -147t-162 -62zM362 1229q-13 -69 26 -117.5t108 -48.5t128 48.5t72 117.5q14 69 -26 118.5t-109 49.5t-127 -49.5t-72 -118.5zM885 -8q-85 0 -135 62t-33 147 q17 88 91 150.5t159 62.5q88 0 138.5 -62.5t33.5 -150.5q-17 -85 -92 -147t-162 -62zM760 201q-14 -69 25 -117.5t108 -48.5t128.5 48.5t72.5 117.5q12 69 -28.5 118.5t-109.5 49.5t-126.5 -49.5t-69.5 -118.5zM295 39l825 1356q15 27 22.5 33t26.5 6q7 0 10.5 -1t3.5 -5.5 t-3 -12t-11 -20.5l-825 -1356q-16 -27 -22.5 -33t-24.5 -6q-10 0 -13 2.5t-1 11t12 25.5z" />
<glyph unicode="&#x26;" horiz-adv-x="1122" d="M1008 393q-43 -191 -173 -296t-303 -105q-169 0 -259.5 105t-59.5 296q13 79 41.5 145t65.5 109.5t75.5 72t79.5 44.5q-45 20 -72.5 62t-36 111t14.5 163q39 164 152.5 250.5t248.5 91.5q178 6 283 -135q12 -18 -6 -33q-17 -14 -29 2q-93 130 -254 125 q-123 -5 -219.5 -84.5t-130.5 -214.5q-21 -90 -14 -159.5t54.5 -112.5t129.5 -46q12 0 15.5 -4t0.5 -16t-7.5 -16.5t-16.5 -4.5q-127 0 -216.5 -98t-113.5 -254q-26 -162 50 -260t233 -98t270 97.5t152 260.5l49 256q3 14 8 18.5t18 4.5h166q14 0 18 -4.5t1 -16.5t-8.5 -16 t-18.5 -4h-123q-13 0 -17 -3.5t-7 -17.5z" />
<glyph unicode="'" horiz-adv-x="344" d="M461 1497h4q29 0 20 -39l-79 -303q-2 -11 -13 -10q-9 0 -8 10l39 303q3 39 37 39z" />
<glyph unicode="(" horiz-adv-x="612" d="M541 1333l-242 -1241q-25 -133 11.5 -187.5t131.5 -54.5h2q13 0 17.5 -5t1.5 -17q-3 -11 -8.5 -14.5t-18.5 -3.5h-2q-114 0 -161 65.5t-19 212.5l242 1249q56 279 290 279h2q14 0 18 -4t1 -15q-5 -22 -27 -22h-2q-95 0 -152.5 -54.5t-84.5 -187.5z" />
<glyph unicode=")" horiz-adv-x="612" d="M346 92l242 1241q27 132 -10.5 187t-133.5 55h-2q-24 0 -18 22q5 19 27 19h2q236 0 180 -279l-242 -1249q-53 -278 -291 -278h-2q-14 0 -17.5 4t-0.5 14q3 13 8 17.5t18 4.5h3q96 0 154 55t83 187z" />
<glyph unicode="*" horiz-adv-x="868" d="M399 1417q-13 0 -17 4.5t-1 16.5t8.5 16t18.5 4h256l-148 182q-7 11 -6 16.5t12 14.5t16 9.5t15 -9.5l147 -186l52 260q3 14 7.5 18t16.5 4t16 -4.5t1 -17.5l-52 -260l222 186q12 10 17 9.5t13 -9.5q8 -8 7.5 -14.5t-13.5 -16.5l-219 -182h258q14 0 17.5 -4t0.5 -16 t-8 -16.5t-18 -4.5h-262l149 -184q12 -18 -4 -31q-12 -9 -17.5 -8t-13.5 10l-147 180l-51 -258q-3 -13 -8 -17.5t-17 -4.5t-15.5 4.5t-0.5 17.5l51 258l-217 -180q-21 -18 -31 -2q-13 15 8 31l217 184h-260z" />
<glyph unicode="+" horiz-adv-x="901" d="M625 797q-3 -13 0 -17t16 -4h272q14 0 18 -4t1 -16t-8.5 -16.5t-18.5 -4.5h-272q-14 0 -18 -3.5t-7 -16.5l-53 -283q-3 -13 -9 -17.5t-18 -4.5t-14.5 4t0.5 18l53 283q3 13 0.5 16.5t-16.5 3.5h-272q-13 0 -17 4.5t-2 16.5q3 12 8.5 16t18.5 4h272q13 0 17.5 3.5 t7.5 17.5l55 282q3 14 8 18.5t17 4.5t15.5 -5t0.5 -18z" />
<glyph unicode="," horiz-adv-x="389" d="M145 43q4 24 24.5 38.5t39.5 12.5q58 -6 41 -84q-18 -81 -90 -164q-11 -12 -21 -22q-16 -16 -24 -8q-7 7 4 22q20 26 31.5 42.5t27.5 44t14.5 45.5t-20.5 24q-32 12 -27 49z" />
<glyph unicode="-" horiz-adv-x="700" d="M168 565q3 14 6.5 18.5t13.5 4.5h463q20 0 15 -23q-3 -14 -6.5 -18t-12.5 -4h-465q-11 0 -14 4.5t0 17.5z" />
<glyph unicode="." horiz-adv-x="376" d="M145 43q5 22 21.5 36.5t38.5 14.5t34.5 -14.5t8.5 -36.5t-22 -36.5t-40 -14.5t-33.5 14.5t-7.5 36.5z" />
<glyph unicode="/" horiz-adv-x="481" d="M616 1395l-428 -1356q-7 -26 -13 -32.5t-21 -6.5q-14 0 -16 6.5t5 32.5l428 1356q7 25 14 32t23 7q13 0 14.5 -6.5t-6.5 -32.5z" />
<glyph unicode="0" horiz-adv-x="1343" d="M1319 784l-27 -135q-64 -331 -226.5 -494t-395.5 -163t-333 163t-36 494l27 135q64 331 227 494.5t395 163.5q233 0 333 -163.5t36 -494.5zM373 780l-25 -127q-62 -311 26 -465.5t304 -154.5t362.5 154t208.5 466l25 127q60 311 -28 466t-304 155t-362.5 -154.5 t-206.5 -466.5z" />
<glyph unicode="1" horiz-adv-x="675" d="M659 1372l-337 -287q-17 -13 -23.5 -15t-17.5 9q-7 11 -4 18t20 21l350 297q21 19 43 19h4q13 0 16.5 -4.5t0.5 -18.5l-269 -1388q-3 -14 -8 -18.5t-18 -4.5q-14 0 -18 5t-1 18z" />
<glyph unicode="2" horiz-adv-x="991" d="M240 209l-29 -148q-3 -13 0.5 -16.5t17.5 -3.5h590q14 0 18 -4.5t1 -16.5t-7.5 -16t-17.5 -4h-635q-14 0 -17.5 5t-0.5 18l37 194q17 86 65 165.5t113 142t140 122t150.5 115t139.5 109.5t111.5 118.5t62.5 130.5q28 119 -34 200t-189 81q-79 0 -144 -30.5t-137 -94.5 q-20 -18 -33 -2q-11 14 11 33q77 71 150.5 103t160.5 32q137 0 214.5 -88t45.5 -234q-16 -72 -64 -140t-112.5 -124t-139.5 -112t-150.5 -114t-140 -119t-112.5 -139t-65 -163z" />
<glyph unicode="3" horiz-adv-x="1054" d="M698 764q3 12 8 16t17 4q125 4 199 91t94 227q20 135 -46.5 214.5t-189.5 84.5q-146 5 -299 -125q-21 -16 -32 -2t10 33q153 141 332 135q64 -2 117 -23.5t92.5 -62t56.5 -106.5t4 -150q-21 -135 -82 -220t-143 -116q75 -34 113.5 -126.5t4.5 -244.5q-43 -192 -175 -299 t-298 -102q-88 3 -164 43t-127 110q-12 19 5 33q18 15 30 -2q40 -56 108 -98t154 -45q154 -4 268.5 95t153.5 263q36 157 -15.5 254.5t-178.5 97.5q-12 0 -16 4.5t-1 16.5z" />
<glyph unicode="4" d="M188 412q-13 0 -16.5 4t-1.5 16q2 18 6 26.5t21 26.5l804 926q20 23 37 23q13 0 16.5 -4.5t0.5 -18.5l-183 -938q-3 -13 0 -16.5t17 -3.5h74q14 0 18.5 -4.5t1.5 -16.5t-8.5 -16t-18.5 -4h-73q-13 0 -17.5 -3.5t-7.5 -17.5l-72 -368q-3 -14 -8 -18.5t-18 -4.5 q-14 0 -18 5t-1 18l72 368q3 13 0 17t-16 4h-609zM827 473l164 844q2 8 -3 9.5t-11 -5.5l-739 -848q-7 -9 -5.5 -14.5t9.5 -5.5h561q13 0 17 3t7 17z" />
<glyph unicode="5" horiz-adv-x="1015" d="M643 915q168 0 258.5 -107.5t59.5 -299.5l-23 -109q-43 -192 -174.5 -299.5t-298.5 -107.5q-96 0 -167.5 36.5t-113.5 98.5q-12 17 4 31q19 16 31 -4q86 -121 252 -121q156 0 270.5 100.5t151.5 263.5l22 113q25 164 -49.5 264t-230.5 100h-223q-14 0 -18 5t-1 18l99 514 q3 14 9 18.5t19 4.5h533q13 0 17 -4.5t1 -16.5t-8.5 -16t-18.5 -4h-489q-13 0 -17.5 -3.5t-7.5 -17.5l-86 -436q-3 -13 0 -17t17 -4h182z" />
<glyph unicode="6" horiz-adv-x="1069" d="M1010 487l-9 -38q-43 -221 -168.5 -339t-300.5 -118t-255 118t-37 339l69 356q60 307 242.5 472t431.5 165q13 0 17 -4.5t1 -16.5t-8 -16t-18 -4q-76 0 -148.5 -18t-148 -61.5t-137 -109.5t-112 -169t-75.5 -232l-20 -111q62 117 161 180.5t222 63.5q175 0 255 -118 t38 -339zM541 33q150 0 262 102t149 293l17 80q37 190 -36.5 292.5t-223.5 102.5t-262.5 -102.5t-149.5 -292.5l-16 -80q-37 -190 36.5 -292.5t223.5 -102.5z" />
<glyph unicode="7" horiz-adv-x="884" d="M236 39l788 1329q7 12 4.5 18.5t-12.5 6.5h-637q-14 0 -18 4t-1 16t8.5 16.5t18.5 4.5h674q13 0 16.5 -4t1.5 -17q-5 -33 -16 -53l-782 -1321q-16 -28 -21.5 -33.5t-23.5 -5.5q-7 0 -10.5 1t-3.5 5.5t3 12t11 20.5z" />
<glyph unicode="8" horiz-adv-x="1142" d="M231 391q25 135 113 236.5t223 140.5q-66 27 -105.5 79t-47.5 114.5t4 132.5q14 67 46.5 127.5t84.5 111t129.5 80t171.5 29.5q76 0 134.5 -19.5t92.5 -53.5t55.5 -78.5t22 -94.5t-7.5 -102q-22 -110 -92.5 -198.5t-186.5 -127.5q120 -39 170 -140.5t25 -236.5 q-35 -174 -166.5 -286.5t-327.5 -112.5t-284.5 112.5t-53.5 286.5zM715 745q-178 0 -294 -100.5t-145 -253.5q-31 -153 46.5 -253.5t255.5 -100.5t293.5 100.5t146.5 253.5q18 97 -5.5 175t-99.5 128.5t-198 50.5zM842 1397q-85 0 -154.5 -27t-114 -72t-71.5 -96.5 t-39 -107.5q-6 -42 -6.5 -84.5t17.5 -82t46.5 -70t81.5 -48.5t123 -18q85 0 154.5 27t114 72t71 96.5t37.5 107.5q7 43 7 85.5t-17.5 82t-46.5 69.5t-81.5 48t-121.5 18z" />
<glyph unicode="9" horiz-adv-x="1069" d="M336 946l8 39q43 221 168.5 339t300.5 118t255.5 -118.5t37.5 -338.5l-70 -356q-60 -307 -242.5 -472t-431.5 -165h-98q-12 0 -15.5 4t-0.5 16t7.5 16.5t16.5 4.5h99q76 0 148.5 18t147.5 61.5t137 109.5t112 169t75 232l21 110q-62 -117 -161 -180.5t-222 -63.5 q-175 0 -255 118t-38 339zM805 1401q-150 0 -262.5 -102.5t-149.5 -292.5l-16 -80q-37 -190 36.5 -293t223.5 -103t262.5 102.5t149.5 293.5l16 80q37 190 -36.5 292.5t-223.5 102.5z" />
<glyph unicode=":" horiz-adv-x="376" d="M145 43q5 22 21.5 36.5t38.5 14.5t34.5 -14.5t8.5 -36.5t-22 -36.5t-40 -14.5t-33.5 14.5t-7.5 36.5zM264 662q4 22 22 36.5t40 14.5t33.5 -14.5t7.5 -36.5q-5 -22 -22.5 -37t-39.5 -15t-34 15t-7 37z" />
<glyph unicode=";" horiz-adv-x="389" d="M264 662q4 22 22 36.5t40 14.5t33.5 -14.5t7.5 -36.5q-5 -22 -22.5 -37t-39.5 -15t-34 15t-7 37zM145 43q4 24 24.5 38.5t39.5 12.5q58 -6 41 -84q-18 -81 -90 -164q-11 -12 -21 -22q-16 -16 -24 -8q-7 7 4 22q20 26 31.5 42.5t27.5 44t14.5 45.5t-20.5 24q-32 12 -27 49 z" />
<glyph unicode="&#x3c;" horiz-adv-x="712" d="M287 758q3 15 18 26l490 338q13 10 24 5t6 -19q-9 -27 -30 -41l-430 -297q-7 -4 -9.5 -12.5t2.5 -12.5l316 -296q19 -17 14 -43q-3 -14 -13.5 -18t-21.5 5l-358 338q-11 11 -8 27z" />
<glyph unicode="=" horiz-adv-x="942" d="M229 657q3 14 8.5 18.5t18.5 4.5h692q14 0 18 -5t1 -18t-8 -17.5t-19 -4.5h-692q-14 0 -18 4.5t-1 17.5zM268 854q3 14 8.5 18.5t18.5 4.5h692q14 0 18 -5t1 -18q-5 -23 -29 -23h-692q-13 0 -16.5 4.5t-0.5 18.5z" />
<glyph unicode="&#x3e;" horiz-adv-x="712" d="M717 758q-3 -17 -17 -27l-489 -338q-12 -9 -23 -4.5t-8 19.5q5 24 31 41l430 296q7 4 9 12.5t-3 12.5l-315 297q-20 17 -15 41q3 15 13.5 19.5t21.5 -5.5l359 -338q9 -9 6 -26z" />
<glyph unicode="?" horiz-adv-x="864" d="M457 430q16 80 45.5 147t65.5 114t76.5 88t80 78t74 74t62 85t40.5 104q28 119 -34 200t-189 81q-85 0 -149.5 -33.5t-131.5 -91.5q-21 -16 -32 -2t10 33q77 71 150.5 103t160.5 32q137 0 214.5 -88t45.5 -234q-13 -60 -41 -111.5t-63 -89.5t-75 -75t-80 -77.5t-76 -85.5 t-65 -109.5t-44 -141.5l-10 -51q-3 -14 -8.5 -18.5t-18.5 -4.5q-14 0 -18 5t-1 18zM356 43q5 22 21.5 36.5t38.5 14.5t34.5 -14.5t8.5 -36.5t-22 -36.5t-40 -14.5t-33.5 14.5t-7.5 36.5z" />
<glyph unicode="@" horiz-adv-x="2193" d="M831 575q43 222 171.5 342.5t300.5 114.5q140 -5 237 -117l19 86q3 14 7.5 18.5t16.5 4.5t15.5 -5t0.5 -18l-198 -1009q-21 -108 54 -132q76 -25 202 45q152 84 266 248q112 162 150 355q25 122 13.5 235t-48.5 211t-104 179t-152 139t-193.5 89.5t-228.5 31.5 q-240 0 -467 -119t-385.5 -323t-204.5 -443q-35 -179 3 -343t134 -282.5t246.5 -189t329.5 -70.5h4q14 0 17.5 -4t0.5 -16t-8 -16.5t-18 -4.5h-4q-126 0 -239.5 33t-203 93.5t-159.5 145t-108.5 187.5t-50.5 221t15 246q36 188 143 359.5t255 295.5t334 197.5t374 73.5 q150 0 282.5 -47.5t228.5 -131.5t161.5 -200.5t82.5 -254.5t-9 -292q-54 -274 -243 -477q-135 -144 -282 -195q-128 -45 -191 9q-57 49 -34 165l20 96q-138 -108 -282 -114q-175 -6 -256.5 114.5t-38.5 342.5zM877 598l-33 -172q-37 -191 39 -296t223 -99q157 6 287 123 l139 716q-83 117 -238 123q-145 6 -262.5 -99t-154.5 -296z" />
<glyph unicode="A" horiz-adv-x="1249" d="M903 1434q9 0 13 -1t7 -6t5 -16l215 -1388q1 -13 -4 -18t-19 -5t-19.5 5t-6.5 18l-62 387q-3 19 -9 23.5t-26 4.5h-577q-20 0 -28.5 -4.5t-18.5 -23.5l-209 -387q-8 -14 -15 -18.5t-20 -4.5q-27 0 -14 23l751 1388q8 16 15 19.5t22 3.5zM422 502q-5 -12 -1.5 -17.5 t11.5 -5.5h569q22 0 19 23l-125 831q-2 10 -10.5 10.5t-14.5 -10.5z" />
<glyph unicode="B" horiz-adv-x="1220" d="M260 0q-14 0 -17.5 5t-0.5 18l268 1388q5 23 29 23h368q80 0 143 -18t102 -50t63.5 -76t27.5 -95.5t-6 -109.5q-24 -117 -101 -204.5t-202 -122.5q71 -20 119.5 -62t68.5 -92t26.5 -107t-7.5 -108q-10 -54 -33 -106t-65 -104t-97 -91t-135 -63.5t-174 -24.5h-377z M1096 389q10 35 7.5 74t-10 77t-31.5 73t-58 61.5t-89 43t-124 17.5h-347q-13 0 -17 -3t-7 -17l-127 -654q-3 -13 -0.5 -16.5t16.5 -3.5h338q85 0 157 23t121 59t86 83t56.5 92.5t28.5 90.5zM436 797q-3 -13 0 -17t17 -4h348q164 4 265 92.5t126 216.5q8 49 5.5 94t-23.5 84 t-55 68t-89.5 45.5t-126.5 16.5h-330q-13 0 -17 -3.5t-7 -17.5z" />
<glyph unicode="C" horiz-adv-x="1226" d="M324 633q-29 -161 -13.5 -276t74 -188t143 -106t193.5 -30q214 6 379 174q13 13 26 0q16 -15 -2 -33q-176 -176 -411 -182q-116 -3 -208 31.5t-157.5 111.5t-83.5 199t12 295l35 176q33 167 102 294t162 201t198 109.5t220 32.5q230 -6 342 -182q12 -18 -10 -33 q-15 -7 -20 -4t-13 14q-101 158 -307 164q-85 2 -164.5 -18t-153.5 -66.5t-134.5 -116t-106.5 -171.5t-70 -228z" />
<glyph unicode="D" horiz-adv-x="1351" d="M1352 805l-35 -176q-60 -307 -243.5 -468t-444.5 -161h-369q-14 0 -17.5 5t-0.5 18l268 1388q5 23 29 23h368q261 0 383 -161t62 -468zM549 1372l-256 -1311q-3 -13 -0.5 -16.5t16.5 -3.5h318q248 0 419 150.5t228 441.5l33 168q56 291 -56 441.5t-360 150.5h-318 q-13 0 -17 -3.5t-7 -17.5z" />
<glyph unicode="E" horiz-adv-x="1114" d="M1010 756q-1 -12 -7 -16.5t-20 -4.5h-539q-13 0 -17 -3t-7 -17l-127 -654q-3 -13 -0.5 -16.5t16.5 -3.5h641q14 0 18 -4.5t1 -16.5q-1 -12 -6 -16t-19 -4h-684q-14 0 -17.5 5t-0.5 18l268 1388q5 23 29 23h684q13 0 17 -4.5t1 -16.5t-8.5 -16t-18.5 -4h-641 q-13 0 -17 -3.5t-7 -17.5l-113 -575q-3 -13 0 -17t17 -4h538q13 0 17 -4t2 -16z" />
<glyph unicode="F" horiz-adv-x="1073" d="M1010 756q-1 -12 -7 -16.5t-20 -4.5h-539q-13 0 -17 -3t-7 -17l-133 -692q-3 -14 -8.5 -18.5t-18.5 -4.5q-14 0 -17.5 5t-0.5 18l268 1388q5 23 29 23h684q13 0 17 -4.5t1 -16.5t-8.5 -16t-18.5 -4h-641q-13 0 -17 -3.5t-7 -17.5l-113 -575q-3 -13 0 -17t17 -4h538 q13 0 17 -4t2 -16z" />
<glyph unicode="G" horiz-adv-x="1318" d="M985 1401q-85 2 -164.5 -18t-153.5 -66.5t-134.5 -116t-106.5 -171.5t-70 -228l-32 -168q-29 -161 -13.5 -276t74 -188t143 -106t193.5 -30q87 3 164 31t129 68t91.5 87t59.5 86t25 68l65 342q3 13 0.5 16.5t-16.5 3.5h-313q-14 0 -18 4.5t-1 16.5t8.5 16t18.5 4h356 q14 0 18 -4.5t1 -17.5l-76 -385q-7 -35 -29.5 -79t-66.5 -96t-101.5 -95t-142.5 -73.5t-180 -33.5q-116 -3 -208 31.5t-157.5 111.5t-83.5 199t12 295l35 176q33 167 102 294t162 201t198 109.5t220 32.5q230 -6 342 -182q12 -18 -10 -33q-15 -7 -20 -4t-13 14 q-101 158 -307 164z" />
<glyph unicode="H" horiz-adv-x="1331" d="M1186 715q3 13 0 16.5t-17 3.5h-725q-13 0 -17 -3t-7 -17l-133 -692q-3 -14 -8.5 -18.5t-18.5 -4.5q-14 0 -17.5 5t-0.5 18l268 1388q5 23 29 23q13 0 16 -5t0 -18l-119 -614q-3 -13 0 -17t17 -4h725q13 0 17 3.5t7 17.5l119 614q5 23 29 23q13 0 16 -5t0 -18l-268 -1388 q-3 -14 -8.5 -18.5t-18.5 -4.5q-14 0 -17.5 5t-0.5 18z" />
<glyph unicode="I" horiz-adv-x="520" d="M260 0q-14 0 -17.5 5t-0.5 18l268 1388q5 23 29 23q13 0 16 -5t0 -18l-268 -1388q-3 -14 -8.5 -18.5t-18.5 -4.5z" />
<glyph unicode="J" horiz-adv-x="888" d="M358 33q119 0 222 78.5t131 220.5l209 1079q3 14 9 18.5t19 4.5t16.5 -4.5t0.5 -18.5l-207 -1073q-31 -158 -149.5 -252t-258.5 -94q-78 0 -143.5 30.5t-102.5 83.5q-12 17 5 31q12 9 18.5 8.5t13.5 -12.5q34 -49 93 -74.5t124 -25.5z" />
<glyph unicode="K" horiz-adv-x="1140" d="M918 164l-316 555q-11 18 -29 0l-157 -148q-20 -18 -25 -27.5t-10 -33.5l-94 -487q-3 -14 -8.5 -18.5t-18.5 -4.5q-14 0 -17.5 5t-0.5 18l268 1388q5 23 29 23q13 0 16 -5t0 -18l-149 -774q-3 -12 4.5 -14t15.5 6l840 782q18 16 25 19.5t24 3.5q13 0 14.5 -8t-6.5 -15 l-672 -627q-15 -13 -16 -20.5t8 -24.5l313 -551l97 -165q5 -8 -0.5 -15.5t-18.5 -7.5q-15 0 -20.5 4t-14.5 19z" />
<glyph unicode="L" horiz-adv-x="954" d="M260 0q-14 0 -17.5 5t-0.5 18l268 1388q5 23 29 23q13 0 16 -5t0 -18l-262 -1350q-3 -13 -0.5 -16.5t16.5 -3.5h543q13 0 17 -4.5t1 -16.5q-3 -13 -7 -16.5t-17 -3.5h-586z" />
<glyph unicode="M" horiz-adv-x="1662" d="M838 88q2 -8 9 -8t11 8l711 1323q13 23 35 23q11 0 15 -4.5t3 -18.5l-154 -1388q-3 -23 -20 -23q-12 0 -16 1t-6 6t-1 16l142 1261q1 7 -2.5 10t-9 1t-9.5 -9l-680 -1263q-7 -15 -14 -19t-21 -4t-19.5 4.5t-6.5 18.5l-189 1263q-1 11 -11 10.5t-13 -12.5l-346 -1261 q-4 -16 -9.5 -19.5t-21.5 -3.5q-18 0 -12 23l383 1388q7 23 30 23q12 0 17 -5t6 -18z" />
<glyph unicode="N" horiz-adv-x="1427" d="M1143 18l-588 1299q-3 8 -10 6t-8 -12l-250 -1288q-3 -14 -8.5 -18.5t-18.5 -4.5q-14 0 -17.5 5t-0.5 18l268 1388q5 23 29 23q14 0 22 -19l588 -1298q3 -8 10 -6t8 12l250 1288q5 23 29 23q13 0 16 -5t0 -18l-268 -1388q-3 -14 -8.5 -18.5t-18.5 -4.5q-6 0 -8.5 0.5 t-6.5 4.5t-9 13z" />
<glyph unicode="O" horiz-adv-x="1404" d="M1405 805l-35 -176q-33 -166 -100 -291t-157.5 -199t-193.5 -110.5t-219 -36.5q-92 0 -167.5 22.5t-136.5 70.5t-95.5 123t-43.5 180t19 241l35 176q32 165 99 290.5t157.5 199.5t194 110.5t219.5 36.5t205 -35.5t152 -112.5t80 -197.5t-13 -291.5zM356 801l-32 -168 q-28 -159 -14 -272.5t70.5 -186.5t138.5 -107t190 -34t204 35t178.5 105.5t143.5 187.5t92 272l33 168q28 159 13.5 272.5t-71 186.5t-139 107t-190.5 34t-204 -35t-178.5 -105.5t-143.5 -187.5t-91 -272z" />
<glyph unicode="P" horiz-adv-x="1163" d="M1221 987q-39 -200 -180 -323t-375 -123h-258q-13 0 -17.5 -3.5t-7.5 -17.5l-96 -497q-3 -14 -8.5 -18.5t-18.5 -4.5q-14 0 -17.5 5t-0.5 18l268 1388q5 23 29 23h301q96 0 169.5 -22.5t119.5 -62.5t73 -96t29.5 -123t-10.5 -143zM1176 987q11 67 9 127.5t-27 111.5 t-66 88t-108 58t-153 21h-258q-13 0 -17 -3.5t-7 -17.5l-150 -770q-3 -13 0 -16.5t17 -3.5h258q107 0 196 31.5t150 87.5t100.5 128t55.5 158z" />
<glyph unicode="Q" horiz-adv-x="1404" d="M1405 805l-35 -176q-45 -237 -157.5 -384.5t-270.5 -209.5l160 -381q4 -11 -2.5 -17t-16.5 -6q-15 0 -20 3t-12 20l-156 366q-85 -28 -195 -28q-116 0 -205 35.5t-152 112.5t-80 197.5t13 291.5l35 176q32 165 99 290.5t157.5 199.5t194 110.5t219.5 36.5t205 -35.5 t152 -112.5t80 -197.5t-13 -291.5zM356 801l-32 -168q-29 -159 -15 -272.5t70.5 -186.5t139 -107t190.5 -34t204 35t178.5 105.5t143.5 187.5t92 272l33 168q28 159 13.5 272.5t-71 186.5t-139 107t-190.5 34t-204 -35t-178.5 -105.5t-143.5 -187.5t-91 -272z" />
<glyph unicode="R" horiz-adv-x="1241" d="M1071 0q-16 0 -21 3t-12 20l-250 616h-362q-13 0 -17.5 -3.5t-7.5 -17.5l-114 -595q-3 -14 -8.5 -18.5t-18.5 -4.5q-14 0 -17.5 5t-0.5 18l268 1388q5 23 29 23h352q470 0 393 -398q-68 -351 -444 -393l250 -620q4 -11 -2.5 -17t-16.5 -6zM1239 1036q69 357 -352 357 h-314q-13 0 -17 -3.5t-7 -17.5l-131 -672q-3 -14 -0.5 -17t16.5 -3h314q422 0 491 356z" />
<glyph unicode="S" horiz-adv-x="1081" d="M162 137q-16 18 2 33q12 12 19 11.5t18 -11.5q50 -52 138 -93.5t204 -41.5q161 0 282.5 98t147.5 234q12 59 -3 109.5t-49 87.5t-81 69.5t-101 61.5t-107.5 58.5t-101.5 64t-82.5 74t-50.5 94t-6 118.5q24 140 147 239t320 99q82 0 158 -23t112 -46l35 -23q15 -10 2 -29 q-9 -12 -16 -13.5t-21 7.5q-131 84 -276 84q-97 0 -176 -28t-127 -72.5t-76 -92.5t-35 -96q-9 -60 7 -110.5t51.5 -88t83 -71t101.5 -63l108 -59t101 -64t80.5 -73.5t47.5 -92.5t2 -115.5q-33 -167 -172 -274t-316 -107q-129 0 -226.5 46t-143.5 99z" />
<glyph unicode="T" horiz-adv-x="1028" d="M514 0q-14 0 -17.5 5t-0.5 18l262 1349q3 13 0 17t-17 4h-362q-14 0 -18 4t-1 16t8.5 16.5t18.5 4.5h811q14 0 18 -4.5t1 -16.5t-8.5 -16t-18.5 -4h-363q-13 0 -17 -3.5t-7 -17.5l-262 -1349q-3 -14 -8.5 -18.5t-18.5 -4.5z" />
<glyph unicode="U" horiz-adv-x="1343" d="M1374 1411q5 23 29 23q13 0 16 -5t0 -18l-172 -893q-24 -122 -73.5 -217t-108 -152t-130.5 -93.5t-136 -50t-129 -13.5q-40 0 -77.5 5.5t-77.5 17t-74 32t-64.5 49t-51.5 70t-33.5 91.5t-11 117t16.5 144l172 893q5 23 29 23q13 0 16 -5t0 -18l-174 -901 q-23 -106 -13 -186t39 -135.5t79 -90.5t107 -51t124 -16t130.5 15.5t126.5 51.5t114.5 90t92 136.5t60.5 185.5z" />
<glyph unicode="V" horiz-adv-x="1249" d="M432 1411l199 -1311q1 -7 5.5 -9.5t10 0t8.5 9.5l707 1311q8 14 15 18.5t20 4.5q14 0 16.5 -5t-4.5 -18l-752 -1388q-8 -14 -13.5 -18.5t-18.5 -4.5t-18 4.5t-7 18.5l-215 1388q-3 23 25 23q13 0 16 -4t6 -19z" />
<glyph unicode="W" horiz-adv-x="1843" d="M1200 1434q13 0 18.5 -4.5t6.5 -18.5l104 -1311q0 -6 4 -8.5t9 -0.5t8 9l606 1311q7 16 14 19.5t23 3.5q21 0 10 -23l-649 -1388q-7 -14 -13.5 -18.5t-19.5 -4.5q-25 0 -27 23l-104 1310q-2 9 -9 9t-12 -9l-612 -1310q-11 -23 -35 -23q-13 0 -18 4.5t-6 18.5l-113 1388 q-3 23 23 23q10 0 13.5 -1t6.5 -6t4 -16l98 -1311q0 -6 4 -8.5t9 -0.5t8 9l612 1311q11 23 37 23z" />
<glyph unicode="X" horiz-adv-x="1110" d="M696 668q-3 8 -10.5 8t-13.5 -8l-510 -645q-13 -17 -19 -20t-20 -3q-9 0 -13.5 4t3.5 19l544 686q10 13 11 18t-4 18l-261 666q-9 23 21 23q14 0 18.5 -3t10.5 -20l241 -627q3 -8 11 -8t14 8l483 627q13 16 19.5 19.5t21.5 3.5q8 0 12 -4t-4 -19l-518 -666 q-9 -13 -10.5 -18t4.5 -18l279 -686q4 -9 0 -14.5t-9 -7t-10 -1.5q-14 0 -19 3t-12 20z" />
<glyph unicode="Y" horiz-adv-x="1110" d="M715 766l504 645q13 16 19.5 19.5t21.5 3.5q10 0 13 -5t-5 -18l-555 -706l-131 -682q-3 -14 -8.5 -18.5t-18.5 -4.5q-12 0 -16.5 5t-1.5 18l131 682l-281 706q-4 12 2.5 17.5t16.5 5.5t14 -1t8 -5.5t8 -16.5l254 -645q3 -8 11 -8t14 8z" />
<glyph unicode="Z" horiz-adv-x="1024" d="M1176 1368l-1012 -1311q-13 -16 2 -16h715q13 0 17 -4.5t1 -16.5t-8.5 -16t-18.5 -4h-747q-14 0 -18 4t-3 16q5 26 21 46l1012 1310q6 8 5 12.5t-7 4.5h-727q-14 0 -18 4t-1 16t8.5 16.5t18.5 4.5h762q13 0 16.5 -4t1.5 -17q-5 -26 -20 -45z" />
<glyph unicode="[" horiz-adv-x="704" d="M180 -408q-14 0 -17.5 5t-0.5 18l387 1997q3 13 9 17.5t20 4.5h307q14 0 17.5 -4t0.5 -16t-8 -16.5t-18 -4.5h-265q-13 0 -17 -3t-7 -17l-373 -1919q-3 -14 0 -17.5t16 -3.5h265q14 0 17.5 -4t0.5 -16t-8.5 -16.5t-18.5 -4.5h-307z" />
<glyph unicode="\" horiz-adv-x="481" d="M307 39l101 1356q1 26 5.5 32.5t18.5 6.5q15 0 18.5 -6.5t2.5 -32.5l-101 -1356q-2 -26 -5.5 -32.5t-16.5 -6.5q-16 0 -20 7t-3 32z" />
<glyph unicode="]" horiz-adv-x="704" d="M391 -385q-3 -14 -8 -18.5t-18 -4.5h-308q-13 0 -17 4.5t-1 16.5t8.5 16t18.5 4h264q13 0 17 3.5t7 17.5l373 1919q3 13 0.5 16.5t-16.5 3.5h-265q-13 0 -17 4.5t-1 16.5t8.5 16t18.5 4h307q13 0 16 -4t0 -18z" />
<glyph unicode="^" horiz-adv-x="1058" d="M774 1341l-428 -555q-13 -18 -20 -22t-23 -4q-31 0 -6 35l473 612q17 20 22.5 23.5t16.5 3.5t15.5 -4t11.5 -23l235 -612q6 -19 0.5 -27t-18.5 -8q-16 0 -22 4t-13 22l-211 555q-5 11 -15 11t-18 -11z" />
<glyph unicode="_" horiz-adv-x="1124" d="M96 -23q5 23 29 23h874q13 0 16.5 -4.5t0.5 -18.5q-3 -13 -8 -17.5t-19 -4.5h-874q-14 0 -18 4.5t-1 17.5z" />
<glyph unicode="`" horiz-adv-x="348" d="M590 1565l-191 221q-14 18 -14.5 24.5t14.5 20.5q18 13 24.5 11.5t18.5 -19.5l176 -234q9 -11 9 -17t-9 -13t-14 -6t-14 12z" />
<glyph unicode="a" d="M819 0q-12 0 -15.5 5t-0.5 18l16 83q-138 -108 -282 -114q-175 -6 -256 114.5t-39 342.5l24 126q42 222 170.5 342.5t300.5 114.5q141 -5 238 -117l18 86q3 14 8 18.5t17 4.5t15.5 -5t0.5 -18l-190 -978q-3 -14 -8 -18.5t-17 -4.5zM311 598l-32 -172q-37 -191 39 -296 t223 -99q156 6 286 123l140 716q-83 117 -238 123q-145 6 -263 -99t-155 -296z" />
<glyph unicode="b" d="M217 0q-12 0 -15.5 5t-0.5 18l268 1388q5 23 27 23q12 0 14.5 -5t-0.5 -18l-96 -496q142 112 282 117q175 6 256.5 -114.5t38.5 -342.5l-24 -126q-43 -222 -171 -342.5t-300 -114.5q-143 6 -238 114l-16 -83q-3 -14 -8 -18.5t-17 -4.5zM954 598q37 192 -38.5 296.5 t-223.5 98.5q-156 -6 -286 -123l-140 -716q83 -117 238 -123q147 -6 264 98.5t154 296.5z" />
<glyph unicode="c" horiz-adv-x="954" d="M279 426q-37 -191 36.5 -293t221.5 -102q156 0 290 121q20 20 31 6q12 -15 -4 -31q-149 -135 -322 -135q-175 0 -254 118t-36 339l24 126q43 221 168 339t299 118q87 0 157.5 -37t113.5 -98q10 -17 -7 -31q-16 -13 -30 6q-40 56 -102.5 88.5t-139.5 32.5 q-148 0 -262.5 -102.5t-151.5 -292.5z" />
<glyph unicode="d" d="M819 0q-12 0 -15.5 5t-0.5 18l16 83q-138 -108 -282 -114q-175 -6 -256.5 114.5t-38.5 342.5l24 126q43 222 171 342.5t300 114.5q141 -5 238 -117l96 496q5 23 27 23q12 0 14.5 -5t-0.5 -18l-268 -1388q-3 -14 -8 -18.5t-17 -4.5zM311 598l-32 -172q-37 -191 39 -296 t223 -99q156 6 286 123l140 716q-83 117 -238 123q-145 6 -263 -99t-155 -296z" />
<glyph unicode="e" horiz-adv-x="978" d="M242 449l24 126q41 213 160 335t287 122q142 0 208.5 -83.5t36.5 -233.5q-20 -110 -81 -165.5t-193 -55.5h-373q-13 0 -17 -3.5t-7 -17.5l-8 -47q-34 -191 38.5 -293t219.5 -102q150 0 274 121q19 18 31 6q14 -14 -4 -31q-138 -135 -306 -135q-175 0 -254 118t-36 339z M920 711q27 137 -33.5 209.5t-179.5 72.5q-140 0 -249.5 -104.5t-146.5 -290.5l-8 -47q-2 -12 1 -16.5t15 -4.5h371q61 0 103.5 13.5t67.5 40t38 56t21 71.5z" />
<glyph unicode="f" horiz-adv-x="667" d="M532 1208l-45 -233q-3 -13 0 -17t17 -4h207q13 0 17 -4t1 -14q-3 -11 -7 -14.5t-17 -3.5h-207q-13 0 -17.5 -3.5t-7.5 -17.5l-268 -1376q-3 -14 -8 -18.5t-17 -4.5t-15.5 5t-0.5 18l268 1376q3 13 0 17t-16 4h-109q-14 0 -18.5 4t-1.5 14q3 11 8 14.5t18 3.5h109 q13 0 17 3.5t7 17.5l46 235q21 103 100.5 167.5t163.5 64.5q59 0 102 -24.5t66 -59.5q11 -17 -4 -29q-15 -13 -29 4q-27 35 -59 52.5t-82 17.5q-42 0 -86.5 -21.5t-82 -67.5t-49.5 -106z" />
<glyph unicode="g" d="M817 104q-138 -109 -280 -114q-175 -6 -256.5 114t-38.5 342l24 127q43 222 171 342.5t300 114.5q141 -5 238 -117l16 86q3 14 8 18.5t17 4.5t15.5 -5t0.5 -18l-225 -1161q-31 -159 -142.5 -252.5t-250.5 -93.5q-93 0 -154.5 40t-85.5 99q-11 25 6 33q22 11 29 -8 q20 -54 76.5 -89.5t136.5 -35.5q117 0 216.5 79t127.5 222zM541 29q156 6 286 123l140 716q-83 117 -238 123q-147 6 -264 -98.5t-154 -296.5l-32 -172q-37 -192 38.5 -296.5t223.5 -98.5z" />
<glyph unicode="h" horiz-adv-x="1032" d="M946 676q28 153 -36.5 235t-207.5 82q-70 0 -149.5 -30.5t-144.5 -81.5l-166 -858q-3 -14 -8 -18.5t-17 -4.5t-15.5 5t-0.5 18l268 1388q5 23 27 23q12 0 14.5 -5t-0.5 -18l-94 -491q66 49 147 80.5t158 31.5q151 0 224.5 -91.5t41.5 -258.5l-127 -659q-3 -14 -7.5 -18.5 t-16.5 -4.5t-16 5t-1 18z" />
<glyph unicode="i" horiz-adv-x="434" d="M217 0q-12 0 -15.5 5t-0.5 18l190 978q3 14 8 18.5t17 4.5t15.5 -5t0.5 -18l-190 -978q-3 -14 -8 -18.5t-17 -4.5zM406 1225q3 20 20 34.5t37 14.5t32 -14.5t9 -34.5q-4 -20 -22 -34.5t-38 -14.5t-31.5 14.5t-6.5 34.5z" />
<glyph unicode="j" horiz-adv-x="434" d="M-72 -469q65 0 130.5 53t82.5 142l19 92l2 8l229 1175q3 14 8 18.5t17 4.5t15.5 -5t0.5 -18l-250 -1277q-21 -103 -100.5 -167.5t-161.5 -64.5q-59 0 -102 24.5t-66 59.5q-10 15 6 29q15 13 29 -4q27 -35 59 -52.5t82 -17.5zM406 1225q5 21 21 35t36 14q21 0 33 -14.5 t8 -34.5t-22 -34.5t-38 -14.5t-31.5 14.5t-6.5 34.5z" />
<glyph unicode="k" horiz-adv-x="901" d="M217 0q-12 0 -15.5 5t-0.5 18l268 1388q5 23 27 23q12 0 14.5 -5t-0.5 -18l-195 -1003q-1 -9 6 -11t13 4l594 600q16 16 24 19.5t21 3.5q7 0 10.5 -3.5t1.5 -9t-10 -12.5l-389 -393q-10 -10 -4 -24l227 -557q4 -11 0 -18t-14 -7q-9 0 -13 1t-8.5 6t-9.5 16l-217 528 q-6 15 -21 0l-207 -209q-15 -17 -19.5 -28t-10.5 -42l-47 -249q-3 -14 -8 -18.5t-17 -4.5z" />
<glyph unicode="l" horiz-adv-x="573" d="M465 0h-2q-121 0 -191 68.5t-43 210.5l220 1132q3 13 8.5 18t17.5 5t14.5 -5t-0.5 -18l-219 -1130q-24 -127 35.5 -184.5t163.5 -57.5h2q13 0 17 -4.5t1 -16.5q-3 -11 -7 -14.5t-17 -3.5z" />
<glyph unicode="m" horiz-adv-x="1576" d="M799 0q-12 0 -16 5t-1 18l142 735q19 98 -2 135q-59 100 -220 100q-70 0 -149.5 -30.5t-144.5 -81.5l-166 -858q-3 -14 -8 -18.5t-17 -4.5t-15.5 5t-0.5 18l190 978q3 14 8 18.5t17 4.5t15.5 -5t0.5 -18l-16 -81q66 49 147 80.5t158 31.5q172 0 240 -112q66 49 147 80.5 t158 31.5q151 0 224.5 -91.5t41.5 -258.5l-127 -659q-3 -14 -8 -18.5t-17 -4.5t-15.5 5t-0.5 18l127 653q28 153 -36.5 235t-207.5 82q-133 0 -276 -98q12 -46 -4 -131l-144 -741q-3 -14 -7.5 -18.5t-16.5 -4.5z" />
<glyph unicode="n" horiz-adv-x="1032" d="M946 676q28 153 -36.5 235t-207.5 82q-70 0 -149.5 -30.5t-144.5 -81.5l-166 -858q-3 -14 -8 -18.5t-17 -4.5t-15.5 5t-0.5 18l190 978q3 14 8 18.5t17 4.5t15.5 -5t0.5 -18l-16 -81q66 49 147 80.5t158 31.5q151 0 224.5 -91.5t41.5 -258.5l-127 -659q-3 -14 -7.5 -18.5 t-16.5 -4.5t-16 5t-1 18z" />
<glyph unicode="o" horiz-adv-x="1069" d="M1024 575l-25 -126q-43 -221 -168 -339t-299 -118q-175 0 -254 118t-36 339l24 126q43 221 168 339t299 118q175 0 254.5 -118t36.5 -339zM539 31q151 0 264.5 102.5t150.5 292.5l33 172q37 190 -36.5 292.5t-223.5 102.5q-151 0 -265 -102.5t-151 -292.5l-32 -172 q-37 -190 36.5 -292.5t223.5 -102.5z" />
<glyph unicode="p" d="M119 -502q-12 0 -16 5t-1 18l289 1480q3 14 8 18.5t17 4.5t15.5 -5t0.5 -18l-18 -86q142 112 282 117q175 6 256.5 -114.5t38.5 -342.5l-24 -126q-43 -222 -171 -342.5t-300 -114.5q-143 6 -238 114l-115 -585q-3 -14 -7.5 -18.5t-16.5 -4.5zM954 598q37 192 -38.5 296.5 t-223.5 98.5q-156 -6 -286 -123l-140 -716q83 -117 238 -123q147 -6 264 98.5t154 296.5z" />
<glyph unicode="q" d="M721 -502q-12 0 -15.5 5t-0.5 18l114 585q-138 -108 -282 -114q-175 -6 -256.5 114.5t-38.5 342.5l24 126q43 222 171 342.5t300 114.5q141 -5 238 -117l18 86q3 14 8 18.5t17 4.5t15.5 -5t0.5 -18l-289 -1480q-3 -14 -7.5 -18.5t-16.5 -4.5zM311 598l-32 -172 q-37 -191 39 -296t223 -99q156 6 286 123l140 716q-83 117 -238 123q-145 6 -263 -99t-155 -296z" />
<glyph unicode="r" horiz-adv-x="815" d="M217 0q-12 0 -15.5 5t-0.5 18l190 978q3 14 8 18.5t17 4.5t15.5 -5t0.5 -18l-16 -81q156 112 307 112q114 0 184 -61q22 -22 6 -41q-11 -10 -19.5 -9t-23.5 13q-69 59 -174 59q-65 0 -145 -32t-143 -80l-166 -858q-3 -14 -8 -18.5t-17 -4.5z" />
<glyph unicode="s" horiz-adv-x="897" d="M162 111q136 -80 284 -80q132 0 222 68t102 175q5 45 -13 82t-51.5 62.5t-77 50.5t-89.5 44.5t-89.5 45t-77 52.5t-51.5 66.5t-14 86.5q11 116 104.5 192t229.5 76q131 0 244 -67q17 -10 6 -29q-10 -18 -31 -6q-110 63 -225 63q-121 1 -198 -63.5t-87 -157.5 q-5 -49 19.5 -88t67 -66t95 -52t104.5 -51.5t94 -57.5t65 -77.5t16 -105.5q-15 -124 -116.5 -203t-254.5 -79q-167 0 -305 82q-16 10 -6 30q11 19 33 7z" />
<glyph unicode="t" horiz-adv-x="770" d="M485 965q-3 -13 0 -17t17 -4h207q13 0 17 -4t1 -14q-3 -11 -7.5 -15t-17.5 -4h-206q-14 0 -18 -3.5t-7 -16.5l-129 -662q-17 -89 27.5 -141.5t111.5 -52.5q91 0 170 69q19 16 29 4q11 -13 -4 -28q-88 -84 -201 -84q-84 0 -139.5 64t-34.5 167l129 664q3 13 0.5 16.5 t-16.5 3.5h-109q-14 0 -18.5 4.5t-1.5 14.5q3 11 8 14.5t18 3.5h109q13 0 17 3.5t7 17.5l50 256q3 14 7.5 18t16.5 4t16 -4.5t1 -17.5z" />
<glyph unicode="u" horiz-adv-x="1015" d="M412 1001l-127 -653q-29 -153 34.5 -235t206.5 -82q64 0 137.5 26.5t139.5 71.5l170 872q3 14 7.5 18.5t16.5 4.5t16 -5t1 -18l-191 -978q-3 -14 -7.5 -18.5t-16.5 -4.5t-16 5t-1 18l13 65q-64 -42 -140.5 -69t-146.5 -27q-151 0 -224.5 91.5t-41.5 258.5l129 659 q3 14 7.5 18.5t16.5 4.5t16 -5t1 -18z" />
<glyph unicode="v" horiz-adv-x="950" d="M479 66q1 -5 4 -6.5t6.5 0t6.5 6.5l514 935q7 14 13 18.5t17 4.5q26 0 9 -29l-529 -958q-12 -24 -20 -30.5t-25 -6.5t-23.5 7t-9.5 30l-155 958q-5 29 20 29q11 0 15.5 -4.5t7.5 -18.5z" />
<glyph unicode="w" horiz-adv-x="1445" d="M926 1024q11 0 14 -5.5t6 -31.5l98 -921q0 -4 3 -6.5t7 -1t7 7.5l444 935q9 23 29 23q6 0 9 -1t6.5 -7.5t-5.5 -20.5l-459 -958q-11 -24 -19 -30.5t-26 -6.5t-23.5 6.5t-8.5 30.5l-95 901q-2 7 -7.5 6.5t-8.5 -6.5l-446 -901q-13 -24 -20 -30.5t-25 -6.5q-19 0 -25.5 7 t-7.5 30l-86 958q-1 13 3.5 20t8.5 8t10 1q11 0 15.5 -4.5t5.5 -18.5l80 -935q0 -5 3 -7t7 0t6 7l455 921q11 24 18 30.5t19 6.5h8z" />
<glyph unicode="x" horiz-adv-x="966" d="M1038 995l-420 -456q-12 -12 -6 -23l258 -487q16 -29 -8 -29q-9 0 -13 1t-9 6t-11 16l-243 460q-7 14 -21 0l-420 -460q-14 -16 -21 -19.5t-20 -3.5q-7 0 -10 3.5t-1 10t11 15.5l447 487q12 12 6 23l-244 456q-7 13 -3.5 21t14.5 8q9 0 13 -1t8.5 -6t10.5 -16l228 -430 q7 -13 20 0l395 430q14 16 21 19.5t20 3.5q18 0 8 -17q-4 -6 -10 -12z" />
<glyph unicode="y" horiz-adv-x="950" d="M199 -473l233 424q13 25 14.5 31.5t-0.5 31.5l-159 981q-5 29 20 29q11 0 15.5 -4.5t7.5 -18.5l149 -935q2 -7 8 -6.5t9 6.5l514 935q7 14 13 18.5t17 4.5q26 0 9 -29l-811 -1474q-9 -15 -14.5 -19t-16.5 -4q-25 0 -8 29z" />
<glyph unicode="z" horiz-adv-x="919" d="M356 1024h625q12 0 16.5 -5t1.5 -18q-5 -24 -22 -43l-801 -901q-15 -18 2 -18h590q13 0 17 -4.5t1 -16.5q-3 -11 -7 -14.5t-17 -3.5h-627q-21 0 -18 23t20 43l801 901q15 18 -2 18h-588q-13 0 -17 4.5t-1 16.5t7.5 15t18.5 3z" />
<glyph unicode="{" horiz-adv-x="659" d="M518 977q-32 -161 -133 -221q79 -61 47 -221l-127 -660q-27 -132 10.5 -187t133.5 -55h2q14 0 17.5 -4t0.5 -16q-6 -21 -27 -21h-2q-236 0 -182 279l129 657q39 205 -102 205h-4q-25 0 -30.5 4t-2.5 19t9.5 18.5t31.5 3.5h4q143 0 182 205l88 455q53 278 289 278h2 q24 0 18 -20q-3 -13 -7 -17t-17 -4h-2q-96 0 -154.5 -54.5t-83.5 -186.5z" />
<glyph unicode="|" horiz-adv-x="520" d="M143 -598q-14 0 -17.5 5t-0.5 18l405 2086q3 14 8.5 18.5t18.5 4.5q14 0 17.5 -5t0.5 -18l-405 -2086q-3 -14 -8.5 -18.5t-18.5 -4.5z" />
<glyph unicode="}" horiz-adv-x="659" d="M432 535q32 159 133 221q-78 64 -47 221l90 457q25 133 -11.5 187t-131.5 54h-2q-14 0 -19 4.5t-2 16.5q3 11 8.5 15.5t18.5 4.5h2q114 0 162 -65.5t20 -212.5l-88 -455q-39 -205 101 -205h4q25 0 30 -3.5t2 -18.5t-9.5 -19t-30.5 -4h-5q-141 0 -180 -205l-129 -657 q-54 -279 -289 -279h-2q-24 0 -18 21q3 12 8.5 16t18.5 4h2q95 0 152.5 54.5t84.5 187.5z" />
<glyph unicode="~" horiz-adv-x="1075" d="M510 840q46 0 96 -22t86.5 -48.5t85 -47.5t92.5 -20q37 1 68 13.5t56 34.5t37 35.5t30 37.5q13 19 29 8q10 -6 10 -11.5t-8 -16.5q-104 -139 -238 -139q-46 0 -95.5 22t-85.5 48t-84.5 47t-92.5 20q-37 -1 -68 -13.5t-56 -34.5t-37 -35.5t-30 -37.5q-14 -19 -31 -8 q-14 9 0 28q104 140 236 140z" />
<glyph unicode="&#xa1;" horiz-adv-x="462" d="M489 981q-5 -22 -21.5 -36.5t-37.5 -14.5q-22 0 -34.5 14.5t-8.5 36.5t22 36.5t40 14.5t33.5 -14.5t6.5 -36.5zM385 702q12 0 13.5 -8.5t-3.5 -31.5l-190 -1031q-5 -24 -12 -32.5t-25 -8.5q-19 0 -23 9t2 32l211 1031q5 24 10 32t17 8z" />
<glyph unicode="&#xa2;" horiz-adv-x="954" d="M279 426q-37 -191 36.5 -293t221.5 -102q156 0 290 121q19 18 31 6q14 -14 -4 -31q-140 -126 -303 -135l-23 -113q-3 -14 -7.5 -18t-16.5 -4t-16 4.5t-1 17.5l23 113q-164 8 -237 125.5t-31 331.5l24 126q42 214 160.5 331.5t284.5 125.5l22 113q3 13 8 17.5t17 4.5 t15.5 -4.5t0.5 -17.5l-22 -113q161 -9 252 -135q10 -17 -7 -31q-16 -13 -30 6q-40 56 -102.5 88.5t-139.5 32.5q-148 0 -262.5 -102.5t-151.5 -292.5z" />
<glyph unicode="&#xa3;" horiz-adv-x="933" d="M223 717q3 12 7.5 16t17.5 4h110q13 0 17.5 3.5t7.5 17.5l39 192q39 206 125 312t225 133q32 6 40.5 3t6.5 -18q-1 -12 -7 -15.5t-26 -6.5q-134 -24 -209 -123t-110 -277l-39 -200q-3 -14 0 -17.5t16 -3.5h324q14 0 18.5 -4t1.5 -16t-8 -16.5t-18 -4.5h-324q-13 0 -17 -3 t-7 -17l-121 -615q-3 -13 -0.5 -16.5t16.5 -3.5h543q13 0 17 -4.5t1 -16.5q-3 -13 -7 -16.5t-17 -3.5h-586q-14 0 -17.5 5t-0.5 18l127 653q3 13 0 16.5t-17 3.5h-110q-14 0 -18 4.5t-1 16.5z" />
<glyph unicode="&#xa5;" horiz-adv-x="1110" d="M469 573q1 12 7 16.5t20 4.5h131q13 0 17 3t7 17l17 91l-281 706q-4 12 3.5 17.5t17.5 5.5q14 0 18 -3t10 -20l254 -645q3 -8 11 -8t14 8l504 645q13 16 19.5 19.5t21.5 3.5q10 0 13 -5t-5 -18l-555 -706l-17 -91q-3 -13 0 -16.5t17 -3.5h131q13 0 16.5 -4t1.5 -17 q-3 -12 -8 -16t-18 -4h-131q-13 0 -17.5 -3.5t-7.5 -17.5l-23 -120q-2 -13 1 -17t16 -4h131q14 0 17.5 -4t0.5 -16t-8 -16.5t-18 -4.5h-131q-14 0 -18 -3.5t-7 -16.5l-59 -307q-3 -14 -8.5 -18.5t-18.5 -4.5q-14 0 -17.5 5t-0.5 18l59 307q3 14 0.5 17t-16.5 3h-131 q-14 0 -18 4.5t-1 16.5t8.5 16t18.5 4h131q13 0 17 3.5t7 17.5l23 120q3 13 0 17t-17 4h-131q-14 0 -17.5 4t-0.5 16z" />
<glyph unicode="&#xa7;" horiz-adv-x="907" d="M328 764q6 77 52.5 138t121.5 95q-104 74 -94 177q9 116 103 192t230 76q129 0 244 -68q11 -6 12 -11.5t-6 -16.5q-7 -10 -13.5 -11.5t-16.5 4.5q-112 64 -226 64q-121 1 -197.5 -63.5t-86.5 -157.5q-5 -49 19.5 -88t67 -66t94.5 -52t103.5 -51.5t93.5 -57.5t64.5 -77.5 t15.5 -105.5q-19 -153 -157 -231q90 -73 79 -179q-15 -124 -116 -203t-254 -79q-167 0 -305 82q-18 11 -6 30q11 19 32 7q136 -80 285 -80q132 0 222 68t102 175q5 45 -13 82t-51.5 62.5t-77 50.5t-89.5 44.5t-89.5 45t-77 52.5t-51.5 66.5t-14 86.5zM371 772 q-5 -46 14.5 -83t60.5 -64.5t83.5 -48.5t98.5 -48.5t91 -50.5q64 33 103 86.5t46 120.5q4 38 -9 71.5t-36 56.5t-60 46.5t-70.5 39t-79 38t-74.5 39.5q-72 -26 -117 -81t-51 -122z" />
<glyph unicode="&#xa8;" horiz-adv-x="538" d="M666 1612q4 21 21 35t38 14q20 0 32 -15t7 -34q-5 -21 -21 -35t-36 -14q-21 0 -33 14.5t-8 34.5zM399 1612q4 20 22 34.5t38 14.5t31 -14t8 -35q-3 -20 -20.5 -34.5t-37.5 -14.5q-21 0 -33 14.5t-8 34.5z" />
<glyph unicode="&#xa9;" horiz-adv-x="1763" d="M303 717q28 146 111 279.5t198 229.5t259 153t290 57q117 0 219.5 -36.5t176.5 -102t125 -156t64 -197.5t-7 -227q-38 -195 -166.5 -360.5t-312 -261t-377.5 -95.5q-146 0 -268 56.5t-200 152.5t-109.5 229t-2.5 279zM674 633q-38 -190 36 -292.5t222 -102.5q77 0 153 32 t138 88q11 11 18 12.5t12 -5.5q14 -14 -6 -31q-66 -61 -150 -98t-171 -37q-174 0 -253 117.5t-36 338.5l25 127q42 221 166.5 339t299.5 118q87 0 157 -37t112 -98q12 -16 -6 -31q-17 -13 -29 6q-39 56 -103 88.5t-141 32.5q-148 0 -261 -102t-150 -293zM344 717 q-27 -138 1.5 -263.5t101 -215.5t187.5 -143.5t253 -53.5q185 0 358.5 90t295 246t157.5 340q27 138 -2.5 263.5t-103 216.5t-188.5 144.5t-253 53.5t-274 -53.5t-243.5 -144.5t-185 -216.5t-104.5 -263.5z" />
<glyph unicode="&#xaa;" horiz-adv-x="632" d="M707 1149l18 96q13 73 -24.5 114.5t-106.5 41.5q-45 0 -77 -13t-66 -42q-16 -14 -27 0q-8 10 8 24q73 66 172 66q83 0 127 -53t27 -138l-74 -373q-3 -14 -5.5 -17t-14.5 -3t-14 3t1 17l11 52q-85 -73 -181 -76q-84 -3 -136 48.5t-34 139.5q18 89 89.5 141.5t154.5 49.5 q92 -3 152 -78zM668 956l30 160q-55 72 -143 78q-71 3 -132 -39t-75 -119t30.5 -118.5t115.5 -38.5q90 6 174 77z" />
<glyph unicode="&#xab;" horiz-adv-x="972" d="M258 489q-19 22 8 46l375 305q13 10 22.5 5.5t6.5 -18.5q-3 -13 -7 -19t-22 -20l-326 -264q-14 -11 -4 -24l224 -264q12 -15 13.5 -21t-1.5 -18q-3 -14 -13.5 -18.5t-19.5 5.5zM618 489q-19 22 9 46l374 305q13 10 22.5 5.5t6.5 -18.5q-3 -13 -7 -19t-22 -20l-325 -264 q-14 -11 -4 -24l223 -264q12 -15 13.5 -21t-1.5 -18q-3 -14 -13.5 -18.5t-19.5 5.5z" />
<glyph unicode="&#xad;" horiz-adv-x="1206" d="M211 563q3 14 8.5 18.5t18.5 4.5h956q14 0 17.5 -5t0.5 -18q-3 -14 -8 -18t-18 -4h-957q-14 0 -17.5 4.5t-0.5 17.5z" />
<glyph unicode="&#xae;" horiz-adv-x="1763" d="M303 717q28 146 111 279.5t198 229.5t259 153t290 57q117 0 219.5 -36.5t176.5 -102t125 -156t64 -197.5t-7 -227q-38 -195 -166.5 -360.5t-312 -261t-377.5 -95.5q-146 0 -268 56.5t-200 152.5t-109.5 229t-2.5 279zM344 717q-27 -138 1.5 -263.5t101 -215.5 t187.5 -143.5t253 -53.5q185 0 358.5 90t295 246t157.5 340q27 138 -2.5 263.5t-103 216.5t-188.5 144.5t-253 53.5t-274 -53.5t-243.5 -144.5t-185 -216.5t-104.5 -263.5zM799 651l-70 -362q-3 -17 -8.5 -22t-20.5 -5q-14 0 -17 5t1 22l176 903q3 15 8.5 20t22.5 5h231 q157 0 221 -71t39 -200q-43 -230 -286 -264l157 -393q4 -10 -1.5 -18.5t-16.5 -8.5h-2q-14 0 -19.5 3t-9.5 16l-157 395h-218q-17 0 -22 -4t-8 -21zM1118 1174h-192q-17 0 -21.5 -4t-7.5 -21l-80 -404q-3 -18 0 -22t21 -4h192q264 0 307 227q46 228 -219 228z" />
<glyph unicode="&#xaf;" horiz-adv-x="530" d="M360 1571q-14 0 -17.5 4.5t-0.5 17.5q3 14 8.5 18.5t18.5 4.5h419q14 0 18 -5t1 -18t-8 -17.5t-19 -4.5h-420z" />
<glyph unicode="&#xb0;" horiz-adv-x="626" d="M508 1020q-85 0 -135 62t-33 147q17 88 91 150.5t159 62.5q88 0 138.5 -62.5t33.5 -150.5q-17 -85 -92 -147t-162 -62zM383 1229q-14 -69 25 -117.5t108 -48.5t128.5 48.5t72.5 117.5q14 69 -26 118.5t-109 49.5t-127 -49.5t-72 -118.5z" />
<glyph unicode="&#xb2;" horiz-adv-x="499" d="M528 1438q60 0 94.5 -39t22.5 -99q-8 -38 -41 -74t-75.5 -67t-85 -63.5t-76.5 -75t-43 -88.5l-7 -27q-3 -13 0.5 -15.5t16.5 -2.5h219q15 0 12 -19q-3 -16 -20 -16h-260q-10 0 -13.5 3.5t-1.5 12.5l15 72q9 48 43 92.5t77.5 78t86 64.5t75 63t39.5 62q10 45 -17.5 73 t-72.5 28q-46 0 -94 -39q-14 -11 -25 2q-8 12 4 22q55 52 127 52z" />
<glyph unicode="&#xb3;" horiz-adv-x="524" d="M578 1022q10 48 -10 84.5t-64 36.5q-9 0 -12 4.5t0 17.5q3 17 20 17q40 0 68.5 31t35.5 71q11 54 -19 85.5t-81 31.5q-53 0 -100 -41q-14 -12 -27 4q-8 10 4 22q55 52 131 52q67 0 107 -41.5t26 -112.5q-14 -76 -84 -121q62 -51 43 -141q-14 -83 -72.5 -128.5 t-133.5 -45.5q-83 0 -125 57q-9 15 8 27q15 12 24 0q38 -47 99 -47q57 0 103.5 37t58.5 100z" />
<glyph unicode="&#xb4;" horiz-adv-x="348" d="M371 1565q-22 -19 -33 -6q-5 8 -3 13.5t15 16.5l266 234q20 19 29 20.5t19 -12.5q8 -9 8 -15.5t-4.5 -11t-20.5 -18.5z" />
<glyph unicode="&#xb6;" horiz-adv-x="1644" d="M1806 1434q14 0 18 -4.5t1 -16.5t-8.5 -16t-18.5 -4h-203q-13 0 -17 -3.5t-7 -17.5l-379 -1945q-3 -14 -8.5 -18.5t-18.5 -4.5q-14 0 -17.5 5t-0.5 18l379 1945q3 13 0 17t-17 4h-432q-13 0 -17 -3.5t-7 -17.5l-379 -1945q-3 -14 -8.5 -18.5t-18.5 -4.5q-14 0 -17.5 5 t-0.5 18l211 1079q9 51 2 59t-58 8h-166q-175 0 -276 125.5t-66 305.5q34 176 175 303t307 127h1048z" />
<glyph unicode="&#xb7;" horiz-adv-x="376" d="M283 754q5 22 22 36.5t39 14.5t33.5 -14.5t7.5 -36.5q-5 -22 -22 -37t-39 -15t-34 15t-7 37z" />
<glyph unicode="&#xb8;" horiz-adv-x="468" d="M39 -225q-14 5 -6 20l119 230l38 2l-84 -168q55 33 109 33.5t91 -24t56 -67.5t9 -92q-12 -60 -50.5 -107t-87 -70t-101.5 -21.5t-93 32.5q-12 9 -2 25q14 22 29 10q32 -25 74.5 -26.5t81 17.5t69 56t39.5 82q12 63 -28.5 107.5t-109 40t-126.5 -69.5q-12 -15 -27 -10z " />
<glyph unicode="&#xb9;" horiz-adv-x="432" d="M324 1311l139 116q9 7 18 7h6q16 0 13 -17l-107 -549q-3 -16 -20 -16h-8q-16 0 -13 16l99 504l-105 -88q-16 -13 -27 4q-9 12 5 23z" />
<glyph unicode="&#xba;" horiz-adv-x="647" d="M774 1182l-14 -70q-24 -125 -98.5 -192.5t-174.5 -67.5t-147 67t-23 193l15 70q24 126 97 193t173 67t148 -67.5t24 -192.5zM496 889q86 0 144 56t79 167l14 70q21 111 -15.5 167t-121.5 56q-86 0 -144 -56t-79 -167l-15 -70q-21 -111 15.5 -167t122.5 -56z" />
<glyph unicode="&#xbb;" horiz-adv-x="972" d="M903 489l-375 -305q-12 -10 -21.5 -5.5t-6.5 18.5q5 18 14 28q5 4 14 11l326 264q14 11 4 24l-223 264q-11 14 -13 20.5t1 18.5q3 14 13 18.5t19 -5.5l256 -305q19 -22 -8 -46zM543 489l-375 -305q-12 -10 -22 -5.5t-7 18.5q3 13 7 19t22 20l326 264q14 11 4 24l-224 264 q-11 14 -13 20.5t1 18.5q3 14 13.5 18.5t19.5 -5.5l256 -305q19 -22 -8 -46z" />
<glyph unicode="&#xbc;" horiz-adv-x="1341" d="M1190 215l-39 -197q-3 -12 -7 -15t-16 -3q-13 0 -17 3.5t-1 14.5l39 197q3 12 -8 12h-336q-24 0 -19 23q4 22 19 37l446 514q10 11 15 13.5t18 2.5t17.5 -3.5t1.5 -14.5l-101 -520q-3 -13 10 -13h33q10 0 12.5 -4t-0.5 -14q-3 -14 -6 -17.5t-14 -3.5h-33q-12 0 -14 -12z M1241 737l-399 -458q-4 -4 -4.5 -7t1.5 -4.5t5 -1.5h305q9 0 12 13l88 456q0 3 -2.5 4t-5.5 -2zM459 41l561 1348q12 29 18.5 37t18.5 8h4q7 0 10.5 -2.5t2.5 -9t-2.5 -12t-6.5 -17.5l-561 -1348q-13 -30 -18.5 -37.5t-16.5 -7.5h-4q-7 0 -10.5 2.5t-3.5 8.5t2 12.5t6 17.5z M377 1262l194 161q13 11 33 11q10 0 13 -4.5t1 -16.5l-151 -776q-3 -13 -7.5 -17t-17.5 -4t-16 4.5t0 16.5l143 739l-170 -143q-12 -9 -17 -9t-11 9q-7 9 -6 14.5t12 14.5z" />
<glyph unicode="&#xbd;" horiz-adv-x="1329" d="M459 41l561 1348q12 29 18.5 37t18.5 8h4q7 0 10.5 -2.5t2.5 -9t-2.5 -12t-6.5 -17.5l-561 -1348q-13 -30 -18.5 -37.5t-16.5 -7.5h-4q-7 0 -10.5 2.5t-3.5 8.5t2 12.5t6 17.5zM377 1262l194 161q13 11 33 11q11 0 14 -4t0 -17l-151 -776q-3 -13 -7.5 -17t-17.5 -4 t-16 4.5t0 16.5l143 739l-170 -143q-12 -9 -17 -8.5t-11 8.5q-7 9 -6 14.5t12 14.5zM829 0q-24 0 -18 23l20 108q13 66 60 127t106 106.5t117.5 87.5t103.5 89.5t56 93.5q17 69 -19.5 110t-107.5 41q-72 0 -141 -59q-22 -17 -33 -4q-11 14 10 33q46 36 86 52.5t90 16.5 q84 0 129 -53t25 -137q-13 -54 -59.5 -106t-104.5 -95t-116.5 -87.5t-104.5 -103t-58 -122.5l-10 -55q-4 -19 -2 -22t21 -3h303q13 0 17 -4.5t1 -16.5q-3 -13 -7 -16.5t-17 -3.5h-347z" />
<glyph unicode="&#xbe;" horiz-adv-x="1521" d="M639 41l561 1348q12 29 18.5 37t18.5 8h4q7 0 10.5 -2.5t2.5 -9t-2.5 -12t-6.5 -17.5l-561 -1348q-13 -30 -18.5 -37.5t-16.5 -7.5h-4q-7 0 -10.5 2.5t-3.5 8.5t2 12.5t6 17.5zM602 1442q90 2 148 -55t38 -162q-19 -101 -118 -168q93 -74 69 -199q-22 -115 -107 -180 t-188 -62q-112 3 -170 70q-16 18 2 33q16 14 29 -4q47 -57 148 -60q90 -3 157.5 51t87.5 152q14 74 -18.5 125t-101.5 51q-22 0 -19 21q3 22 27 22q63 0 106 43t56 105q18 89 -27.5 134.5t-124.5 43.5q-86 -3 -145 -53q-22 -17 -33 -4q-11 14 10 32q76 61 174 64zM1368 215 l-39 -197q-3 -12 -6.5 -15t-15.5 -3q-13 0 -17.5 3.5t-1.5 14.5l39 197q3 12 -8 12h-336q-12 0 -16.5 5t-1.5 18q4 23 18 37l447 514q10 12 15 14t17 2q13 0 17.5 -3.5t1.5 -14.5l-101 -520q-3 -13 11 -13h32q11 0 13.5 -4t-0.5 -14q-3 -13 -6.5 -17t-14.5 -4h-33 q-12 0 -14 -12zM1419 737l-399 -458q-4 -4 -4.5 -7t1.5 -4.5t5 -1.5h305q9 0 12 13l88 456q0 3 -2.5 4t-5.5 -2z" />
<glyph unicode="&#xbf;" horiz-adv-x="864" d="M604 592q-16 -80 -45.5 -147t-65.5 -114t-76.5 -88t-80 -78t-74 -74t-62 -85t-40.5 -104q-28 -119 34 -200t189 -81q85 0 149.5 33.5t131.5 91.5q21 16 32 2t-10 -33q-77 -71 -150.5 -103t-160.5 -32q-137 0 -214.5 88t-45.5 234q13 60 41 111.5t63 89.5t75 75t80 77.5 t76 85.5t65 109.5t44 141.5l10 51q3 14 8.5 18.5t18.5 4.5q14 0 17.5 -5t0.5 -18zM705 979q-5 -22 -21.5 -36.5t-38.5 -14.5t-34.5 14.5t-8.5 36.5t22 36.5t40 14.5t33.5 -14.5t7.5 -36.5z" />
<glyph unicode="&#xc0;" horiz-adv-x="1249" d="M903 1434q9 0 13 -1t7 -6t5 -16l215 -1388q1 -13 -4 -18t-19 -5t-19.5 5t-6.5 18l-62 387q-3 19 -9 23.5t-26 4.5h-577q-20 0 -28.5 -4.5t-18.5 -23.5l-209 -387q-8 -14 -15 -18.5t-20 -4.5q-27 0 -14 23l751 1388q8 16 15 19.5t22 3.5zM422 502q-5 -12 -1.5 -17.5 t11.5 -5.5h569q22 0 19 23l-125 831q-2 10 -10.5 10.5t-14.5 -10.5zM1049 1597l-191 222q-14 18 -14.5 24.5t14.5 20.5q18 13 24 11t19 -20l176 -233q9 -11 9 -17.5t-9 -13.5t-14 -6t-14 12z" />
<glyph unicode="&#xc1;" horiz-adv-x="1249" d="M903 1434q9 0 13 -1t7 -6t5 -16l215 -1388q1 -13 -4 -18t-19 -5t-19.5 5t-6.5 18l-62 387q-3 19 -9 23.5t-26 4.5h-577q-20 0 -28.5 -4.5t-18.5 -23.5l-209 -387q-8 -14 -15 -18.5t-20 -4.5q-27 0 -14 23l751 1388q8 16 15 19.5t22 3.5zM422 502q-5 -12 -1.5 -17.5 t11.5 -5.5h569q22 0 19 23l-125 831q-2 10 -10.5 10.5t-14.5 -10.5zM831 1597q-22 -19 -32 -6q-10 12 12 31l266 233q21 19 28.5 20.5t18.5 -11.5q11 -15 8.5 -21t-24.5 -24z" />
<glyph unicode="&#xc2;" horiz-adv-x="1249" d="M903 1434q9 0 13 -1t7 -6t5 -16l215 -1388q1 -13 -4 -18t-19 -5t-19.5 5t-6.5 18l-62 387q-3 19 -9 23.5t-26 4.5h-577q-20 0 -28.5 -4.5t-18.5 -23.5l-209 -387q-8 -14 -15 -18.5t-20 -4.5q-27 0 -14 23l751 1388q8 16 15 19.5t22 3.5zM422 502q-5 -12 -1.5 -17.5 t11.5 -5.5h569q22 0 19 23l-125 831q-2 10 -10.5 10.5t-14.5 -10.5zM965 1798l-222 -192q-21 -18 -27.5 -19.5t-19.5 10.5q-9 15 -6 20.5t25 24.5l254 205q13 11 24 0l176 -205q14 -18 14.5 -24.5t-16.5 -20.5q-16 -13 -22.5 -11t-20.5 20l-143 192q-6 10 -16 0z" />
<glyph unicode="&#xc3;" horiz-adv-x="1249" d="M903 1434q9 0 13 -1t7 -6t5 -16l215 -1388q1 -13 -4 -18t-19 -5t-19.5 5t-6.5 18l-62 387q-3 19 -9 23.5t-26 4.5h-577q-20 0 -28.5 -4.5t-18.5 -23.5l-209 -387q-8 -14 -15 -18.5t-20 -4.5q-27 0 -14 23l751 1388q8 16 15 19.5t22 3.5zM422 502q-5 -12 -1.5 -17.5 t11.5 -5.5h569q22 0 19 23l-125 831q-2 10 -10.5 10.5t-14.5 -10.5zM1051 1585q-34 1 -65.5 18.5t-51.5 37t-47 37t-53 18.5q-31 2 -62 -14t-46 -31.5t-40 -44.5q-15 -20 -31 -9q-15 10 -2 29q91 115 187 111q31 -1 60.5 -18.5t49 -37t48 -37t59.5 -18.5t61.5 15t46 31.5 t39.5 43.5q15 21 33 8q13 -10 0 -28q-88 -111 -186 -111z" />
<glyph unicode="&#xc4;" horiz-adv-x="1249" d="M903 1434q9 0 13 -1t7 -6t5 -16l215 -1388q1 -13 -4 -18t-19 -5t-19.5 5t-6.5 18l-62 387q-3 19 -9 23.5t-26 4.5h-577q-20 0 -28.5 -4.5t-18.5 -23.5l-209 -387q-8 -14 -15 -18.5t-20 -4.5q-27 0 -14 23l751 1388q8 16 15 19.5t22 3.5zM422 502q-5 -12 -1.5 -17.5 t11.5 -5.5h569q22 0 19 23l-125 831q-2 10 -10.5 10.5t-14.5 -10.5zM1024 1634q4 21 21 35t38 14q20 0 32 -15t7 -34q-5 -21 -21 -35t-36 -14q-21 0 -33 14.5t-8 34.5zM758 1634q5 20 22 34.5t37 14.5t31 -14t8 -35q-3 -20 -20 -34.5t-37 -14.5q-21 0 -33 14.5t-8 34.5z" />
<glyph unicode="&#xc5;" horiz-adv-x="1249" d="M903 1434q9 0 13 -1t7 -6t5 -16l215 -1388q1 -13 -4 -18t-19 -5t-19.5 5t-6.5 18l-62 387q-3 19 -9 23.5t-26 4.5h-577q-20 0 -28.5 -4.5t-18.5 -23.5l-209 -387q-8 -14 -15 -18.5t-20 -4.5q-27 0 -14 23l751 1388q8 16 15 19.5t22 3.5zM422 502q-5 -12 -1.5 -17.5 t11.5 -5.5h569q22 0 19 23l-125 831q-2 10 -10.5 10.5t-14.5 -10.5zM846 1737q-9 -47 18 -81t74 -34t87.5 34t49.5 81t-18 80.5t-74 33.5t-87.5 -33.5t-49.5 -80.5zM809 1737q12 63 64.5 107t115.5 44t99 -44t24 -107t-65.5 -107.5t-116.5 -44.5t-98 44.5t-23 107.5z" />
<glyph unicode="&#xc6;" horiz-adv-x="1501" d="M705 418q3 13 0 16.5t-17 3.5h-268q-20 0 -28.5 -4.5t-18.5 -23.5l-209 -387q-8 -14 -15 -18.5t-20 -4.5q-27 0 -14 23l751 1388q13 23 37 23h707q13 0 17 -4.5t1 -16.5t-8 -16t-18 -4h-641q-13 0 -17.5 -3.5t-7.5 -17.5l-113 -575q-3 -13 0 -17t17 -4h538q13 0 17 -4 t2 -16q-1 -12 -7 -16.5t-20 -4.5h-539q-13 0 -17 -3t-7 -17l-127 -654q-3 -13 -0.5 -16.5t16.5 -3.5h641q13 0 17 -4.5t2 -16.5q-1 -12 -6.5 -16t-18.5 -4h-684q-14 0 -17.5 5t-0.5 18zM422 502q-5 -12 -1.5 -17.5t11.5 -5.5h264q13 0 17.5 3.5t7.5 17.5l164 843 q-10 0 -15 -10z" />
<glyph unicode="&#xc7;" horiz-adv-x="1226" d="M483 -225q-14 5 -6 20l107 205q-90 17 -157.5 61.5t-113 122t-55 187.5t17.5 258l35 176q33 167 102 294t162 201t198 109.5t220 32.5q230 -6 342 -182q12 -18 -10 -33q-15 -7 -20 -4t-13 14q-101 158 -307 164q-85 2 -164.5 -18t-153.5 -66.5t-134.5 -116t-106.5 -171.5 t-70 -228l-32 -168q-29 -161 -13.5 -276t74 -188t143 -106t193.5 -30q214 6 379 174q13 13 26 0q16 -15 -2 -33q-176 -176 -411 -182q-33 0 -95 4l-67 -137q55 33 109 33.5t90.5 -24t55.5 -67.5t9 -92q-12 -60 -50.5 -107t-87 -70t-101.5 -21.5t-93 32.5q-12 9 -2 25 q14 22 29 10q32 -25 74.5 -26.5t81 17.5t69 56t39.5 82q12 63 -28.5 107.5t-109 40t-126.5 -69.5q-12 -15 -27 -10z" />
<glyph unicode="&#xc8;" horiz-adv-x="1114" d="M1010 756q-1 -12 -7 -16.5t-20 -4.5h-539q-13 0 -17 -3t-7 -17l-127 -654q-3 -13 -0.5 -16.5t16.5 -3.5h641q14 0 18 -4.5t1 -16.5q-1 -12 -6 -16t-19 -4h-684q-14 0 -17.5 5t-0.5 18l268 1388q5 23 29 23h684q13 0 17 -4.5t1 -16.5t-8.5 -16t-18.5 -4h-641 q-13 0 -17 -3.5t-7 -17.5l-113 -575q-3 -13 0 -17t17 -4h538q13 0 17 -4t2 -16zM999 1597l-190 222q-14 18 -14.5 24.5t14.5 20.5q18 13 24 11t19 -20l176 -233q16 -18 0 -31q-9 -7 -14.5 -6t-14.5 12z" />
<glyph unicode="&#xc9;" horiz-adv-x="1114" d="M1010 756q-1 -12 -7 -16.5t-20 -4.5h-539q-13 0 -17 -3t-7 -17l-127 -654q-3 -13 -0.5 -16.5t16.5 -3.5h641q14 0 18 -4.5t1 -16.5q-1 -12 -6 -16t-19 -4h-684q-14 0 -17.5 5t-0.5 18l268 1388q5 23 29 23h684q13 0 17 -4.5t1 -16.5t-8.5 -16t-18.5 -4h-641 q-13 0 -17 -3.5t-7 -17.5l-113 -575q-3 -13 0 -17t17 -4h538q13 0 17 -4t2 -16zM821 1597q-22 -19 -33 -6q-9 12 13 31l266 233q21 19 28.5 20.5t18.5 -11.5q11 -15 8.5 -21t-24.5 -24z" />
<glyph unicode="&#xca;" horiz-adv-x="1114" d="M1010 756q-1 -12 -7 -16.5t-20 -4.5h-539q-13 0 -17 -3t-7 -17l-127 -654q-3 -13 -0.5 -16.5t16.5 -3.5h641q14 0 18 -4.5t1 -16.5q-1 -12 -6 -16t-19 -4h-684q-14 0 -17.5 5t-0.5 18l268 1388q5 23 29 23h684q13 0 17 -4.5t1 -16.5t-8.5 -16t-18.5 -4h-641 q-13 0 -17 -3.5t-7 -17.5l-113 -575q-3 -13 0 -17t17 -4h538q13 0 17 -4t2 -16zM938 1798l-221 -192q-21 -18 -27.5 -19.5t-19.5 10.5q-9 15 -6.5 21t24.5 24l254 205q14 11 25 0l176 -205q14 -18 14.5 -24.5t-16.5 -20.5q-16 -13 -22.5 -11t-20.5 20l-144 192q-6 10 -16 0z " />
<glyph unicode="&#xcb;" horiz-adv-x="1114" d="M1010 756q-1 -12 -7 -16.5t-20 -4.5h-539q-13 0 -17 -3t-7 -17l-127 -654q-3 -13 -0.5 -16.5t16.5 -3.5h641q14 0 18 -4.5t1 -16.5q-1 -12 -6 -16t-19 -4h-684q-14 0 -17.5 5t-0.5 18l268 1388q5 23 29 23h684q13 0 17 -4.5t1 -16.5t-8.5 -16t-18.5 -4h-641 q-13 0 -17 -3.5t-7 -17.5l-113 -575q-3 -13 0 -17t17 -4h538q13 0 17 -4t2 -16zM997 1634q4 21 21.5 35t38.5 14q20 0 32 -15t7 -34q-5 -20 -21.5 -34.5t-36.5 -14.5q-21 0 -33 14.5t-8 34.5zM731 1634q4 20 22 34.5t38 14.5t30.5 -14t7.5 -35q-3 -20 -20 -34.5t-37 -14.5 q-21 0 -33 14.5t-8 34.5z" />
<glyph unicode="&#xcc;" horiz-adv-x="520" d="M260 0q-14 0 -17.5 5t-0.5 18l268 1388q5 23 29 23q13 0 16 -5t0 -18l-268 -1388q-3 -14 -8.5 -18.5t-18.5 -4.5zM682 1597l-190 222q-14 18 -14.5 24.5t14.5 20.5q18 13 24 11t19 -20l176 -233q9 -11 9 -17.5t-9 -13.5t-14.5 -6t-14.5 12z" />
<glyph unicode="&#xcd;" horiz-adv-x="520" d="M260 0q-14 0 -17.5 5t-0.5 18l268 1388q5 23 29 23q13 0 16 -5t0 -18l-268 -1388q-3 -14 -8.5 -18.5t-18.5 -4.5zM461 1597q-22 -19 -33 -6q-10 12 12 31l267 233q21 19 28.5 20.5t18.5 -11.5q8 -9 8 -15.5t-4.5 -11t-20.5 -18.5z" />
<glyph unicode="&#xce;" horiz-adv-x="520" d="M260 0q-14 0 -17.5 5t-0.5 18l268 1388q5 23 29 23q13 0 16 -5t0 -18l-268 -1388q-3 -14 -8.5 -18.5t-18.5 -4.5zM602 1798l-221 -192q-21 -18 -27.5 -19.5t-19.5 10.5q-9 15 -6.5 21t24.5 24l254 205q14 11 25 0l176 -205q14 -18 14.5 -24.5t-16.5 -20.5 q-16 -13 -22.5 -11t-20.5 20l-144 192q-6 10 -16 0z" />
<glyph unicode="&#xcf;" horiz-adv-x="520" d="M260 0q-14 0 -17.5 5t-0.5 18l268 1388q5 23 29 23q13 0 16 -5t0 -18l-268 -1388q-3 -14 -8.5 -18.5t-18.5 -4.5zM662 1634q4 21 21 35t38 14q20 0 32 -15t7 -34q-5 -20 -21.5 -34.5t-36.5 -14.5t-32 14.5t-8 34.5zM395 1634q4 20 22 34.5t38 14.5t31 -14t8 -35 q-3 -20 -20.5 -34.5t-37.5 -14.5q-21 0 -33 14.5t-8 34.5z" />
<glyph unicode="&#xd0;" horiz-adv-x="1351" d="M274 975q3 12 8.5 16t18.5 4h109q13 0 17 3.5t7 17.5l76 395q5 23 29 23h368q261 0 383 -161t62 -468l-35 -176q-60 -307 -243.5 -468t-444.5 -161h-369q-14 0 -17.5 5t-0.5 18l176 911q3 13 0 16.5t-17 3.5h-108q-14 0 -18 4.5t-1 16.5zM549 1372l-70 -356q-3 -13 0 -17 t17 -4h206q14 0 18 -4t1 -16t-8.5 -16.5t-18.5 -4.5h-207q-13 0 -17 -3t-7 -17l-170 -873q-3 -13 -0.5 -16.5t16.5 -3.5h318q248 0 419 150.5t228 441.5l33 168q56 291 -56 441.5t-360 150.5h-318q-13 0 -17 -3.5t-7 -17.5z" />
<glyph unicode="&#xd1;" horiz-adv-x="1427" d="M1143 18l-588 1299q-3 8 -10 6t-8 -12l-250 -1288q-3 -14 -8.5 -18.5t-18.5 -4.5q-14 0 -17.5 5t-0.5 18l268 1388q5 23 29 23q14 0 22 -19l588 -1298q3 -8 10 -6t8 12l250 1288q5 23 29 23q13 0 16 -5t0 -18l-268 -1388q-3 -14 -8.5 -18.5t-18.5 -4.5q-6 0 -8.5 0.5 t-6.5 4.5t-9 13zM1141 1585q-34 1 -65.5 18.5t-51.5 37t-47 37t-53 18.5q-31 2 -62 -14t-46 -31.5t-40 -44.5q-15 -20 -31 -9q-15 10 -2 29q91 115 187 111q31 -1 60.5 -18.5t49 -37t48 -37t59.5 -18.5t61.5 15t46 31.5t39.5 43.5q15 21 33 8q13 -10 0 -28 q-88 -111 -186 -111z" />
<glyph unicode="&#xd2;" horiz-adv-x="1404" d="M1405 805l-35 -176q-33 -166 -100 -291t-157.5 -199t-193.5 -110.5t-219 -36.5q-92 0 -167.5 22.5t-136.5 70.5t-95.5 123t-43.5 180t19 241l35 176q32 165 99 290.5t157.5 199.5t194 110.5t219.5 36.5t205 -35.5t152 -112.5t80 -197.5t-13 -291.5zM356 801l-32 -168 q-28 -159 -14 -272.5t70.5 -186.5t138.5 -107t190 -34t204 35t178.5 105.5t143.5 187.5t92 272l33 168q28 159 13.5 272.5t-71 186.5t-139 107t-190.5 34t-204 -35t-178.5 -105.5t-143.5 -187.5t-91 -272zM1124 1597l-190 222q-14 18 -14.5 24.5t14.5 20.5q18 13 24 11 t19 -20l176 -233q9 -11 9 -17.5t-9 -13.5t-14.5 -6t-14.5 12z" />
<glyph unicode="&#xd3;" horiz-adv-x="1404" d="M1405 805l-35 -176q-33 -166 -100 -291t-157.5 -199t-193.5 -110.5t-219 -36.5q-92 0 -167.5 22.5t-136.5 70.5t-95.5 123t-43.5 180t19 241l35 176q32 165 99 290.5t157.5 199.5t194 110.5t219.5 36.5t205 -35.5t152 -112.5t80 -197.5t-13 -291.5zM356 801l-32 -168 q-28 -159 -14 -272.5t70.5 -186.5t138.5 -107t190 -34t204 35t178.5 105.5t143.5 187.5t92 272l33 168q28 159 13.5 272.5t-71 186.5t-139 107t-190.5 34t-204 -35t-178.5 -105.5t-143.5 -187.5t-91 -272zM956 1597q-22 -19 -32 -6q-10 12 12 31l266 233q21 19 28.5 20.5 t18.5 -11.5q11 -15 8.5 -21t-24.5 -24z" />
<glyph unicode="&#xd4;" horiz-adv-x="1404" d="M1405 805l-35 -176q-33 -166 -100 -291t-157.5 -199t-193.5 -110.5t-219 -36.5q-92 0 -167.5 22.5t-136.5 70.5t-95.5 123t-43.5 180t19 241l35 176q32 165 99 290.5t157.5 199.5t194 110.5t219.5 36.5t205 -35.5t152 -112.5t80 -197.5t-13 -291.5zM356 801l-32 -168 q-28 -159 -14 -272.5t70.5 -186.5t138.5 -107t190 -34t204 35t178.5 105.5t143.5 187.5t92 272l33 168q28 159 13.5 272.5t-71 186.5t-139 107t-190.5 34t-204 -35t-178.5 -105.5t-143.5 -187.5t-91 -272zM1042 1798l-221 -192q-21 -18 -27.5 -19.5t-19.5 10.5 q-9 15 -6 20.5t25 24.5l254 205q13 11 24 0l176 -205q14 -18 14.5 -24.5t-16.5 -20.5q-16 -13 -22.5 -11t-20.5 20l-143 192q-7 10 -17 0z" />
<glyph unicode="&#xd5;" horiz-adv-x="1404" d="M1405 805l-35 -176q-33 -166 -100 -291t-157.5 -199t-193.5 -110.5t-219 -36.5q-92 0 -167.5 22.5t-136.5 70.5t-95.5 123t-43.5 180t19 241l35 176q32 165 99 290.5t157.5 199.5t194 110.5t219.5 36.5t205 -35.5t152 -112.5t80 -197.5t-13 -291.5zM356 801l-32 -168 q-28 -159 -14 -272.5t70.5 -186.5t138.5 -107t190 -34t204 35t178.5 105.5t143.5 187.5t92 272l33 168q28 159 13.5 272.5t-71 186.5t-139 107t-190.5 34t-204 -35t-178.5 -105.5t-143.5 -187.5t-91 -272zM1128 1585q-33 1 -64 18.5t-51 37t-47 37t-53 18.5q-23 1 -44 -5.5 t-41 -23.5t-30.5 -28t-29.5 -33q-15 -20 -31 -9q-15 10 -2 29q91 115 185 111q31 -1 60.5 -18.5t48.5 -37t47.5 -37t58.5 -18.5q31 -1 61.5 15t46 31.5t39.5 43.5q13 21 31 8q13 -10 0 -28q-86 -111 -185 -111z" />
<glyph unicode="&#xd6;" horiz-adv-x="1404" d="M1405 805l-35 -176q-33 -166 -100 -291t-157.5 -199t-193.5 -110.5t-219 -36.5q-92 0 -167.5 22.5t-136.5 70.5t-95.5 123t-43.5 180t19 241l35 176q32 165 99 290.5t157.5 199.5t194 110.5t219.5 36.5t205 -35.5t152 -112.5t80 -197.5t-13 -291.5zM356 801l-32 -168 q-28 -159 -14 -272.5t70.5 -186.5t138.5 -107t190 -34t204 35t178.5 105.5t143.5 187.5t92 272l33 168q28 159 13.5 272.5t-71 186.5t-139 107t-190.5 34t-204 -35t-178.5 -105.5t-143.5 -187.5t-91 -272zM1102 1634q4 21 21 35t38 14q20 0 32 -15t7 -34q-5 -21 -21 -35 t-36 -14q-21 0 -33 14.5t-8 34.5zM836 1634q5 20 22 34.5t37 14.5t31 -14t8 -35q-3 -20 -20 -34.5t-37 -14.5q-21 0 -33 14.5t-8 34.5z" />
<glyph unicode="&#xd7;" horiz-adv-x="776" d="M535 715q-8 11 -21 0l-254 -215q-16 -13 -22.5 -14.5t-16.5 8.5q-7 11 -4.5 17t16.5 17l256 217q13 10 5 21l-172 215q-10 11 -10 18t12 17q13 10 18.5 8.5t15.5 -14.5l172 -213q8 -11 21 0l258 215q14 13 20.5 14.5t16.5 -8.5q8 -12 5.5 -17.5t-15.5 -17.5l-261 -217 q-12 -10 -4 -21l174 -215q8 -12 8.5 -17t-10.5 -17q-14 -10 -19.5 -8.5t-16.5 14.5z" />
<glyph unicode="&#xd8;" horiz-adv-x="1404" d="M254 23l92 114q-134 167 -70 492l35 176q32 165 99 290.5t157.5 199.5t194 110.5t219.5 36.5q211 0 326 -115l67 84q9 12 15.5 17t10.5 5.5t19 0.5q26 0 6 -23l-90 -113q134 -167 70 -493l-35 -176q-32 -165 -99 -290.5t-157.5 -199.5t-194 -110.5t-219.5 -36.5 q-213 0 -327 114l-68 -83q-13 -17 -19 -20t-24 -3q-12 0 -14.5 5.5t6.5 17.5zM1360 801q59 302 -57 456l-900 -1114q104 -110 306 -110q108 0 204 35t178.5 105.5t143.5 187.5t92 272zM356 801l-32 -168q-60 -307 53 -457l899 1112q-107 113 -303 113q-108 0 -204 -35 t-178.5 -105.5t-143.5 -187.5t-91 -272z" />
<glyph unicode="&#xd9;" horiz-adv-x="1343" d="M1374 1411q5 23 29 23q13 0 16 -5t0 -18l-172 -893q-24 -122 -73.5 -217t-108 -152t-130.5 -93.5t-136 -50t-129 -13.5q-40 0 -77.5 5.5t-77.5 17t-74 32t-64.5 49t-51.5 70t-33.5 91.5t-11 117t16.5 144l172 893q5 23 29 23q13 0 16 -5t0 -18l-174 -901 q-23 -106 -13 -186t39 -135.5t79 -90.5t107 -51t124 -16t130.5 15.5t126.5 51.5t114.5 90t92 136.5t60.5 185.5zM1053 1597l-191 222q-14 18 -14.5 24.5t14.5 20.5q18 13 24 11t19 -20l176 -233q9 -11 9 -17.5t-9 -13.5t-14 -6t-14 12z" />
<glyph unicode="&#xda;" horiz-adv-x="1343" d="M1374 1411q5 23 29 23q13 0 16 -5t0 -18l-172 -893q-24 -122 -73.5 -217t-108 -152t-130.5 -93.5t-136 -50t-129 -13.5q-40 0 -77.5 5.5t-77.5 17t-74 32t-64.5 49t-51.5 70t-33.5 91.5t-11 117t16.5 144l172 893q5 23 29 23q13 0 16 -5t0 -18l-174 -901 q-23 -106 -13 -186t39 -135.5t79 -90.5t107 -51t124 -16t130.5 15.5t126.5 51.5t114.5 90t92 136.5t60.5 185.5zM915 1597q-22 -19 -32 -6q-10 12 12 31l266 233q21 19 28.5 20.5t18.5 -11.5q11 -15 8.5 -21t-24.5 -24z" />
<glyph unicode="&#xdb;" horiz-adv-x="1343" d="M1374 1411q5 23 29 23q13 0 16 -5t0 -18l-172 -893q-24 -122 -73.5 -217t-108 -152t-130.5 -93.5t-136 -50t-129 -13.5q-40 0 -77.5 5.5t-77.5 17t-74 32t-64.5 49t-51.5 70t-33.5 91.5t-11 117t16.5 144l172 893q5 23 29 23q13 0 16 -5t0 -18l-174 -901 q-23 -106 -13 -186t39 -135.5t79 -90.5t107 -51t124 -16t130.5 15.5t126.5 51.5t114.5 90t92 136.5t60.5 185.5zM1012 1798l-221 -192q-21 -18 -28 -20t-20 11q-9 15 -6 20.5t25 24.5l254 205q13 11 24 0l177 -205q14 -17 14 -24.5t-17 -20.5q-16 -13 -22.5 -11t-20.5 20 l-143 192q-6 10 -16 0z" />
<glyph unicode="&#xdc;" horiz-adv-x="1343" d="M1374 1411q5 23 29 23q13 0 16 -5t0 -18l-172 -893q-24 -122 -73.5 -217t-108 -152t-130.5 -93.5t-136 -50t-129 -13.5q-40 0 -77.5 5.5t-77.5 17t-74 32t-64.5 49t-51.5 70t-33.5 91.5t-11 117t16.5 144l172 893q5 23 29 23q13 0 16 -5t0 -18l-174 -901 q-23 -106 -13 -186t39 -135.5t79 -90.5t107 -51t124 -16t130.5 15.5t126.5 51.5t114.5 90t92 136.5t60.5 185.5zM1071 1634q4 21 21 35t38 14q20 0 32 -15t7 -34q-5 -21 -21 -35t-36 -14q-21 0 -33 14.5t-8 34.5zM805 1634q5 20 22 34.5t37 14.5t31 -14t8 -35 q-3 -20 -20 -34.5t-37 -14.5q-21 0 -33 14.5t-8 34.5z" />
<glyph unicode="&#xdd;" horiz-adv-x="1110" d="M715 766l504 645q13 16 19.5 19.5t21.5 3.5q10 0 13 -5t-5 -18l-555 -706l-131 -682q-3 -14 -8.5 -18.5t-18.5 -4.5q-12 0 -16.5 5t-1.5 18l131 682l-281 706q-4 12 2.5 17.5t16.5 5.5t14 -1t8 -5.5t8 -16.5l254 -645q3 -8 11 -8t14 8zM799 1597q-22 -19 -33 -6 q-10 12 12 31l266 233q20 19 28.5 20.5t19.5 -11.5q8 -9 8 -15.5t-4.5 -11t-20.5 -18.5z" />
<glyph unicode="&#xde;" horiz-adv-x="1142" d="M510 1411q5 23 29 23q13 0 16 -5t0 -18l-45 -233q-3 -14 0 -17.5t16 -3.5h258q119 0 204 -33.5t128 -93t57.5 -140t-6.5 -175.5q-39 -200 -180 -321.5t-375 -121.5h-258q-13 0 -17 -3t-7 -17l-43 -229q-3 -14 -8.5 -18.5t-18.5 -4.5q-14 0 -17.5 5t-0.5 18zM621 313 q211 0 339 112t162 290q20 84 6.5 157t-52 127t-115.5 85.5t-185 31.5h-258q-13 0 -17 -3t-7 -17l-148 -762q-3 -14 0 -17.5t16 -3.5h259z" />
<glyph unicode="&#xdf;" horiz-adv-x="1021" d="M164 23l209 1075q37 191 184 283q119 75 255 57q124 -16 186 -103q58 -80 36 -194q-11 -59 -39.5 -110.5t-62 -88.5t-66 -71t-58.5 -73.5t-34 -80.5q-8 -40 0 -73.5t26.5 -56.5t42.5 -47t47.5 -44.5t42 -49t26 -60.5t-0.5 -79q-40 -193 -288 -276q-31 -11 -31 8 q0 15 3.5 20t21.5 11q47 16 82.5 33.5t73 44.5t63 67.5t35.5 91.5q7 37 -1.5 68.5t-27.5 53.5t-43 45.5t-48 44.5t-42 51t-25 64t2 83q9 47 35.5 90t59 77.5t65.5 69.5t60.5 81.5t37.5 97.5q26 133 -64 210q-77 66 -194 57q-131 -10 -222 -108q-75 -81 -99 -205l-207 -1064 q-3 -14 -8 -18.5t-17 -4.5t-15.5 5t-0.5 18z" />
<glyph unicode="&#xe0;" d="M819 0h-8h-2q-6 3 -6 4l-2 2q0 9 2 17l16 83q-20 -17 -37 -28l-41 -25q-10 -7 -41 -20l-20 -10q-10 -3 -23 -9q-42 -13 -82 -18q-2 0 -4.5 -1t-3.5 -1q-5 0 -15 -1t-15 -1q-36 0 -52 2q-75 6 -125 35l-12 8q-140 91 -119 325q2 32 13 87l24 126q6 39 27 107l14 39 q47 117 124 192t175 103q12 4 17 4l30 6q20 4 33 4q3 0 8.5 1t7.5 1h35h8q4 0 11.5 -1t11.5 -1q43 -10 55 -14q7 0 15 -4q4 0 6 -2q25 -9 47 -25q1 0 3 -1t3 -1q33 -23 55 -45q4 -3 7.5 -6.5t8 -8.5t7.5 -8l18 86q1 13 7 18t18 5h6q2 0 3.5 -1t2.5 -1l2 -2q2 -2 2 -6v-8v-5 l-190 -978q-6 -21 -15 -23h-4h-6zM311 598l-32 -172q-16 -86 -11 -143q3 -50 17 -88q0 -5 4 -13q14 -37 45 -76l18 -16q26 -21 39 -29l21 -10q8 -4 12 -4q8 -4 12 -4l25 -6q24 -6 51 -6h29q27 0 39 2l16 4q41 7 98 29l21 10q3 1 8 4.5t6 3.5q9 3 14 8q14 7 15 8l18 13l15 10 q15 10 36 31l140 716l-25 31q-21 21 -45 39l-25 14q-40 23 -84 31q-16 4 -22 4q-1 0 -3 1t-3 1q-5 0 -15.5 1t-15.5 1h-29q-4 0 -13 -1t-13 -1l-29 -4q-45 -9 -92 -33l-12 -6q-6 -4 -25 -14q-16 -10 -47 -37q-57 -51 -98 -125q-43 -82 -60 -174zM864 1188l-276 221 q-16 14 -20.5 18.5t-4.5 11t8 15.5q10 14 18.5 12.5t28.5 -20.5l267 -234q13 -11 15 -16.5t-3 -13.5q-11 -13 -33 6z" />
<glyph unicode="&#xe1;" d="M819 0q-12 0 -15.5 5t-0.5 18l16 83q-138 -108 -282 -114q-175 -6 -256 114.5t-39 342.5l24 126q42 222 170.5 342.5t300.5 114.5q141 -5 238 -117l18 86q3 14 8 18.5t17 4.5t15.5 -5t0.5 -18l-190 -978q-3 -14 -8 -18.5t-17 -4.5zM311 598l-32 -172q-37 -191 39 -296 t223 -99q156 6 286 123l140 716q-83 117 -238 123q-145 6 -263 -99t-155 -296zM629 1188q-22 -19 -33 -6q-5 8 -3 13.5t15 16.5l266 234q20 19 29 20.5t19 -12.5q8 -9 8 -15.5t-4.5 -11t-20.5 -18.5z" />
<glyph unicode="&#xe2;" d="M819 0q-12 0 -15.5 5t-0.5 18l16 83q-138 -108 -282 -114q-175 -6 -256 114.5t-39 342.5l24 126q42 222 170.5 342.5t300.5 114.5q141 -5 238 -117l18 86q3 14 8 18.5t17 4.5t15.5 -5t0.5 -18l-190 -978q-3 -14 -8 -18.5t-17 -4.5zM311 598l-32 -172q-37 -191 39 -296 t223 -99q156 6 286 123l140 716q-83 117 -238 123q-145 6 -263 -99t-155 -296zM766 1389l-221 -193q-21 -18 -27.5 -19.5t-19.5 11.5q-9 15 -6.5 21t24.5 24l254 205q14 11 25 0l176 -205q14 -18 14.5 -24.5t-16.5 -20.5q-15 -13 -22 -11.5t-21 19.5l-144 193q-6 10 -16 0z " />
<glyph unicode="&#xe3;" d="M819 0q-12 0 -15.5 5t-0.5 18l16 83q-138 -108 -282 -114q-175 -6 -256 114.5t-39 342.5l24 126q42 222 170.5 342.5t300.5 114.5q141 -5 238 -117l18 86q3 14 8 18.5t17 4.5t15.5 -5t0.5 -18l-190 -978q-3 -14 -8 -18.5t-17 -4.5zM311 598l-32 -172q-37 -191 39 -296 t223 -99q156 6 286 123l140 716q-83 117 -238 123q-145 6 -263 -99t-155 -296zM866 1176q-34 1 -65.5 18t-51.5 37t-47 37t-53 18q-24 1 -45.5 -5.5t-41.5 -23.5t-30.5 -28t-29.5 -33q-14 -19 -31 -8q-15 10 -2 29q90 114 186 110q31 -1 60.5 -18t49 -37t48 -37t59.5 -18 q32 -1 62 15t46 31.5t40 43.5q15 21 33 8q13 -11 0 -29q-87 -110 -187 -110z" />
<glyph unicode="&#xe4;" d="M819 0q-12 0 -15.5 5t-0.5 18l16 83q-138 -108 -282 -114q-175 -6 -256 114.5t-39 342.5l24 126q42 222 170.5 342.5t300.5 114.5q141 -5 238 -117l18 86q3 14 8 18.5t17 4.5t15.5 -5t0.5 -18l-190 -978q-3 -14 -8 -18.5t-17 -4.5zM311 598l-32 -172q-37 -191 39 -296 t223 -99q156 6 286 123l140 716q-83 117 -238 123q-145 6 -263 -99t-155 -296zM825 1225q4 21 21.5 35t38.5 14q20 0 32 -15t7 -34q-5 -20 -21.5 -34.5t-36.5 -14.5q-21 0 -33 14.5t-8 34.5zM559 1225q5 20 22 34.5t37 14.5t31 -14t8 -35q-3 -20 -20 -34.5t-37 -14.5 q-21 0 -33 14.5t-8 34.5z" />
<glyph unicode="&#xe5;" d="M819 0q-12 0 -15.5 5t-0.5 18l16 83q-138 -108 -282 -114q-175 -6 -256 114.5t-39 342.5l24 126q42 222 170.5 342.5t300.5 114.5q141 -5 238 -117l18 86q3 14 8 18.5t17 4.5t15.5 -5t0.5 -18l-190 -978q-3 -14 -8 -18.5t-17 -4.5zM311 598l-32 -172q-37 -191 39 -296 t223 -99q156 6 286 123l140 716q-83 117 -238 123q-145 6 -263 -99t-155 -296zM647 1327q-9 -47 18 -81t74 -34t88 34t50 81t-18.5 81t-74.5 34t-87.5 -34t-49.5 -81zM610 1327q12 63 65 107.5t116 44.5t98.5 -44.5t23.5 -107.5t-65.5 -107t-116.5 -44t-98 44t-23 107z" />
<glyph unicode="&#xe6;" horiz-adv-x="1589" d="M1143 -8q-109 0 -182.5 47t-104.5 137l-29 -153q-3 -14 -7.5 -18.5t-16.5 -4.5t-16 5t-1 18l19 94q-62 -55 -149 -90t-171 -35q-150 0 -233.5 96t-54.5 240q28 142 148 238t269 96q84 0 157.5 -35.5t113.5 -89.5l30 155q14 73 0 131.5t-49.5 95t-83.5 55.5t-104 19 q-66 0 -135 -27.5t-125 -74.5q-20 -17 -31 -4q-11 14 8 31q57 53 134 83.5t155 30.5q109 0 186.5 -60t90.5 -165q132 225 362 225q142 0 209 -83.5t37 -233.5q-20 -110 -81.5 -165.5t-193.5 -55.5h-376l-39 -209q6 -124 78 -189t190 -65q150 0 274 121q20 20 31 6 q12 -15 -4 -31q-138 -135 -305 -135zM238 328q-25 -126 47 -211.5t209 -85.5q79 0 163 31.5t154 91.5l68 346q-46 60 -118 91.5t-151 31.5q-137 0 -242.5 -85.5t-129.5 -209.5zM1317 993q-110 0 -203.5 -66.5t-148.5 -189.5l-39 -207h374q61 0 103.5 13.5t67.5 40t38 56 t21 71.5q27 137 -33.5 209.5t-179.5 72.5z" />
<glyph unicode="&#xe7;" horiz-adv-x="954" d="M330 -225q-14 5 -6 20l106 209q-123 32 -174 145.5t-14 299.5l24 126q43 221 168 339t299 118q87 0 157.5 -37t113.5 -98q10 -17 -7 -31q-16 -13 -30 6q-40 56 -102.5 88.5t-139.5 32.5q-148 0 -262.5 -102.5t-151.5 -292.5l-32 -172q-37 -191 36.5 -293t221.5 -102 q156 0 290 121q20 20 31 6q12 -15 -4 -31q-149 -135 -322 -135q-35 0 -65 6l-70 -139q55 33 109 33.5t91 -24t56 -67.5t9 -92q-12 -60 -50.5 -107t-87 -70t-101.5 -21.5t-93 32.5q-12 9 -2 25q9 13 15 15t13 -5q32 -25 75 -26.5t81.5 17.5t69 56t39.5 82q7 38 -6 71 t-41.5 51.5t-63.5 24t-77 -12t-77 -56.5q-12 -15 -26 -10z" />
<glyph unicode="&#xe8;" horiz-adv-x="978" d="M242 449l24 126q41 213 160 335t287 122q142 0 208.5 -83.5t36.5 -233.5q-20 -110 -81 -165.5t-193 -55.5h-373q-13 0 -17 -3.5t-7 -17.5l-8 -47q-34 -191 38.5 -293t219.5 -102q150 0 274 121q19 18 31 6q14 -14 -4 -31q-138 -135 -306 -135q-175 0 -254 118t-36 339z M920 711q27 137 -33.5 209.5t-179.5 72.5q-140 0 -249.5 -104.5t-146.5 -290.5l-8 -47q-2 -12 1 -16.5t15 -4.5h371q61 0 103.5 13.5t67.5 40t38 56t21 71.5zM831 1188l-190 221q-14 18 -14.5 24.5t14.5 20.5q18 13 24.5 11.5t18.5 -19.5l176 -234q9 -10 9 -16t-9 -14 q-9 -7 -14.5 -6t-14.5 12z" />
<glyph unicode="&#xe9;" horiz-adv-x="978" d="M242 449l24 126q41 213 160 335t287 122q142 0 208.5 -83.5t36.5 -233.5q-20 -110 -81 -165.5t-193 -55.5h-373q-13 0 -17 -3.5t-7 -17.5l-8 -47q-34 -191 38.5 -293t219.5 -102q150 0 274 121q19 18 31 6q14 -14 -4 -31q-138 -135 -306 -135q-175 0 -254 118t-36 339z M920 711q27 137 -33.5 209.5t-179.5 72.5q-140 0 -249.5 -104.5t-146.5 -290.5l-8 -47q-2 -12 1 -16.5t15 -4.5h371q61 0 103.5 13.5t67.5 40t38 56t21 71.5zM653 1188q-22 -19 -32 -6q-5 8 -3 13.5t15 16.5l266 234q20 19 28.5 20.5t18.5 -12.5q11 -15 8.5 -21t-24.5 -24z " />
<glyph unicode="&#xea;" horiz-adv-x="978" d="M242 449l24 126q41 213 160 335t287 122q142 0 208.5 -83.5t36.5 -233.5q-20 -110 -81 -165.5t-193 -55.5h-373q-13 0 -17 -3.5t-7 -17.5l-8 -47q-34 -191 38.5 -293t219.5 -102q150 0 274 121q19 18 31 6q14 -14 -4 -31q-138 -135 -306 -135q-175 0 -254 118t-36 339z M920 711q27 137 -33.5 209.5t-179.5 72.5q-140 0 -249.5 -104.5t-146.5 -290.5l-8 -47q-2 -12 1 -16.5t15 -4.5h371q61 0 103.5 13.5t67.5 40t38 56t21 71.5zM750 1386l-222 -192q-21 -18 -27.5 -19.5t-19.5 11.5q-9 15 -6 20.5t25 24.5l254 205q13 11 24 0l176 -205 q14 -18 14.5 -24.5t-16.5 -20.5q-15 -13 -22 -11.5t-21 19.5l-143 192q-6 10 -16 0z" />
<glyph unicode="&#xeb;" horiz-adv-x="978" d="M242 449l24 126q41 213 160 335t287 122q142 0 208.5 -83.5t36.5 -233.5q-20 -110 -81 -165.5t-193 -55.5h-373q-13 0 -17 -3.5t-7 -17.5l-8 -47q-34 -191 38.5 -293t219.5 -102q150 0 274 121q19 18 31 6q14 -14 -4 -31q-138 -135 -306 -135q-175 0 -254 118t-36 339z M920 711q27 137 -33.5 209.5t-179.5 72.5q-140 0 -249.5 -104.5t-146.5 -290.5l-8 -47q-2 -12 1 -16.5t15 -4.5h371q61 0 103.5 13.5t67.5 40t38 56t21 71.5zM809 1225q4 21 21 35t38 14q20 0 32 -15t7 -34q-5 -21 -21 -35t-36 -14q-21 0 -33 14.5t-8 34.5zM543 1225 q5 20 22 34.5t37 14.5t31 -14t8 -35q-3 -20 -20 -34.5t-37 -14.5q-21 0 -33 14.5t-8 34.5z" />
<glyph unicode="&#xec;" horiz-adv-x="434" d="M217 0q-12 0 -15.5 5t-0.5 18l190 978q3 14 8 18.5t17 4.5t15.5 -5t0.5 -18l-190 -978q-3 -14 -8 -18.5t-17 -4.5zM561 1188l-190 221q-14 18 -14.5 24.5t14.5 20.5q18 13 24.5 11.5t18.5 -19.5l176 -234q9 -10 9 -16t-9 -14q-9 -7 -14.5 -6t-14.5 12z" />
<glyph unicode="&#xed;" horiz-adv-x="434" d="M217 0q-12 0 -15.5 5t-0.5 18l190 978q3 14 8 18.5t17 4.5t15.5 -5t0.5 -18l-190 -978q-3 -14 -8 -18.5t-17 -4.5zM342 1188q-22 -19 -33 -6q-9 11 13 30l266 234q20 19 28.5 20.5t18.5 -12.5q8 -9 8 -15.5t-4.5 -11t-20.5 -18.5z" />
<glyph unicode="&#xee;" horiz-adv-x="434" d="M217 0q-12 0 -15.5 5t-0.5 18l190 978q3 14 8 18.5t17 4.5t15.5 -5t0.5 -18l-190 -978q-3 -14 -8 -18.5t-17 -4.5zM479 1386l-221 -192q-21 -18 -27.5 -19.5t-19.5 11.5q-9 15 -6.5 21t24.5 24l254 205q14 11 25 0l176 -205q14 -18 14.5 -24.5t-16.5 -20.5 q-15 -13 -22 -11.5t-21 19.5l-143 192q-7 10 -17 0z" />
<glyph unicode="&#xef;" horiz-adv-x="434" d="M217 0q-12 0 -15.5 5t-0.5 18l190 978q3 14 8 18.5t17 4.5t15.5 -5t0.5 -18l-190 -978q-3 -14 -8 -18.5t-17 -4.5zM539 1225q4 21 21 35t38 14q20 0 32 -15t7 -34q-5 -21 -21 -35t-36 -14q-21 0 -33 14.5t-8 34.5zM272 1225q4 20 22 34.5t38 14.5t31 -14t8 -35 q-3 -20 -20.5 -34.5t-37.5 -14.5q-21 0 -33 14.5t-8 34.5z" />
<glyph unicode="&#xf0;" horiz-adv-x="1069" d="M653 1126q-6 8 -4.5 15.5t13.5 15.5l241 164q-111 80 -268 80q-14 0 -18 4t-1 16t8.5 16.5t18.5 4.5q182 0 299 -94l102 69q14 8 19 7t12 -11q12 -18 -8 -31l-92 -63q161 -168 96 -514l-70 -356q-43 -221 -168.5 -339t-300.5 -118t-255 118t-37 339l8 38 q42 220 168 338.5t301 118.5q123 0 198.5 -63.5t90.5 -180.5l20 111q64 328 -92 481l-250 -170q-22 -14 -31 4zM541 33q150 0 262 102t149 293l17 80q37 190 -36.5 292.5t-223.5 102.5t-262.5 -102.5t-149.5 -292.5l-16 -80q-37 -190 36.5 -292.5t223.5 -102.5z" />
<glyph unicode="&#xf1;" horiz-adv-x="1032" d="M946 676q28 153 -36.5 235t-207.5 82q-70 0 -149.5 -30.5t-144.5 -81.5l-166 -858q-3 -14 -8 -18.5t-17 -4.5t-15.5 5t-0.5 18l190 978q3 14 8 18.5t17 4.5t15.5 -5t0.5 -18l-16 -81q66 49 147 80.5t158 31.5q151 0 224.5 -91.5t41.5 -258.5l-127 -659q-3 -14 -7.5 -18.5 t-16.5 -4.5t-16 5t-1 18zM858 1176q-33 1 -63.5 16.5t-50 34.5t-46 35.5t-51.5 17.5q-19 1 -37.5 -4.5t-30 -11.5t-29.5 -22.5t-23 -22t-23 -25.5q-12 -19 -29 -8q-15 10 -2 28q89 111 180 107q30 -1 58 -17.5t47 -36t47 -36t57 -17.5q31 -1 60 14t45.5 31t38.5 41 q9 12 15 14t17 -5q11 -11 0 -29q-84 -104 -180 -104z" />
<glyph unicode="&#xf2;" horiz-adv-x="1069" d="M1024 575l-25 -126q-43 -221 -168 -339t-299 -118q-175 0 -254 118t-36 339l24 126q43 221 168 339t299 118q175 0 254.5 -118t36.5 -339zM539 31q151 0 264.5 102.5t150.5 292.5l33 172q37 190 -36.5 292.5t-223.5 102.5q-151 0 -265 -102.5t-151 -292.5l-32 -172 q-37 -190 36.5 -292.5t223.5 -102.5zM877 1188l-191 221q-14 18 -14.5 24.5t14.5 20.5q18 13 24.5 11.5t18.5 -19.5l176 -234q9 -10 9 -16t-9 -14q-9 -7 -14 -6t-14 12z" />
<glyph unicode="&#xf3;" horiz-adv-x="1069" d="M1024 575l-25 -126q-43 -221 -168 -339t-299 -118q-175 0 -254 118t-36 339l24 126q43 221 168 339t299 118q175 0 254.5 -118t36.5 -339zM539 31q151 0 264.5 102.5t150.5 292.5l33 172q37 190 -36.5 292.5t-223.5 102.5q-151 0 -265 -102.5t-151 -292.5l-32 -172 q-37 -190 36.5 -292.5t223.5 -102.5zM698 1188q-22 -19 -32 -6q-5 8 -3 13.5t15 16.5l266 234q20 19 28.5 20.5t18.5 -12.5q11 -15 8.5 -21t-24.5 -24z" />
<glyph unicode="&#xf4;" horiz-adv-x="1069" d="M1024 575l-25 -126q-43 -221 -168 -339t-299 -118q-175 0 -254 118t-36 339l24 126q43 221 168 339t299 118q175 0 254.5 -118t36.5 -339zM539 31q151 0 264.5 102.5t150.5 292.5l33 172q37 190 -36.5 292.5t-223.5 102.5q-151 0 -265 -102.5t-151 -292.5l-32 -172 q-37 -190 36.5 -292.5t223.5 -102.5zM795 1386l-222 -192q-21 -18 -27.5 -19.5t-19.5 11.5q-9 15 -6 20.5t25 24.5l254 205q13 11 24 0l176 -205q14 -18 14.5 -24.5t-16.5 -20.5q-15 -13 -22 -11.5t-21 19.5l-143 192q-6 10 -16 0z" />
<glyph unicode="&#xf5;" horiz-adv-x="1069" d="M1024 575l-25 -126q-43 -221 -168 -339t-299 -118q-175 0 -254 118t-36 339l24 126q43 221 168 339t299 118q175 0 254.5 -118t36.5 -339zM539 31q151 0 264.5 102.5t150.5 292.5l33 172q37 190 -36.5 292.5t-223.5 102.5q-151 0 -265 -102.5t-151 -292.5l-32 -172 q-37 -190 36.5 -292.5t223.5 -102.5zM879 1174q-33 1 -63.5 16.5t-50 34.5t-46 35.5t-51.5 17.5q-30 2 -60.5 -14t-44 -29.5t-39.5 -42.5q-12 -19 -28 -8q-15 10 -2 28q89 111 180 107q30 -1 58 -17.5t47 -36t47 -36t57 -17.5q31 -1 60 14t45 30.5t38 41.5q9 12 15.5 14 t17.5 -5q11 -11 0 -29q-84 -104 -180 -104z" />
<glyph unicode="&#xf6;" horiz-adv-x="1069" d="M1024 575l-25 -126q-43 -221 -168 -339t-299 -118q-175 0 -254 118t-36 339l24 126q43 221 168 339t299 118q175 0 254.5 -118t36.5 -339zM539 31q151 0 264.5 102.5t150.5 292.5l33 172q37 190 -36.5 292.5t-223.5 102.5q-151 0 -265 -102.5t-151 -292.5l-32 -172 q-37 -190 36.5 -292.5t223.5 -102.5zM854 1225q4 21 21 35t38 14q20 0 32 -15t7 -34q-5 -21 -21 -35t-36 -14q-21 0 -33 14.5t-8 34.5zM588 1225q5 20 22 34.5t37 14.5t31 -14t8 -35q-3 -20 -20 -34.5t-37 -14.5q-21 0 -33 14.5t-8 34.5z" />
<glyph unicode="&#xf7;" horiz-adv-x="901" d="M485 446q5 22 22 37t38 15q22 0 34.5 -15t8.5 -37t-22 -36.5t-40 -14.5t-33.5 14.5t-7.5 36.5zM604 1065q4 22 22 36.5t40 14.5t33.5 -14.5t7.5 -36.5t-22 -36.5t-40 -14.5t-33.5 14.5t-7.5 36.5zM248 756q3 14 8 18t18 4h652q14 0 17.5 -4.5t0.5 -17.5q-3 -14 -8 -18.5 t-18 -4.5h-652q-14 0 -17.5 5t-0.5 18z" />
<glyph unicode="&#xf8;" horiz-adv-x="1069" d="M1108 1004l-107 -115q62 -121 23 -314l-25 -126q-43 -221 -168 -339t-299 -118t-251 112l-82 -90q-14 -16 -20.5 -19t-20.5 -3q-25 0 0 28l104 113q-60 117 -20 316l24 126q43 221 168 339t299 118q172 0 252 -112l82 90q14 16 20.5 19t20.5 3q25 0 0 -28zM539 31 q151 0 264.5 102.5t150.5 292.5l33 172q30 162 -16 256l-660 -717q69 -106 228 -106zM279 426q-30 -163 14 -258l659 717q-70 108 -225 108q-151 0 -265 -102.5t-151 -292.5z" />
<glyph unicode="&#xf9;" horiz-adv-x="1015" d="M412 1001l-127 -653q-29 -153 34.5 -235t206.5 -82q64 0 137.5 26.5t139.5 71.5l170 872q3 14 7.5 18.5t16.5 4.5t16 -5t1 -18l-191 -978q-3 -14 -7.5 -18.5t-16.5 -4.5t-16 5t-1 18l13 65q-64 -42 -140.5 -69t-146.5 -27q-151 0 -224.5 91.5t-41.5 258.5l129 659 q3 14 7.5 18.5t16.5 4.5t16 -5t1 -18zM840 1188l-191 221q-14 18 -14.5 24.5t14.5 20.5q18 13 24.5 11.5t18.5 -19.5l176 -234q9 -10 9 -16t-9 -14q-9 -7 -14 -6t-14 12z" />
<glyph unicode="&#xfa;" horiz-adv-x="1015" d="M412 1001l-127 -653q-29 -153 34.5 -235t206.5 -82q64 0 137.5 26.5t139.5 71.5l170 872q3 14 7.5 18.5t16.5 4.5t16 -5t1 -18l-191 -978q-3 -14 -7.5 -18.5t-16.5 -4.5t-16 5t-1 18l13 65q-64 -42 -140.5 -69t-146.5 -27q-151 0 -224.5 91.5t-41.5 258.5l129 659 q3 14 7.5 18.5t16.5 4.5t16 -5t1 -18zM621 1188q-22 -19 -33 -6q-5 8 -3 13.5t15 16.5l266 234q20 19 28.5 20.5t18.5 -12.5q11 -15 8.5 -21t-24.5 -24z" />
<glyph unicode="&#xfb;" horiz-adv-x="1015" d="M412 1001l-127 -653q-29 -153 34.5 -235t206.5 -82q64 0 137.5 26.5t139.5 71.5l170 872q3 14 7.5 18.5t16.5 4.5t16 -5t1 -18l-191 -978q-3 -14 -7.5 -18.5t-16.5 -4.5t-16 5t-1 18l13 65q-64 -42 -140.5 -69t-146.5 -27q-151 0 -224.5 91.5t-41.5 258.5l129 659 q3 14 7.5 18.5t16.5 4.5t16 -5t1 -18zM758 1386l-221 -192q-21 -18 -28 -19.5t-20 11.5q-9 15 -6 20.5t25 24.5l254 205q13 11 24 0l177 -205q14 -18 14.5 -24.5t-16.5 -20.5q-15 -13 -22 -11.5t-21 19.5l-144 192q-6 10 -16 0z" />
<glyph unicode="&#xfc;" horiz-adv-x="1015" d="M412 1001l-127 -653q-29 -153 34.5 -235t206.5 -82q64 0 137.5 26.5t139.5 71.5l170 872q3 14 7.5 18.5t16.5 4.5t16 -5t1 -18l-191 -978q-3 -14 -7.5 -18.5t-16.5 -4.5t-16 5t-1 18l13 65q-64 -42 -140.5 -69t-146.5 -27q-151 0 -224.5 91.5t-41.5 258.5l129 659 q3 14 7.5 18.5t16.5 4.5t16 -5t1 -18zM817 1225q4 21 21.5 35t38.5 14q20 0 31.5 -15t6.5 -34q-5 -21 -21 -35t-36 -14q-21 0 -33 14.5t-8 34.5zM551 1225q5 20 22 34.5t37 14.5t31 -14t8 -35q-3 -20 -20 -34.5t-37 -14.5q-21 0 -33 14.5t-8 34.5z" />
<glyph unicode="&#xfd;" horiz-adv-x="950" d="M199 -473l233 424q13 25 14.5 31.5t-0.5 31.5l-159 981q-5 29 20 29q11 0 15.5 -4.5t7.5 -18.5l149 -935q2 -7 8 -6.5t9 6.5l514 935q7 14 13 18.5t17 4.5q26 0 9 -29l-811 -1474q-9 -15 -14.5 -19t-16.5 -4q-25 0 -8 29zM598 1188q-22 -19 -33 -6q-9 11 13 30l266 234 q20 19 28.5 20.5t18.5 -12.5q8 -9 8 -15.5t-4.5 -11t-20.5 -18.5z" />
<glyph unicode="&#xfe;" d="M145 -369q-12 0 -15.5 5t-0.5 18l340 1757q5 23 27 23q12 0 14.5 -5t-0.5 -18l-96 -496q142 112 282 117q175 6 256.5 -114.5t38.5 -342.5l-24 -126q-43 -222 -171 -342.5t-300 -114.5q-143 6 -238 114l-88 -452q-3 -14 -8 -18.5t-17 -4.5zM954 598q37 192 -38.5 296.5 t-223.5 98.5q-156 -6 -286 -123l-140 -716q83 -117 238 -123q147 -6 264 98.5t154 296.5z" />
<glyph unicode="&#xff;" horiz-adv-x="950" d="M199 -473l233 424q13 25 14.5 31.5t-0.5 31.5l-159 981q-5 29 20 29q11 0 15.5 -4.5t7.5 -18.5l149 -935q2 -7 8 -6.5t9 6.5l514 935q7 14 13 18.5t17 4.5q26 0 9 -29l-811 -1474q-9 -15 -14.5 -19t-16.5 -4q-25 0 -8 29zM795 1225q4 21 21 35t38 14q20 0 32 -15t7 -34 q-5 -21 -21 -35t-36 -14q-21 0 -33 14.5t-8 34.5zM528 1225q4 20 22 34.5t38 14.5t31 -14t8 -35q-3 -20 -20.5 -34.5t-37.5 -14.5q-21 0 -33 14.5t-8 34.5z" />
<glyph unicode="&#x152;" horiz-adv-x="2080" d="M1976 756q-3 -12 -8 -16.5t-18 -4.5h-539q-14 0 -18 -3.5t-7 -16.5l-126 -654q-3 -13 -0.5 -16.5t16.5 -3.5h641q13 0 17 -4.5t1 -16.5q-3 -13 -7 -16.5t-17 -3.5h-684q-14 0 -18 5t-1 18l60 309q-96 -173 -244.5 -256.5t-323.5 -83.5q-116 0 -205 35.5t-152 112.5 t-80 197.5t13 291.5l35 176q32 165 99 290.5t157.5 199.5t194 110.5t219.5 36.5q175 0 291.5 -84t144.5 -256l60 309q3 14 9 18.5t19 4.5h684q14 0 18 -4.5t1 -16.5t-8.5 -16t-18.5 -4h-641q-13 0 -17 -3.5t-7 -17.5l-113 -575q-3 -13 0 -17t16 -4h539q14 0 17.5 -4t0.5 -16 zM1364 831q24 150 7 258t-74 177.5t-138 102t-186 32.5q-108 0 -204 -35t-178.5 -105.5t-143.5 -187.5t-91 -272l-32 -168q-29 -159 -15 -272.5t70.5 -186.5t139 -107t190.5 -34t204 35t178.5 105.5t143.5 187.5t92 272z" />
<glyph unicode="&#x153;" horiz-adv-x="1695" d="M1249 -8q-136 0 -216 72.5t-87 209.5q-64 -138 -171.5 -210t-242.5 -72q-175 0 -254 118t-36 339l24 126q43 221 168 339t299 118q135 0 215 -72t90 -210q61 135 162 208.5t230 73.5q142 0 208.5 -83.5t36.5 -233.5q-20 -110 -81 -165.5t-193 -55.5h-373q-13 0 -17 -3.5 t-7 -17.5l-9 -47q-37 -191 36.5 -293t221.5 -102q151 0 275 121q18 18 31 6q13 -13 -5 -31q-138 -135 -305 -135zM539 31q151 0 264.5 102.5t150.5 292.5l33 172q37 190 -36.5 292.5t-223.5 102.5q-151 0 -265 -102.5t-151 -292.5l-32 -172q-37 -190 36.5 -292.5 t223.5 -102.5zM1036 530h371q61 0 103.5 13.5t67 40.5t37.5 56t21 71q27 137 -33.5 209.5t-179.5 72.5q-140 0 -249 -104t-146 -291l-8 -47q-2 -13 0.5 -17t15.5 -4z" />
<glyph unicode="&#x178;" horiz-adv-x="1110" d="M715 766l504 645q13 16 19.5 19.5t21.5 3.5q10 0 13 -5t-5 -18l-555 -706l-131 -682q-3 -14 -8.5 -18.5t-18.5 -4.5q-12 0 -16.5 5t-1.5 18l131 682l-281 706q-4 12 2.5 17.5t16.5 5.5t14 -1t8 -5.5t8 -16.5l254 -645q3 -8 11 -8t14 8zM954 1634q4 21 21.5 35t38.5 14 q20 0 32 -15t7 -34q-5 -20 -21.5 -34.5t-36.5 -14.5q-21 0 -33 14.5t-8 34.5zM688 1634q4 20 22 34.5t38 14.5t30.5 -14t7.5 -35q-3 -20 -20 -34.5t-37 -14.5q-21 0 -33 14.5t-8 34.5z" />
<glyph unicode="&#x2c6;" horiz-adv-x="630" d="M649 1759l-221 -192q-21 -18 -27.5 -19.5t-19.5 11.5q-9 15 -6.5 21t24.5 24l254 204q14 11 25 0l176 -204q14 -18 14.5 -24.5t-16.5 -20.5q-15 -13 -22 -11.5t-21 19.5l-143 192q-7 10 -17 0z" />
<glyph unicode="&#x2dc;" horiz-adv-x="684" d="M764 1559q-34 1 -65.5 18t-51.5 37t-47 37t-53 18q-31 2 -62 -14t-46 -31.5t-40 -44.5q-14 -19 -30 -8q-15 10 -2 28q91 115 186 111q31 -1 60.5 -18.5t49 -37t48 -37t59.5 -18.5t61.5 15t46.5 32t40 44q9 12 15 13.5t17 -5.5q13 -11 0 -29q-87 -110 -186 -110z" />
<glyph unicode="&#x2000;" horiz-adv-x="944" />
<glyph unicode="&#x2001;" horiz-adv-x="1888" />
<glyph unicode="&#x2002;" horiz-adv-x="944" />
<glyph unicode="&#x2003;" horiz-adv-x="1888" />
<glyph unicode="&#x2004;" horiz-adv-x="629" />
<glyph unicode="&#x2005;" horiz-adv-x="472" />
<glyph unicode="&#x2006;" horiz-adv-x="314" />
<glyph unicode="&#x2007;" horiz-adv-x="314" />
<glyph unicode="&#x2008;" horiz-adv-x="236" />
<glyph unicode="&#x2009;" horiz-adv-x="377" />
<glyph unicode="&#x200a;" horiz-adv-x="104" />
<glyph unicode="&#x2010;" horiz-adv-x="700" d="M168 565q3 14 6.5 18.5t13.5 4.5h463q20 0 15 -23q-3 -14 -6.5 -18t-12.5 -4h-465q-11 0 -14 4.5t0 17.5z" />
<glyph unicode="&#x2011;" horiz-adv-x="700" d="M168 565q3 14 6.5 18.5t13.5 4.5h463q20 0 15 -23q-3 -14 -6.5 -18t-12.5 -4h-465q-11 0 -14 4.5t0 17.5z" />
<glyph unicode="&#x2012;" horiz-adv-x="700" d="M168 565q3 14 6.5 18.5t13.5 4.5h463q20 0 15 -23q-3 -14 -6.5 -18t-12.5 -4h-465q-11 0 -14 4.5t0 17.5z" />
<glyph unicode="&#x2013;" horiz-adv-x="1165" d="M211 563q3 14 8.5 18.5t18.5 4.5h915q14 0 17.5 -5t0.5 -18q-3 -14 -8 -18t-18 -4h-916q-14 0 -17.5 4.5t-0.5 17.5z" />
<glyph unicode="&#x2014;" horiz-adv-x="1431" d="M211 563q3 14 8.5 18.5t18.5 4.5h1181q14 0 18 -5t1 -18t-8 -17.5t-19 -4.5h-1182q-14 0 -17.5 4.5t-0.5 17.5z" />
<glyph unicode="&#x2018;" horiz-adv-x="389" d="M496 1255q-4 -25 -24.5 -39t-41.5 -12q-57 5 -42 81q17 79 87 163q12 14 25 27q16 16 24 8q7 -7 -4 -23q-21 -27 -32 -42.5t-27.5 -43.5t-14.5 -45.5t21 -23.5q34 -11 29 -50z" />
<glyph unicode="&#x2019;" horiz-adv-x="389" d="M406 1391q4 24 25 38.5t40 12.5q58 -6 41 -84q-17 -81 -90 -164q-10 -12 -21 -23q-16 -16 -24 -8q-7 7 4 23q21 27 32 42.5t27.5 43.5t14.5 45.5t-21 23.5q-33 11 -28 50z" />
<glyph unicode="&#x201a;" horiz-adv-x="389" d="M145 43q4 24 24.5 38.5t39.5 12.5q58 -6 41 -84q-18 -81 -90 -164q-11 -12 -21 -22q-16 -16 -24 -8q-7 7 4 22q20 26 31.5 42.5t27.5 44t14.5 45.5t-20.5 24q-32 12 -27 49z" />
<glyph unicode="&#x201c;" horiz-adv-x="610" d="M717 1255q-4 -25 -24.5 -39t-41.5 -12q-57 5 -42 81q17 79 87 163q12 14 25 27q16 16 24 8q7 -7 -4 -23q-21 -27 -32 -42.5t-27.5 -43.5t-14.5 -45.5t21 -23.5q34 -11 29 -50zM496 1255q-4 -25 -24.5 -39t-41.5 -12q-57 5 -42 81q17 79 87 163q12 14 25 27q16 16 24 8 q7 -7 -4 -23q-21 -27 -32 -42.5t-27.5 -43.5t-14.5 -45.5t21 -23.5q34 -11 29 -50z" />
<glyph unicode="&#x201d;" horiz-adv-x="610" d="M406 1391q6 25 26 39t39 12q58 -6 41 -84q-17 -81 -90 -164q-10 -12 -21 -23q-16 -16 -24 -8q-8 6 4 23q21 27 32 42.5t27.5 43.5t14.5 45.5t-21 23.5q-33 11 -28 50zM627 1391q6 25 26 39t39 12q58 -6 41 -84q-17 -81 -89 -164q-10 -12 -21 -23q-17 -17 -25 -8 q-8 6 4 23q21 27 32 42.5t27.5 43.5t14.5 45.5t-21 23.5q-33 11 -28 50z" />
<glyph unicode="&#x201e;" horiz-adv-x="610" d="M145 43q4 24 24.5 38.5t39.5 12.5q58 -6 41 -84q-18 -81 -90 -164q-11 -12 -21 -22q-16 -16 -24 -8q-7 7 4 22q20 26 31.5 42.5t27.5 44t14.5 45.5t-20.5 24q-32 12 -27 49zM367 43q4 24 24 38.5t39 12.5q58 -6 41 -84q-18 -81 -90 -164q-11 -12 -21 -22q-16 -16 -24 -8 q-7 7 4 22q20 26 31.5 42.5t27.5 44t14.5 45.5t-20.5 24q-31 12 -26 49z" />
<glyph unicode="&#x2022;" horiz-adv-x="518" d="M279 752q9 52 52.5 88.5t96.5 36.5q52 0 80.5 -36t19.5 -89q-11 -53 -54 -89t-95 -36q-53 0 -82 36.5t-18 88.5z" />
<glyph unicode="&#x2026;" horiz-adv-x="1130" d="M145 43q5 22 21.5 36.5t38.5 14.5t34.5 -14.5t8.5 -36.5t-22 -36.5t-40 -14.5t-33.5 14.5t-7.5 36.5zM522 43q5 22 21.5 36.5t38.5 14.5t34.5 -14.5t8.5 -36.5t-22 -36.5t-40 -14.5t-33.5 14.5t-7.5 36.5zM899 43q5 22 21.5 36.5t37.5 14.5q22 0 34.5 -14.5t8.5 -36.5 q-5 -22 -22 -36.5t-39 -14.5t-33.5 14.5t-7.5 36.5z" />
<glyph unicode="&#x202f;" horiz-adv-x="377" />
<glyph unicode="&#x2039;" horiz-adv-x="612" d="M258 489q-19 22 8 46l375 305q13 10 22.5 5.5t6.5 -18.5q-3 -13 -7 -19t-22 -20l-326 -264q-14 -11 -4 -24l224 -264q12 -15 13.5 -21t-1.5 -18q-3 -14 -13.5 -18.5t-19.5 5.5z" />
<glyph unicode="&#x203a;" horiz-adv-x="612" d="M543 489l-375 -305q-12 -10 -22 -5.5t-7 18.5q3 13 7 19t22 20l326 264q14 11 4 24l-224 264q-11 14 -13 20.5t1 18.5q3 14 13.5 18.5t19.5 -5.5l256 -305q19 -22 -8 -46z" />
<glyph unicode="&#x205f;" horiz-adv-x="472" />
<glyph unicode="&#x20ac;" horiz-adv-x="1302" d="M379 840q13 0 16 3t8 17q32 126 85 226t118 166.5t143.5 110.5t159 62.5t166.5 16.5q235 -6 342 -182q11 -17 -10 -33q-18 -15 -27 0q-100 168 -313 174q-77 2 -150 -13.5t-146.5 -55.5t-134 -101.5t-109.5 -156.5t-76 -214q-3 -14 -0.5 -17t16.5 -3h430q13 0 17 -4.5 t1 -16.5t-8 -16t-18 -4h-432q-13 0 -17.5 -3.5t-7.5 -17.5l-22 -123q-3 -13 -0.5 -16.5t16.5 -3.5h432q14 0 18 -4.5t1 -16.5t-8.5 -16t-18.5 -4h-430q-14 0 -19 -4t-6 -17q-21 -147 4 -256.5t85.5 -170.5t140.5 -88.5t178 -24.5q214 6 379 174q13 13 26 0q16 -15 -2 -33 q-176 -176 -411 -182q-87 -2 -160 16t-133 61.5t-98.5 110t-54 167t-1.5 226.5q2 14 -0.5 17.5t-15.5 3.5h-109q-14 0 -17.5 4t-0.5 16t8 16.5t18 4.5h109q14 0 18 3.5t7 16.5l22 123q3 14 0 17.5t-16 3.5h-109q-14 0 -17.5 4t-0.5 16t8 16.5t18 4.5h109z" />
<glyph unicode="&#x2122;" horiz-adv-x="1200" d="M983 852q-12 0 -14 12l-72 443q-1 4 -3 5t-4 -0.5t-3 -4.5l-123 -435q-7 -20 -19 -20h-6q-17 0 -12 20l152 545q0 1 1 3q4 14 19 14q12 0 14 -11l82 -503q1 -4 3.5 -5.5t5 -0.5t4.5 4l278 505q7 11 19 11q5 0 7.5 -1.5t3.5 -3.5t1.5 -4t0.5 -5l-1 -3l-62 -545 q-1 -8 -2 -11t-5 -6t-13 -3h-6q-8 0 -10 5t0 15l49 435q0 3 -2 4.5t-4.5 0.5t-4.5 -5l-243 -443q-7 -12 -23 -12h-8zM377 1415q3 19 18 19h336q8 0 10 -4t0 -13q-1 -11 -5 -14.5t-13 -3.5h-131q-12 0 -15.5 -3t-5.5 -12l-100 -516q-3 -16 -20 -16h-2q-10 0 -13.5 3.5 t-1.5 12.5l101 516q1 9 -2 12t-13 3h-133q-9 0 -10.5 3.5t0.5 12.5z" />
<glyph unicode="&#x25fc;" horiz-adv-x="1024" d="M0 1024h1024v-1024h-1024v1024z" />
</font>
</defs>
</svg>
