<?xml version="1.0" standalone="no"?>
<!DOCTYPE svg PUBLIC "-//W3C//DTD SVG 1.1//EN" "http://www.w3.org/Graphics/SVG/1.1/DTD/svg11.dtd" >
<svg xmlns="http://www.w3.org/2000/svg">
<metadata></metadata>
<defs>
<font id="merlolight_italic" horiz-adv-x="1036" >
<font-face units-per-em="2048" ascent="1434" descent="-614" />
<missing-glyph horiz-adv-x="411" />
<glyph horiz-adv-x="0" />
<glyph horiz-adv-x="682" />
<glyph unicode=" "  horiz-adv-x="411" />
<glyph unicode="&#x09;" horiz-adv-x="411" />
<glyph unicode="&#xa0;" horiz-adv-x="411" />
<glyph unicode="!" horiz-adv-x="458" d="M172 59q6 29 29.5 49.5t52.5 20.5t45 -20.5t10 -49.5t-29.5 -48t-52.5 -19t-45 19t-10 48zM291 322q-18 0 -23.5 8.5t-1.5 31.5l191 1031q4 23 15 32t34 9h4q23 0 30.5 -9t2.5 -32l-211 -1031q-4 -23 -13.5 -31.5t-27.5 -8.5z" />
<glyph unicode="&#x22;" horiz-adv-x="587" d="M440 1497h45q14 0 20.5 -10.5t0.5 -28.5l-88 -303q-8 -31 -29 -31q-20 0 -16 31l30 303q1 18 11.5 28.5t25.5 10.5zM684 1497h45q14 0 20.5 -10.5t0.5 -28.5l-88 -303q-8 -31 -29 -31t-17 31l31 303q1 18 11.5 28.5t25.5 10.5z" />
<glyph unicode="#" horiz-adv-x="1599" d="M586 39q-8 -26 -15.5 -32.5t-33.5 -6.5q-24 0 -29.5 6.5t0.5 32.5l156 491h-410q-25 0 -30 6t-1 31t12 31t33 6h420l96 303h-401q-25 0 -30 6t-1 31t12 31t33 6h410l131 414q7 26 16.5 32.5t36.5 6.5q24 0 28 -6.5t-3 -32.5l-131 -414h286l132 414q7 26 16.5 32.5 t36.5 6.5q23 0 27 -6.5t-3 -32.5l-131 -414h389q24 0 29 -6t0 -31t-11.5 -31t-31.5 -6h-397l-97 -303h379q24 0 29 -6t0 -31t-11.5 -31t-31.5 -6h-389l-156 -491q-8 -26 -15.5 -32.5t-33.5 -6.5q-24 0 -29.5 6.5t0.5 32.5l156 491h-287zM862 907l-96 -303h287l96 303h-287z " />
<glyph unicode="$" horiz-adv-x="1107" d="M180 143q-18 20 2 43l11 11q26 26 47 2q127 -133 340 -133q154 0 267 88.5t136 207.5q11 58 -4 107t-50 85.5t-83.5 69.5t-103 62t-108.5 59t-101.5 66t-81.5 77t-47.5 97.5t-0.5 122.5q23 124 129 217.5t275 112.5l20 102q5 25 11.5 31t31.5 6t30 -6t1 -31l-20 -98 q88 0 167 -25t114 -49l36 -25q17 -14 2 -36l-14 -19q-17 -20 -39 -4q-121 84 -279 84q-169 0 -267.5 -77t-121.5 -185q-11 -55 5 -102.5t51 -83.5t83.5 -68.5t103 -62.5t108.5 -60t101.5 -66t81.5 -76.5t48 -95t2 -118.5q-30 -157 -162.5 -262.5t-300.5 -116.5l-20 -100 q-5 -25 -11.5 -31t-31.5 -6t-30 6t-1 31l20 100q-123 5 -210 50.5t-136 98.5z" />
<glyph unicode="%" horiz-adv-x="1181" d="M487 1020q-85 0 -135 62t-33 147q17 88 91 150.5t159 62.5q88 0 138.5 -62.5t33.5 -150.5q-17 -85 -92 -147t-162 -62zM358 39q-15 -27 -24 -33t-35 -6q-20 0 -25 6.5t7 32.5l825 1356q15 26 26.5 32.5t38.5 6.5q19 0 22.5 -6.5t-9.5 -32.5zM379 1229 q-12 -61 23.5 -105.5t97.5 -44.5q61 0 113.5 44t64.5 106q12 61 -23.5 105t-97.5 44q-61 0 -113.5 -43.5t-64.5 -105.5zM885 -8q-85 0 -135 62t-33 147q17 88 91 150.5t159 62.5q88 0 138.5 -62.5t33.5 -150.5q-17 -85 -92 -147t-162 -62zM776 201q-12 -62 23 -106t96 -44 q62 0 115 44.5t65 105.5q11 62 -24.5 105.5t-96.5 43.5q-62 0 -115 -44t-63 -105z" />
<glyph unicode="&#x26;" horiz-adv-x="1122" d="M530 -8q-83 2 -150 27.5t-116 77.5t-65.5 131.5t2.5 187.5q24 126 87.5 215.5t151.5 132.5q-60 39 -82.5 116t-1.5 187q18 94 64.5 167t109.5 117.5t135.5 67.5t149.5 23q169 0 264 -131q10 -19 7.5 -27.5t-19.5 -21.5q-20 -17 -30 -17t-25 19q-81 104 -213 104 q-140 0 -241 -81.5t-130 -225.5q-23 -122 20.5 -191t145.5 -69q24 0 29 -6t0 -31t-11.5 -31t-31.5 -6h-11q-110 -4 -189.5 -88.5t-105.5 -222.5q-32 -162 45 -255t228 -95q151 2 263 95t144 255l45 233q4 25 12 31t33 6h162q24 0 29 -6t0 -31t-11.5 -31t-31.5 -6h-88 q-25 0 -33 -6t-12 -31l-31 -159q-21 -106 -71.5 -189t-119.5 -133.5t-147 -76t-160 -25.5z" />
<glyph unicode="'" horiz-adv-x="344" d="M440 1497h45q14 0 20.5 -10.5t0.5 -28.5l-88 -303q-8 -31 -29 -31q-20 0 -16 31l30 303q1 18 11.5 28.5t25.5 10.5z" />
<glyph unicode="(" horiz-adv-x="612" d="M551 1296l-227 -1167q-9 -43 -12 -73.5t0.5 -64.5t17.5 -55.5t45 -36t78 -16.5q22 -1 26.5 -9.5t-0.5 -27.5q-4 -22 -13 -29t-28 -7q-131 0 -177.5 77t-14.5 240l227 1171q31 162 109 240t209 78q18 0 23 -7t1 -30q-3 -20 -10 -28t-29 -9q-48 -2 -85 -16.5t-59.5 -36 t-39 -55.5t-25 -64.5t-16.5 -73.5z" />
<glyph unicode=")" horiz-adv-x="612" d="M338 129l227 1167q8 44 11 74t-1 64.5t-18 55t-45 35.5t-78 17q-22 1 -26.5 9.5t0.5 27.5q4 22 13.5 29.5t27.5 7.5q130 0 177.5 -77.5t16.5 -240.5l-227 -1171q-32 -162 -110.5 -239.5t-209.5 -77.5q-18 0 -23 7t-1 29q3 20 10 28t29 9q60 2 101.5 22t65.5 58t36.5 74 t23.5 92z" />
<glyph unicode="*" horiz-adv-x="868" d="M575 1671l117 -145l41 205q4 25 11 30.5t32 5.5t30 -6t1 -30l-41 -205l174 145q22 17 31 17t22 -17t11.5 -25.5t-21.5 -25.5l-174 -145h205q25 0 30 -6t0 -31q-4 -25 -12 -31t-33 -6h-206l120 -146q14 -17 12.5 -26.5t-22.5 -26.5q-22 -18 -31.5 -18t-21.5 18l-119 146 l-39 -207q-4 -25 -12 -31t-33 -6q-24 0 -29 6t0 31l39 207l-172 -146q-22 -17 -30.5 -17t-22.5 17q-13 19 -11.5 27.5t21.5 25.5l172 146h-204q-24 0 -29 6t0 31t11.5 31t31.5 6h205l-117 145q-13 17 -11.5 25.5t21.5 25.5t29 17t24 -17z" />
<glyph unicode="+" horiz-adv-x="901" d="M549 698q2 12 -1.5 16.5t-15.5 4.5h-253q-25 0 -30 6t-1 31t12 31t33 6h254q12 0 16.5 4t7.5 16l52 264q5 25 11.5 31t31.5 6t30 -6t0 -31l-51 -264q-3 -12 1 -16t16 -4h253q24 0 29 -6t0 -31t-11.5 -31t-31.5 -6h-254q-12 0 -17.5 -4.5t-6.5 -16.5l-52 -264 q-4 -25 -12 -31t-33 -6q-24 0 -28.5 6t0.5 31z" />
<glyph unicode="," horiz-adv-x="389" d="M131 57q6 31 29.5 51.5t52.5 20.5q56 0 66 -57q8 -53 -27.5 -113.5t-104.5 -136.5q-26 -29 -41 -17q-8 6 -6 14t15 25q16 18 30 38.5t25.5 43.5t10.5 41.5t-17 26.5q-41 20 -33 63z" />
<glyph unicode="-" horiz-adv-x="700" d="M635 528h-445q-17 0 -21 6t-1 31q3 24 9 30.5t24 6.5h444q17 0 20.5 -6t0.5 -31t-8.5 -31t-22.5 -6z" />
<glyph unicode="." horiz-adv-x="376" d="M131 59q6 29 29.5 49.5t52.5 20.5t45 -20.5t10 -49.5t-29.5 -48t-52.5 -19t-45 19t-10 48z" />
<glyph unicode="/" horiz-adv-x="481" d="M203 39q-8 -26 -15.5 -32.5t-33.5 -6.5q-24 0 -29.5 6.5t0.5 32.5l430 1356q7 26 16.5 32.5t36.5 6.5q24 0 28 -6.5t-3 -32.5z" />
<glyph unicode="0" horiz-adv-x="1343" d="M670 -8q-242 0 -346 163.5t-43 473.5l34 176q61 311 227.5 474t407.5 163q242 0 346 -163.5t43 -473.5l-34 -176q-61 -311 -227.5 -474t-407.5 -163zM936 1368q-218 0 -354 -146.5t-191 -430.5l-29 -148q-56 -284 24 -430.5t298 -146.5q433 0 547 577l29 148 q55 284 -25.5 430.5t-298.5 146.5z" />
<glyph unicode="1" horiz-adv-x="675" d="M461 39q-5 -26 -12 -32.5t-33 -6.5t-31.5 6.5t-1.5 32.5l250 1282l-295 -248q-22 -17 -32 -16.5t-21 18.5q-12 15 -10.5 25.5t18.5 23.5l346 291q24 19 55 19q26 0 31 -6t0 -33z" />
<glyph unicode="2" horiz-adv-x="991" d="M238 111q-5 -25 -0.5 -31t28.5 -6h557q25 0 30 -6t1 -31q-5 -25 -11.5 -31t-31.5 -6h-635q-25 0 -30 6t-1 31l35 180q17 86 65 167t113 144.5t140.5 124t150.5 115.5t139 108t111 112t62 118q30 115 -32 188.5t-179 73.5q-72 0 -131 -27t-121 -81q-22 -19 -32 -19.5 t-24 16.5q-12 11 -10 22.5t21 27.5q77 71 150.5 103t160.5 32q140 0 221 -92t53 -240q-13 -68 -59.5 -134t-111 -122t-140.5 -113t-152 -117t-141.5 -122.5t-114.5 -140.5t-65 -162z" />
<glyph unicode="3" horiz-adv-x="1054" d="M717 727q-25 0 -30 6t-1 31t12 31t33 6q102 0 171.5 69t92.5 191q29 144 -41 225.5t-211 81.5q-134 0 -254 -104q-22 -19 -32 -19t-23 17q-10 11 -9.5 22t17.5 27q145 131 314 131q77 0 140.5 -23t109.5 -67.5t64 -117.5t1 -167q-21 -110 -74 -187t-129 -116 q71 -43 100 -132t5 -216q-21 -106 -71.5 -189t-119.5 -133.5t-147 -76t-160 -25.5q-88 0 -168.5 38t-130.5 107q-10 19 -7.5 27t17.5 22q20 17 30.5 17t25.5 -19q38 -51 106 -84.5t144 -33.5q151 2 263 95t144 255q27 140 -20.5 223.5t-161.5 87.5z" />
<glyph unicode="4" d="M760 395h-557q-23 0 -30 9t-3 34q7 38 29 64l788 903q18 21 26.5 25t30.5 4q21 0 25.5 -7.5t-0.5 -33.5l-172 -887q-6 -25 -1 -31t30 -6h39q25 0 30 -6t0 -31q-6 -25 -13 -31t-32 -6h-39q-25 0 -31.5 -6t-11.5 -31l-63 -319q-5 -26 -12 -32.5t-33 -6.5t-31.5 6.5 t-1.5 32.5l64 319q4 25 -1 31t-30 6zM774 469q25 0 32 6t13 31l146 749q2 8 -4.5 10t-12.5 -5l-672 -771q-7 -9 -5 -14.5t10 -5.5h493z" />
<glyph unicode="5" horiz-adv-x="1015" d="M463 -8q-195 0 -291 133q-10 19 -7.5 27.5t19.5 21.5q20 17 30.5 17t25.5 -19q37 -50 99.5 -78t139.5 -28q150 2 259 101t151 282l6 26q36 184 -38.5 283.5t-229.5 99.5h-221q-25 0 -30 6t-1 31l98 502q4 25 12 31t33 6h533q24 0 28.5 -6t-0.5 -31t-11.5 -31t-31.5 -6 h-454q-25 0 -33 -6t-12 -31l-70 -354q-4 -25 1 -31t30 -6h143q87 0 155.5 -27t116 -82.5t63 -139t-4.5 -196.5l-10 -51q-21 -112 -72 -199t-119.5 -139.5t-146.5 -79t-160 -26.5z" />
<glyph unicode="6" horiz-adv-x="1069" d="M225 449l70 356q40 204 143 350t241.5 216.5t299.5 70.5h2q25 0 30 -6t1 -31t-12 -31t-33 -6h-2q-73 0 -142.5 -16.5t-142 -58t-132 -105t-108 -165t-73.5 -230.5l-13 -58q67 105 170 157t199 52q176 0 259.5 -118.5t41.5 -338.5l-8 -38q-43 -219 -175.5 -338 t-308.5 -119q-177 0 -263.5 119t-43.5 338zM547 66q149 0 255.5 104t145.5 305q37 192 -30 291.5t-216 99.5q-150 0 -256 -102t-145 -303q-37 -192 30 -293.5t216 -101.5z" />
<glyph unicode="7" horiz-adv-x="884" d="M1055 1434q23 0 28 -6t0 -29q-8 -49 -18 -68l-768 -1292q-15 -27 -24 -33t-35 -6q-20 0 -24.5 6.5t7.5 32.5l770 1296q7 12 4.5 18.5t-12.5 6.5h-608q-25 0 -30 6t-1 31t12 31t33 6h666z" />
<glyph unicode="8" horiz-adv-x="1142" d="M1077 397q-33 -176 -168 -290.5t-331 -114.5h-17q-195 0 -286 114.5t-58 290.5q25 128 106.5 227t202.5 144q-82 47 -112.5 134.5t-10.5 182.5q12 64 46 125.5t87.5 114t133 85t172.5 32.5h16q75 0 133.5 -21.5t93.5 -57t57 -82t24 -96.5t-5 -100q-20 -96 -85 -183 t-167 -134q106 -45 149.5 -144t18.5 -227zM1004 397q29 145 -46 238.5t-237 93.5h-33q-156 -6 -262 -98.5t-135 -233.5q-29 -145 46.5 -238t237.5 -93h17q162 0 272.5 93t139.5 238zM1087 1085q5 39 4.5 79t-18.5 76.5t-45.5 65t-75 45.5t-108.5 17h-17q-76 0 -139.5 -26 t-105.5 -68.5t-68.5 -90.5t-36.5 -98q-6 -39 -5.5 -78t18 -76t45 -65.5t75.5 -45.5t109 -17h31q72 2 133 28t101.5 68t66 89t36.5 97z" />
<glyph unicode="9" horiz-adv-x="1069" d="M1120 985l-69 -356q-40 -204 -143 -350t-241.5 -216.5t-299.5 -70.5h-99q-25 0 -30 6t0 31q4 25 12 31t33 6h98q73 0 142.5 16.5t142 58t132 105t108 165t73.5 230.5l12 57q-67 -105 -169.5 -157t-198.5 -52q-176 0 -261.5 119.5t-39.5 337.5l8 39q46 220 177 338.5 t306 118.5q177 0 263.5 -119t43.5 -338zM799 1368q-149 0 -256 -104.5t-146 -305.5q-37 -192 30 -291.5t216 -99.5t254.5 99.5t142.5 291.5q39 202 -26.5 306t-214.5 104z" />
<glyph unicode=":" horiz-adv-x="376" d="M131 59q6 29 29.5 49.5t52.5 20.5t45 -20.5t10 -49.5t-29.5 -48t-52.5 -19t-45 19t-10 48zM248 662q6 29 29.5 49t52.5 20t45 -20t10 -49q-4 -29 -28 -48.5t-54 -19.5q-29 0 -44.5 19t-10.5 49z" />
<glyph unicode=";" horiz-adv-x="389" d="M131 57q6 31 29.5 51.5t52.5 20.5q56 0 66 -57q12 -91 -132 -250q-26 -29 -41 -17q-8 6 -6 14t15 25q16 18 30 38.5t25.5 43.5t10.5 41.5t-17 26.5q-41 20 -33 63zM248 662q6 29 29.5 49t52.5 20t45 -20t10 -49q-4 -29 -28 -48.5t-54 -19.5q-29 0 -44.5 19t-10.5 49z" />
<glyph unicode="&#x3c;" horiz-adv-x="712" d="M264 758q3 15 19 26l516 361q15 10 24 6t6 -18l-8 -48q-5 -25 -30 -41l-398 -274q-7 -4 -9 -12.5t3 -12.5l291 -274q19 -17 14 -41l-8 -47q-3 -14 -14.5 -18t-20.5 6l-377 360q-11 11 -8 27z" />
<glyph unicode="=" horiz-adv-x="942" d="M961 817h-664q-25 0 -30 6t1 31t12.5 31t30.5 6h664q25 0 31 -6.5t0 -30.5q-6 -25 -13 -31t-32 -6zM922 621h-664q-25 0 -30 5.5t1 30.5t12.5 31t30.5 6h664q25 0 31 -6.5t0 -30.5q-6 -25 -13 -30.5t-32 -5.5z" />
<glyph unicode="&#x3e;" horiz-adv-x="712" d="M739 758q-1 -3 -2 -7t-1.5 -5.5t-2 -4.5t-4 -5t-6.5 -5l-516 -360q-15 -10 -24.5 -6t-6.5 18l8 47q5 24 31 41l397 274q7 4 9 12.5t-3 12.5l-290 274q-20 17 -15 41l9 48q3 14 14 18t20 -6l377 -361q9 -9 6 -26z" />
<glyph unicode="?" horiz-adv-x="864" d="M342 59q6 29 29.5 49.5t52.5 20.5t45 -20.5t10 -49.5t-29.5 -48t-52.5 -19t-45 19t-10 48zM440 418q17 89 48.5 161t68 120t77.5 87.5t80.5 73t73 67t59.5 79t36 100.5q23 116 -37.5 189t-175.5 73q-72 0 -131 -27t-121 -81q-22 -19 -32 -19.5t-24 16.5q-12 11 -10 22.5 t21 27.5q77 71 150.5 103t160.5 32q140 0 222 -93t52 -243q-12 -64 -39 -115.5t-61 -87t-73 -69t-79 -71t-75.5 -82t-65.5 -112.5t-47 -153l-4 -21q-4 -26 -12 -32.5t-35 -6.5q-26 0 -31 6t0 33z" />
<glyph unicode="@" horiz-adv-x="2193" d="M1520 889l18 98q4 25 12 31t33 6q24 0 29 -6t0 -31l-187 -967q-21 -107 52 -128q72 -21 191 51q141 87 245 246q93 144 125 311l2 8q33 174 -3.5 331.5t-128.5 271.5t-236.5 181.5t-317.5 67.5q-232 0 -450 -114t-370 -310t-196 -428q-25 -118 -14.5 -226.5t45.5 -203 t99 -171.5t145.5 -132.5t186 -86t220.5 -30.5h4q42 0 31 -35l-2 -6q-6 -20 -15 -27.5t-28 -7.5h-2q-126 0 -239.5 33t-203 93.5t-159.5 145t-108.5 187.5t-50.5 221t15 246q36 188 143 359.5t255 295.5t334 197.5t374 73.5q150 0 282.5 -47.5t228.5 -131.5t161.5 -200.5 t82.5 -254.5t-9 -292l-5 -23q-57 -272 -247 -467q-137 -141 -284 -187q-131 -40 -194 19q-57 52 -34 170l22 115q-141 -133 -289 -143q-170 -12 -253 111.5t-39 345.5l24 126q43 222 174 345.5t295 111.5q145 -10 236 -143zM1389 211l116 602q-39 67 -99 104.5t-134 40.5 q-137 6 -241.5 -92.5t-139.5 -277.5l-29 -152q-35 -179 31.5 -277.5t206.5 -92.5q153 6 289 145z" />
<glyph unicode="A" horiz-adv-x="1249" d="M428 422q-20 0 -28 -5t-19 -24l-193 -352q-14 -29 -24 -35t-35 -6q-42 0 -20 41l733 1352q16 28 27 34.5t34 6.5q16 0 23 -1.5t13 -10.5t9 -29l205 -1352q7 -41 -33 -41q-25 0 -33 6t-14 35l-53 352q-3 19 -9 24t-26 5h-557zM891 1307q-1 11 -11 11t-14 -11l-420 -789 q-6 -12 -2 -17t13 -5h528q22 0 19 22z" />
<glyph unicode="B" horiz-adv-x="1220" d="M492 1397q4 25 12 31t33 6h368q193 0 282.5 -95.5t57.5 -261.5q-22 -113 -88.5 -194t-169.5 -123q224 -80 170 -363q-77 -397 -547 -397h-352q-25 0 -30 6t-1 31zM475 719q-25 0 -33 -6t-12 -31l-111 -571q-5 -25 0 -31t29 -6h268q213 0 323.5 82.5t141.5 240.5 q29 154 -43.5 236t-273.5 86h-289zM459 829q-4 -25 0.5 -30.5t29.5 -5.5h299q88 0 158 24.5t114.5 66t71 90t37.5 103.5q6 42 5.5 82.5t-19 77t-48.5 64t-83.5 43.5t-124.5 16h-299q-25 0 -33 -6t-12 -31z" />
<glyph unicode="C" horiz-adv-x="1226" d="M371 791l-29 -148q-55 -276 47 -426.5t326 -150.5q108 0 192.5 34.5t171.5 106.5q22 19 32.5 19t23.5 -17q14 -17 12 -25.5t-23 -25.5q-196 -166 -424 -166q-120 0 -214 40.5t-155.5 120.5t-81 199.5t10.5 276.5l35 176q30 154 97 276t158.5 200.5t201 119.5t229.5 41 q228 0 362 -166q13 -17 11.5 -25.5t-21.5 -25.5t-30 -17t-25 19q-58 72 -130 106.5t-181 34.5q-224 0 -383.5 -150.5t-212.5 -426.5z" />
<glyph unicode="D" horiz-adv-x="1351" d="M649 0h-391q-25 0 -30 6t-1 31l265 1360q4 25 12 31t33 6h391q120 0 214 -39t155.5 -118t80.5 -197t-10 -275l-35 -176q-30 -154 -96.5 -275t-157.5 -197.5t-200.5 -116.5t-229.5 -40zM319 111q-5 -25 0 -31t29 -6h314q225 0 384.5 146.5t213.5 422.5l28 148 q53 276 -48.5 422.5t-326.5 146.5h-313q-25 0 -33 -6t-12 -31z" />
<glyph unicode="E" horiz-adv-x="1114" d="M492 1397q4 25 12 31t33 6h684q24 0 28.5 -6t-0.5 -31t-11.5 -31t-31.5 -6h-606q-25 0 -33 -6t-12 -31l-96 -494q-4 -25 0.5 -30.5t29.5 -5.5h504q24 0 29 -6t0 -31t-11.5 -31t-31.5 -6h-504q-25 0 -33 -6t-12 -31l-111 -571q-5 -25 0 -31t29 -6h606q25 0 30 -6t1 -31 q-5 -25 -11.5 -31t-31.5 -6h-684q-25 0 -30 6t-1 31z" />
<glyph unicode="F" horiz-adv-x="1073" d="M492 1397q4 25 12 31t33 6h684q24 0 28.5 -6t-0.5 -31t-11.5 -31t-31.5 -6h-606q-25 0 -33 -6t-12 -31l-96 -494q-4 -25 0.5 -30.5t29.5 -5.5h504q24 0 29 -6t0 -31t-11.5 -31t-31.5 -6h-504q-25 0 -33 -6t-12 -31l-125 -643q-5 -26 -12 -32.5t-33 -6.5t-31.5 6.5 t-1.5 32.5z" />
<glyph unicode="G" horiz-adv-x="1318" d="M1247 356q-10 -55 -55 -117t-114 -117.5t-169.5 -92.5t-208.5 -37q-120 0 -214 40.5t-155.5 120.5t-81 199.5t10.5 276.5l35 176q30 154 97 276t158.5 200.5t201 119.5t229.5 41q228 0 362 -166q13 -17 11.5 -25.5t-21.5 -25.5t-30 -17t-25 19q-58 72 -130 106.5 t-181 34.5q-224 0 -383.5 -150.5t-212.5 -426.5l-29 -148q-55 -276 47 -426.5t326 -150.5q99 0 186.5 32.5t141.5 79.5t86.5 93t39.5 81l64 330q5 25 0 31t-29 6h-278q-25 0 -30 6t-1 31t12 31t33 6h356q24 0 29 -6t0 -31z" />
<glyph unicode="H" horiz-adv-x="1331" d="M1163 682q5 25 0.5 31t-28.5 6h-660q-25 0 -33 -6t-12 -31l-125 -643q-5 -26 -12 -32.5t-33 -6.5t-31.5 6.5t-1.5 32.5l265 1356q4 26 12 32.5t35 6.5q26 0 30.5 -6.5t-0.5 -32.5l-110 -566q-4 -25 0.5 -30.5t29.5 -5.5h660q25 0 32 5.5t11 30.5l111 566q4 26 12 32.5 t35 6.5q26 0 30.5 -6.5t-0.5 -32.5l-264 -1356q-5 -26 -12 -32.5t-33 -6.5t-31.5 6.5t-1.5 32.5z" />
<glyph unicode="I" horiz-adv-x="520" d="M305 39q-5 -26 -12 -32.5t-33 -6.5t-31.5 6.5t-1.5 32.5l265 1356q4 26 12 32.5t35 6.5q26 0 30.5 -6.5t-0.5 -32.5z" />
<glyph unicode="J" horiz-adv-x="888" d="M979 1395l-207 -1067q-30 -150 -147.5 -243t-264.5 -93q-176 0 -258 117q-10 15 -9.5 23.5t11.5 19.5l15 12q16 13 24.5 13.5t20.5 -13.5q71 -98 207 -98q114 0 206.5 73t116.5 197l207 1059q4 26 12 32.5t35 6.5q26 0 31 -6t0 -33z" />
<glyph unicode="K" horiz-adv-x="1140" d="M430 676q-3 -11 5 -13.5t16 5.5l804 751q17 15 45 15h31q11 0 15 -6t0.5 -14t-11.5 -15l-661 -615q-15 -13 -16 -20.5t8 -24.5l405 -704q7 -11 2.5 -23t-20.5 -12h-33q-29 0 -39 14l-387 670q-11 18 -29 0l-137 -129q-19 -19 -25 -28.5t-10 -32.5l-88 -455 q-5 -26 -12 -32.5t-33 -6.5t-31.5 6.5t-1.5 32.5l265 1356q4 26 12 32.5t35 6.5q26 0 30.5 -6.5t-0.5 -32.5z" />
<glyph unicode="L" horiz-adv-x="954" d="M258 0q-25 0 -30 6t-1 31l265 1358q4 26 12 32.5t35 6.5q26 0 30.5 -6.5t-0.5 -32.5l-250 -1284q-5 -25 0 -31t29 -6h508q25 0 30 -6t1 -31q-5 -25 -11.5 -31t-31.5 -6h-586z" />
<glyph unicode="M" horiz-adv-x="1662" d="M831 0q-12 0 -18 1t-11.5 7.5t-8.5 20.5l-185 1159q-1 8 -5.5 10.5t-9.5 -1t-7 -11.5l-320 -1145q-6 -24 -15 -32.5t-32 -8.5t-30 9t-1 32l377 1352q6 26 15.5 33.5t33.5 7.5q18 0 23 -4.5t8 -20.5l203 -1266q2 -7 9 -7t11 7l695 1266q9 16 17 20.5t26 4.5q23 0 29 -7.5 t3 -33.5l-151 -1352q-3 -24 -11.5 -32.5t-31.5 -8.5t-30.5 9t-4.5 32l127 1145q1 7 -2.5 11t-9.5 1.5t-11 -10.5l-634 -1159q-9 -20 -19 -24.5t-29 -4.5z" />
<glyph unicode="N" horiz-adv-x="1427" d="M539 1434q20 0 26 -3.5t13 -21.5l563 -1225q5 -10 12.5 -8t9.5 12l236 1207q4 26 12 32.5t35 6.5q26 0 31 -6t0 -33l-265 -1356q-5 -26 -12 -32.5t-33 -6.5q-20 0 -26 3.5t-15 21.5l-563 1224q-5 10 -12.5 8t-9.5 -12l-236 -1206q-5 -26 -12 -32.5t-33 -6.5t-31.5 6.5 t-1.5 32.5l265 1356q4 26 12 32.5t35 6.5z" />
<glyph unicode="O" horiz-adv-x="1404" d="M700 -8q-120 0 -214 40.5t-155.5 120.5t-81 199.5t10.5 276.5l35 176q30 154 97 276t158.5 200.5t201 119.5t229.5 41t214 -40.5t155.5 -120.5t81 -199.5t-10.5 -276.5l-35 -176q-30 -154 -97 -276t-158.5 -200.5t-201 -119.5t-229.5 -41zM967 1368q-224 0 -383.5 -150.5 t-212.5 -426.5l-29 -148q-55 -276 47 -426.5t326 -150.5t383.5 150t214.5 427l28 148q53 277 -48.5 427t-325.5 150z" />
<glyph unicode="P" horiz-adv-x="1163" d="M393 487l-88 -448q-5 -26 -12 -32.5t-33 -6.5t-31.5 6.5t-1.5 32.5l265 1358q4 25 12 31t33 6h317q96 0 169.5 -23t119.5 -64.5t73 -98.5t29.5 -125t-10.5 -144q-18 -96 -62 -177.5t-112.5 -144t-167 -98t-217.5 -35.5h-240q-25 0 -31.5 -6t-11.5 -31zM834 1360h-234 q-25 0 -33 -6t-12 -31l-133 -688q-5 -25 0 -31t29 -6h233q107 0 192.5 30.5t141.5 85t91 120.5t50 145q11 50 9.5 98t-11 90t-35.5 77.5t-64 61t-95 40t-129 14.5z" />
<glyph unicode="Q" horiz-adv-x="1404" d="M700 -8q-120 0 -214 40.5t-155.5 120.5t-81 199.5t10.5 276.5l35 176q30 154 97 276t158.5 200.5t201 119.5t229.5 41t214 -40.5t155.5 -120.5t81 -199.5t-10.5 -276.5l-35 -176q-43 -220 -156.5 -369.5t-273.5 -216.5l154 -371q7 -18 -1 -29.5t-24 -11.5 q-32 0 -39.5 5.5t-21.5 39.5l-143 340q-85 -24 -181 -24zM967 1368q-224 0 -383.5 -150.5t-212.5 -426.5l-29 -148q-55 -276 47 -426.5t326 -150.5t383.5 150t214.5 427l28 148q53 277 -48.5 427t-325.5 150z" />
<glyph unicode="R" horiz-adv-x="1241" d="M412 586l-107 -547q-5 -26 -12 -32.5t-33 -6.5t-31.5 6.5t-1.5 32.5l265 1358q4 25 12 31t33 6h370q238 0 333.5 -105.5t57.5 -300.5q-33 -170 -141 -272.5t-293 -126.5l236 -588q7 -18 -1 -29.5t-24 -11.5h-14q-24 0 -31 4t-16 25l-236 594h-321q-25 0 -33 -6t-12 -31z M887 1360h-287q-25 0 -33 -6t-12 -31l-115 -590q-4 -25 1 -31t30 -6h287q401 0 465 332q31 159 -46.5 245.5t-289.5 86.5z" />
<glyph unicode="S" horiz-adv-x="1087" d="M160 143q-18 20 2 43l10 11q26 26 47 2q127 -133 340 -133q154 0 267.5 88.5t136.5 207.5q11 58 -4 107t-50 85.5t-83.5 69.5t-103 62t-108.5 59t-101.5 66t-81.5 77t-47.5 97.5t-0.5 122.5q27 139 153 236.5t324 97.5q55 0 108 -10t89.5 -25t65 -29.5t41.5 -24.5l14 -10 q17 -14 2 -36l-15 -19q-17 -20 -39 -4q-121 84 -278 84q-169 0 -267.5 -77t-121.5 -185q-11 -55 5 -102.5t51 -83.5t83 -68.5t102.5 -62.5t108.5 -60t101.5 -66t81.5 -76.5t48 -95t2 -118.5q-33 -166 -177 -273.5t-322 -107.5q-96 0 -180.5 28.5t-127 58.5t-75.5 64z" />
<glyph unicode="T" horiz-adv-x="1028" d="M809 1323l-250 -1284q-5 -26 -12 -32.5t-33 -6.5t-31.5 6.5t-1.5 32.5l250 1284q5 25 0 31t-29 6h-327q-25 0 -30 6t-1 31t12 31t33 6h807q24 0 29 -6t0 -31t-11.5 -31t-31.5 -6h-328q-25 0 -33 -6t-12 -31z" />
<glyph unicode="U" horiz-adv-x="1343" d="M670 -8q-48 0 -93 7t-91.5 24.5t-83.5 45.5t-69 70t-46.5 99t-18 132t16.5 169l166 854q4 23 15 32t34 9q19 -2 25 -10.5t3 -30.5l-168 -863q-22 -105 -11.5 -183t38.5 -131.5t76.5 -87t103 -48t117.5 -14.5t123 14.5t121.5 48.5t111 86t89 133t59.5 182l168 863 q3 22 12.5 31t32.5 10q23 0 30.5 -9t2.5 -32l-166 -854q-25 -127 -75.5 -225.5t-110.5 -157.5t-134.5 -97.5t-141.5 -52.5t-136 -14z" />
<glyph unicode="V" horiz-adv-x="1249" d="M625 0q-16 0 -23 1.5t-13.5 10.5t-10.5 29l-205 1352q-5 41 35 41q28 0 36.5 -6t12.5 -35l182 -1250q1 -7 5.5 -9.5t10 0t9.5 9.5l667 1250q16 29 27.5 35t40.5 6q39 0 18 -41l-733 -1352q-14 -28 -25 -34.5t-34 -6.5z" />
<glyph unicode="W" horiz-adv-x="1843" d="M1200 1434q17 0 25.5 -1.5t16.5 -11t9 -28.5l84 -1248q1 -9 5.5 -12t10 0t9.5 12l571 1248q13 29 24 35t40 6q35 0 18 -41l-633 -1352q-12 -28 -23.5 -34.5t-35.5 -6.5q-18 0 -25 1.5t-13.5 10.5t-8.5 29l-86 1270q0 7 -4.5 10.5t-10.5 0.5t-10 -11l-581 -1270 q-11 -28 -22.5 -34.5t-37.5 -6.5q-17 0 -24 1.5t-14 10.5t-9 29l-104 1352q-3 41 35 41q29 0 37.5 -6t9.5 -35l84 -1248q1 -8 5 -11t9.5 -0.5t9.5 11.5l572 1248q12 28 26.5 34.5t40.5 6.5z" />
<glyph unicode="X" horiz-adv-x="1110" d="M692 643q-3 7 -10.5 7t-13.5 -7l-486 -614q-14 -21 -22.5 -25t-32.5 -4h-4q-16 0 -20.5 11t8.5 30l530 668q9 13 10.5 18t-4.5 18l-252 648q-7 18 2 29.5t25 11.5h4q24 0 31 -4t14 -25l227 -596q3 -7 11 -7t14 7l461 596q17 21 25 25t32 4h4q16 0 19.5 -11t-9.5 -30 l-505 -648q-10 -13 -11 -18t4 -18l269 -668q7 -18 -1 -29.5t-24 -11.5h-4q-24 0 -31 4t-16 25z" />
<glyph unicode="Y" horiz-adv-x="1110" d="M600 39q-5 -26 -12 -32.5t-33 -6.5t-31.5 6.5t-1.5 32.5l129 666l-274 688q-7 18 1.5 29.5t24.5 11.5h9q24 0 31 -4t14 -25l241 -604q3 -7 11 -7t14 7l475 604q17 21 25 25t32 4h9q16 0 19.5 -12t-9.5 -29l-545 -688z" />
<glyph unicode="Z" horiz-adv-x="1024" d="M403 1360q-25 0 -30 6t0 31q4 25 12 31t33 6h753q23 0 30.5 -9t2.5 -32q-8 -28 -18 -41l-981 -1258q-6 -10 -3.5 -15t9.5 -5h674q25 0 30 -6t0 -31t-11.5 -31t-31.5 -6h-741q-24 0 -32.5 9t-2.5 32q6 22 19 41l981 1257q7 11 5 16t-9 5h-689z" />
<glyph unicode="[" horiz-adv-x="704" d="M240 -297q-5 -25 0 -31t30 -6h230q24 0 28.5 -6t-0.5 -31t-11.5 -31t-31.5 -6h-307q-25 0 -30 6t-1 31l383 1968q4 25 12 31t33 6h308q24 0 28.5 -6t-0.5 -31q-4 -25 -11 -30.5t-32 -5.5h-229q-25 0 -33 -6t-12 -31z" />
<glyph unicode="\" horiz-adv-x="481" d="M291 39l98 1356q1 25 9 32t32 7q26 0 32 -6.5t5 -32.5l-98 -1356q-1 -25 -9 -32t-32 -7q-26 0 -32 6.5t-5 32.5z" />
<glyph unicode="]" horiz-adv-x="704" d="M346 -297l354 1821q5 25 0.5 31t-28.5 6h-230q-25 0 -29.5 5.5t-0.5 30.5t12 31t33 6h307q24 0 29 -6t0 -31l-383 -1968q-5 -25 -11.5 -31t-31.5 -6h-308q-25 0 -30 6t0 31q4 25 12 31t33 6h229q25 0 31.5 6t11.5 31z" />
<glyph unicode="^" horiz-adv-x="1058" d="M762 1298l-400 -512q-12 -16 -20 -21t-27 -5h-22q-16 0 -20 11t10 30l475 606q16 19 25 23t26 4q16 0 23 -4t14 -23l241 -606q6 -18 -2 -29.5t-24 -11.5h-23q-19 0 -26.5 5.5t-12.5 20.5l-198 512q-6 14 -18 14t-21 -14z" />
<glyph unicode="_" horiz-adv-x="1124" d="M971 -74h-846q-25 0 -30 6t-1 31t12 31t33 6h846q24 0 29 -6t0 -31t-11.5 -31t-31.5 -6z" />
<glyph unicode="`" horiz-adv-x="348" d="M569 1569l-184 211q-14 17 -12.5 26.5t20.5 24.5q20 16 28.5 16t22.5 -18l168 -225q12 -19 12.5 -26.5t-12.5 -18.5q-12 -11 -20 -9t-23 19z" />
<glyph unicode="a" d="M788 37l19 98q-141 -133 -289 -143q-170 -12 -253 111.5t-40 345.5l25 126q43 222 174 345.5t295 111.5q144 -10 235 -143l19 98q4 25 12 31t33 6q24 0 29 -6t0 -31l-185 -950q-5 -25 -11.5 -31t-31.5 -6t-30 6t-1 31zM823 211l117 602q-39 67 -99 104.5t-134 40.5 q-137 6 -241.5 -92.5t-139.5 -277.5l-29 -152q-35 -179 31.5 -277.5t206.5 -92.5q152 6 288 145z" />
<glyph unicode="b" d="M260 37q-5 -25 -11.5 -31t-31.5 -6t-30 6t-1 31l265 1360q4 25 12 31t33 6q24 0 28.5 -6t-0.5 -31l-98 -508q141 133 289 143q170 12 253 -111.5t40 -345.5l-25 -126q-43 -222 -174 -345.5t-295 -111.5q-144 10 -235 143zM412 813l-117 -602q37 -66 96.5 -104t134.5 -41 q137 -6 241.5 92.5t139.5 277.5l29 152q35 179 -31.5 277.5t-206.5 92.5q-153 -6 -286 -145z" />
<glyph unicode="c" horiz-adv-x="954" d="M322 563l-21 -102q-36 -186 30.5 -290.5t211.5 -104.5q139 0 266 114q18 15 29.5 16t23.5 -14q21 -27 -12 -57q-145 -133 -320 -133q-176 0 -262 119t-43 338l25 126q43 219 174 338t307 119q84 0 154.5 -34.5t115.5 -98.5q21 -31 -12 -57q-19 -15 -29.5 -14t-21.5 16 q-84 114 -223 114q-145 0 -251 -104.5t-142 -290.5z" />
<glyph unicode="d" d="M788 37l19 98q-141 -133 -289 -143q-170 -12 -253 111.5t-40 345.5l25 126q43 222 174 345.5t295 111.5q144 -10 235 -143l99 508q4 25 12 31t33 6q24 0 28.5 -6t-0.5 -31l-264 -1360q-5 -25 -11.5 -31t-31.5 -6t-30 6t-1 31zM823 211l117 602q-39 67 -99 104.5 t-134 40.5q-137 6 -241.5 -92.5t-139.5 -277.5l-29 -152q-35 -179 31.5 -277.5t206.5 -92.5q152 6 288 145z" />
<glyph unicode="e" horiz-adv-x="970" d="M346 479q-17 0 -24 -0.5t-13 -4.5t-8 -13q-36 -186 30.5 -290.5t211.5 -104.5q137 0 254 114q18 15 29.5 16t23.5 -14q21 -27 -12 -57q-136 -133 -308 -133q-176 0 -262 119t-43 338l25 126q28 147 102 253t166.5 155t194.5 49q65 0 117.5 -19t89.5 -58.5t49.5 -99.5 t-2.5 -142v-2q-20 -98 -102.5 -165t-184.5 -67h-334zM322 565q-3 -14 4 -17t32 -3h314q94 0 150 53t67 115q24 123 -30.5 184t-160.5 61q-129 0 -230.5 -98t-145.5 -295z" />
<glyph unicode="f" horiz-adv-x="667" d="M698 899h-172q-25 0 -33 -6t-12 -31l-256 -1327q-5 -25 -11.5 -31t-31.5 -6t-30 6t0 31l256 1327q5 25 0 31t-29 6h-74q-25 0 -30 6t-1 31t12 31t33 6h74q25 0 31.5 6t11.5 31l37 190q20 102 103.5 172t181.5 70q107 0 166 -82q11 -17 9 -28.5t-20 -26.5q-30 -27 -51 0 q-50 63 -119 63q-62 0 -121 -45t-77 -139l-35 -174q-4 -25 1 -31t30 -6h172q24 0 28.5 -6t-0.5 -31t-11.5 -31t-31.5 -6z" />
<glyph unicode="g" d="M750 -164l57 299q-141 -133 -289 -143q-170 -12 -253 111.5t-40 345.5l25 126q43 222 174 345.5t295 111.5q144 -10 235 -143l19 98q4 25 12 31t33 6q24 0 29 -6t0 -31l-226 -1159q-29 -150 -144.5 -243t-262.5 -93q-89 0 -154.5 35t-99.5 100q-13 23 12 45l8 6 q33 26 47 -6q69 -106 201 -106q104 0 200 70.5t122 199.5zM823 211l117 602q-39 67 -99 104.5t-134 40.5q-137 6 -241.5 -92.5t-139.5 -277.5l-29 -152q-35 -179 31.5 -277.5t206.5 -92.5q152 6 288 145z" />
<glyph unicode="h" horiz-adv-x="1032" d="M260 37q-5 -25 -11.5 -31t-31.5 -6t-30 6t-1 31l265 1360q4 25 12 31t33 6q24 0 28.5 -6t-0.5 -31l-94 -484q142 109 277 119q151 9 241.5 -80.5t59.5 -246.5l-129 -668q-5 -25 -11.5 -31t-31.5 -6t-30 6t-1 31l129 668q24 118 -46.5 187t-189.5 66q-139 -5 -282 -118z " />
<glyph unicode="i" horiz-adv-x="434" d="M260 37q-5 -25 -11.5 -31t-31.5 -6t-30 6t-1 31l185 950q4 25 12 31t33 6q24 0 28.5 -6t-0.5 -31zM389 1235q5 29 28 49.5t52 20.5t45.5 -20.5t11.5 -49.5q-6 -29 -30.5 -48.5t-53.5 -19.5t-43.5 19t-9.5 49z" />
<glyph unicode="j" horiz-adv-x="434" d="M371 987q4 25 12 31t33 6q24 0 28.5 -6t-0.5 -31l-243 -1253q-20 -102 -103.5 -172t-179.5 -70q-53 0 -96 22t-68 60q-13 17 -11.5 28.5t19.5 26.5q18 14 28.5 14.5t23.5 -14.5q29 -35 55.5 -49t62.5 -14q62 0 121.5 45t77.5 139zM389 1235q5 29 28 49.5t52 20.5 t45.5 -20.5t11.5 -49.5q-6 -29 -30.5 -48.5t-53.5 -19.5t-43.5 19t-9.5 49z" />
<glyph unicode="k" horiz-adv-x="901" d="M342 455q-3 -9 3.5 -10.5t12.5 4.5l541 546q14 14 26 20.5t18.5 7.5t19.5 1h10q18 0 20.5 -12t-14.5 -29l-373 -377q-10 -10 -4 -24l219 -541q8 -17 1 -29t-27 -12h-7q-13 0 -19 1t-14 7.5t-14 20.5l-202 495q-6 15 -21 0l-182 -184q-15 -17 -20 -28.5t-11 -41.5 l-45 -233q-5 -25 -11.5 -31t-31.5 -6t-30 6t-1 31l265 1360q4 25 12 31t33 6q24 0 28.5 -6t-0.5 -31z" />
<glyph unicode="l" horiz-adv-x="573" d="M504 1397l-205 -1057q-29 -142 15 -204t161 -62q25 0 30 -6t1 -31q-5 -25 -11.5 -31t-31.5 -6q-162 0 -216 88.5t-22 257.5l205 1051q4 25 12 31t33 6q24 0 29 -6t0 -31z" />
<glyph unicode="m" horiz-adv-x="1576" d="M260 37q-5 -25 -11.5 -31t-31.5 -6t-30 6t-1 31l185 950q4 25 12 31t33 6q24 0 28.5 -6t-0.5 -31l-14 -74q142 109 277 119q30 2 61 -1t70.5 -13.5t75.5 -37.5t61 -67q142 109 276 119q151 9 241.5 -80.5t59.5 -246.5l-129 -668q-5 -25 -11.5 -31t-31.5 -6t-30 6t0 31 l129 668q24 118 -46.5 187t-189.5 66q-128 -5 -254 -96q6 -39 -6 -94l-141 -731q-5 -25 -11.5 -31t-31.5 -6t-30 6t-1 31l141 725q17 92 -28 137q-65 62 -183 59q-139 -5 -282 -118z" />
<glyph unicode="n" horiz-adv-x="1032" d="M260 37q-5 -25 -11.5 -31t-31.5 -6t-30 6t-1 31l185 950q4 25 12 31t33 6q24 0 28.5 -6t-0.5 -31l-14 -74q142 109 277 119q151 9 241.5 -80.5t59.5 -246.5l-129 -668q-5 -25 -11.5 -31t-31.5 -6t-30 6t-1 31l129 668q24 118 -46.5 187t-189.5 66q-139 -5 -282 -118z" />
<glyph unicode="o" horiz-adv-x="1069" d="M1040 575l-24 -126q-43 -219 -175.5 -338t-308.5 -119q-177 0 -263.5 119t-43.5 338l25 126q43 219 175 338t308 119q177 0 263.5 -119t43.5 -338zM547 66q148 0 254 101.5t143 293.5l21 102q37 192 -30 293.5t-216 101.5q-148 0 -254 -101.5t-143 -293.5l-21 -102 q-37 -192 30 -293.5t216 -101.5z" />
<glyph unicode="p" d="M444 987l-18 -98q141 133 289 143q170 12 253 -111.5t40 -345.5l-25 -126q-43 -222 -174 -345.5t-295 -111.5q-144 10 -235 143l-117 -600q-5 -25 -11.5 -31t-31.5 -6t-30 6t-1 31l283 1452q4 25 12 31t33 6q24 0 28.5 -6t-0.5 -31zM412 813l-117 -602q37 -66 96.5 -104 t134.5 -41q137 -6 241.5 92.5t139.5 277.5l29 152q35 179 -31.5 277.5t-206.5 92.5q-153 -6 -286 -145z" />
<glyph unicode="q" d="M690 -465l117 600q-141 -133 -289 -143q-170 -12 -253 111.5t-40 345.5l25 126q43 222 174 345.5t295 111.5q144 -10 235 -143l19 98q4 25 12 31t33 6q24 0 29 -6t0 -31l-283 -1452q-5 -25 -11.5 -31t-31.5 -6t-30 6t-1 31zM823 211l117 602q-39 67 -99 104.5t-134 40.5 q-137 6 -241.5 -92.5t-139.5 -277.5l-29 -152q-35 -179 31.5 -277.5t206.5 -92.5q152 6 288 145z" />
<glyph unicode="r" horiz-adv-x="815" d="M260 37q-5 -25 -11.5 -31t-31.5 -6t-30 6t-1 31l185 950q4 25 12 31t33 6q24 0 28.5 -6t-0.5 -31l-12 -67q163 112 291 112q114 0 184 -61q19 -17 20 -29t-16 -31q-20 -20 -31.5 -22.5t-25.5 10.5q-62 59 -166 59q-119 0 -270 -108z" />
<glyph unicode="s" horiz-adv-x="894" d="M367 780q-9 -47 13 -85t64.5 -64t95.5 -50t106.5 -50t97 -57t68 -77.5t17.5 -105.5q-15 -135 -122.5 -217t-270.5 -82q-164 0 -305 84q-17 9 -18 19t14 32q12 20 24 23t35 -9q139 -75 265 -75q120 0 200 52t97 140q9 48 -6.5 86.5t-48.5 64t-77 49.5t-91.5 42.5t-92 43.5 t-79 52.5t-52.5 69.5t-12 94q13 119 113.5 195.5t236.5 76.5q131 0 248 -69q15 -10 14.5 -19.5t-14.5 -28.5q-14 -22 -25 -24.5t-31 10.5q-92 57 -206 57q-107 0 -176 -53t-82 -125z" />
<glyph unicode="t" horiz-adv-x="770" d="M406 852q5 25 0 31t-29 6h-74q-25 0 -30 6t-1 31t12 31t33 6h74q25 0 32 5.5t11 30.5l41 207q5 25 11.5 31t31.5 6t30 -6t1 -31l-41 -207q-4 -24 1 -30t30 -6h172q24 0 28.5 -6t-0.5 -31t-11.5 -31t-31.5 -6h-172q-25 0 -33 -6t-12 -31l-117 -602q-18 -94 25 -139 t105 -45q67 0 143 63q19 15 29 14.5t22 -14.5q12 -15 9 -26.5t-23 -28.5q-85 -82 -195 -82q-98 0 -154 69.5t-36 171.5z" />
<glyph unicode="u" horiz-adv-x="1015" d="M295 319q-25 -127 35.5 -191.5t183.5 -61.5q122 2 283 118l155 803q4 25 12 31t33 6q24 0 29 -6t0 -31l-184 -950q-5 -25 -11.5 -31t-31.5 -6t-30 6t-1 31l16 82q-162 -117 -288 -127q-66 -5 -122.5 13.5t-97 59.5t-56 104.5t0.5 149.5l129 668q4 25 12 31t33 6 q24 0 29 -6t0 -31z" />
<glyph unicode="v" horiz-adv-x="950" d="M502 102l483 891q16 31 47 31q10 0 15 -0.5t13 -4t6 -10.5t-7 -20l-524 -952q-12 -23 -22 -30t-30 -7h-16q-21 0 -28.5 7t-10.5 30l-156 952q-2 16 5.5 24.5t15.5 9.5t22 1q9 0 13.5 -1t10 -8t7.5 -22l139 -891q2 -6 7 -6.5t10 6.5z" />
<glyph unicode="w" horiz-adv-x="1441" d="M901 887q-1 6 -4 7.5t-6.5 -0.5t-5.5 -7l-426 -850q-12 -23 -21.5 -30t-29.5 -7h-13q-21 0 -29.5 7t-9.5 30l-86 952q-1 21 9.5 28t29.5 7q14 0 19.5 -1t10 -8t5.5 -22l74 -876q0 -5 3 -7t7 0t6 7l434 870q11 23 22 30t28 7h4q16 0 22.5 -6.5t9.5 -30.5l99 -870 q0 -5 3 -7t7 0t6 7l414 876q7 15 14 22t13 8t20 1q18 0 23.5 -6t-1.5 -29l-454 -952q-10 -23 -20 -30t-31 -7h-13q-21 0 -28.5 7t-10.5 30z" />
<glyph unicode="x" horiz-adv-x="962" d="M580 459q-7 14 -21 0l-383 -418q-28 -31 -36.5 -36t-33.5 -5q-20 0 -24.5 12t10.5 29l438 475q12 12 7 23l-238 444q-9 17 0 29t29 12q24 0 31 -5t24 -36l203 -387q7 -13 20 0l355 387q30 31 38 36t33 5q20 0 23.5 -12t-11.5 -29l-409 -444q-12 -12 -6 -23l254 -475 q9 -17 1 -29t-28 -12q-24 0 -31 5t-26 36z" />
<glyph unicode="y" horiz-adv-x="950" d="M188 -467l232 418q12 23 13.5 31.5t-1.5 31.5l-160 975q-2 16 5.5 24.5t14 9.5t17.5 1q13 0 18.5 -1t11 -8t7.5 -22l139 -893q1 -5 4 -6.5t6.5 0t6.5 6.5l487 893q8 15 16 22t14 8t19 1q8 0 12.5 -0.5t10.5 -3.5t5.5 -11t-7.5 -20l-799 -1460q-8 -15 -15.5 -22t-12.5 -8 t-15 -1t-15.5 0.5t-13.5 4t-6 10.5t6 20z" />
<glyph unicode="z" horiz-adv-x="919" d="M125 84l776 848q4 4 5 8t-1.5 7t-7.5 3h-553q-25 0 -30 6t-1 31t12 31t33 6h621q24 0 29 -6t0 -31q-7 -35 -17 -47l-776 -848q-4 -4 -5 -8t1.5 -7t7.5 -3h553q25 0 30 -6t1 -31q-5 -25 -11.5 -31t-31.5 -6h-621q-25 0 -30 6t0 31q7 37 16 47z" />
<glyph unicode="{" horiz-adv-x="659" d="M418 756q28 -42 36.5 -85.5t-5.5 -135.5l-121 -623q-9 -43 -12 -73.5t0.5 -64.5t18 -55.5t45.5 -36t79 -16.5q22 -1 26 -9.5t-2 -27.5q-6 -23 -13.5 -30t-25.5 -7q-131 0 -178.5 78t-15.5 240l121 618q8 49 9.5 90.5t-22.5 70t-75 30.5h-4q-25 0 -30 6t-1 31t12 31t33 6 h4q75 3 110.5 53.5t51.5 136.5l80 416q32 163 109.5 240t207.5 77q18 0 24.5 -7.5t2.5 -29.5q-3 -20 -10.5 -28t-30.5 -9q-48 -2 -84.5 -16.5t-59 -35.5t-39.5 -55t-25.5 -64t-17.5 -74l-81 -420q-16 -79 -44.5 -129t-72.5 -92z" />
<glyph unicode="|" horiz-adv-x="520" d="M188 -559q-5 -26 -12 -32.5t-33 -6.5t-31.5 6.5t-0.5 32.5l399 2054q6 26 13.5 32.5t33.5 6.5t31.5 -6.5t-0.5 -32.5z" />
<glyph unicode="}" horiz-adv-x="659" d="M532 756q-18 28 -27 53.5t-12.5 70t9.5 97.5l82 420q9 43 12 73.5t-0.5 64.5t-18 55t-45.5 35.5t-79 16.5q-20 1 -24 8.5t-1 28.5q4 22 12.5 29.5t26.5 7.5q131 0 179 -77.5t16 -239.5l-80 -416q-8 -49 -10 -90.5t22 -69.5t76 -30h4q24 0 28.5 -6t-0.5 -31t-11.5 -31 t-31.5 -6h-4q-40 -1 -69.5 -17t-47 -45.5t-27 -58.5t-17.5 -70l-121 -618q-32 -163 -109.5 -240.5t-208.5 -77.5q-18 0 -24 7.5t-2 29.5q5 21 12 28.5t29 8.5q59 2 100 22t65 58t36.5 74t23.5 92l121 623q16 79 44.5 128.5t71.5 92.5z" />
<glyph unicode="~" horiz-adv-x="1087" d="M526 852q46 0 94 -19t82 -41.5t80 -41.5t88 -19q43 0 83.5 21t58.5 39t43 47q15 18 35 6l24 -17q15 -12 2 -30q-109 -146 -266 -146q-46 0 -93.5 19t-81.5 41.5t-79.5 41.5t-87.5 19q-98 2 -184 -106q-16 -20 -35 -7l-25 17q-18 12 -2 31q108 145 264 145z" />
<glyph unicode="&#xa1;" horiz-adv-x="462" d="M494 965q-6 -29 -29.5 -49.5t-52.5 -20.5t-45.5 20.5t-10.5 49.5t29.5 48t52.5 19q30 0 46 -19t10 -48zM375 702q18 0 23 -8.5t1 -31.5l-190 -1031q-4 -23 -15 -32t-34 -9h-4q-23 0 -30.5 9t-2.5 32l211 1031q4 23 13.5 31.5t27.5 8.5z" />
<glyph unicode="&#xa2;" horiz-adv-x="954" d="M301 461q-36 -186 30.5 -290.5t211.5 -104.5q139 0 266 114q18 15 29.5 16t23.5 -14q21 -27 -12 -57q-127 -118 -283 -131l-20 -100q-5 -25 -11.5 -31t-31.5 -6t-30 6t-1 31l21 100q-160 11 -234.5 129t-34.5 326l25 126q40 207 160 325t284 130l21 100q5 25 11.5 31 t31.5 6t30 -6t0 -31l-20 -100q150 -16 233 -131q21 -31 -12 -57q-19 -15 -29.5 -14t-21.5 16q-84 114 -223 114q-145 0 -251 -104.5t-142 -290.5z" />
<glyph unicode="&#xa3;" horiz-adv-x="933" d="M481 754h289q25 0 31 -6.5t0 -30.5q-6 -25 -13 -31t-32 -6h-289q-25 0 -31.5 -6t-11.5 -31l-105 -532q-5 -25 0 -31t29 -6h508q25 0 30 -6t1 -31q-5 -25 -11.5 -31t-31.5 -6h-586q-25 0 -30 6t-1 31l121 618q3 15 -4.5 20t-28.5 5h-73q-25 0 -30 6t1 31t12.5 31t30.5 6 h74q25 0 33 6t12 31l22 124q44 248 143 370.5t251 146.5q30 4 37.5 -2.5t5.5 -28.5q0 -20 -7.5 -28t-25.5 -11q-125 -25 -203 -122.5t-121 -321.5l-24 -127q-5 -25 -0.5 -31t28.5 -6z" />
<glyph unicode="&#xa5;" horiz-adv-x="1110" d="M573 297q5 25 0 31t-30 6h-97q-24 0 -28.5 6t0.5 31t11.5 31t31.5 6h96q25 0 33 6t12 30l10 60q3 22 -2 27.5t-28 5.5h-97q-24 0 -28.5 5.5t0.5 30.5t11.5 31t31.5 6h96q25 0 33 6t12 31l10 58l-274 688q-7 18 1.5 29.5t24.5 11.5h9q24 0 31 -4t14 -25l241 -604 q3 -7 11 -7t14 7l475 604q17 21 25 25t32 4h9q16 0 19.5 -11t-9.5 -30l-545 -688l-10 -58q-5 -25 0 -31t29 -6h96q25 0 30 -6t0 -31q-4 -24 -12 -30t-33 -6h-96q-23 0 -31 -5.5t-12 -27.5l-10 -60q-5 -25 -0.5 -30.5t29.5 -5.5h96q25 0 30 -6t1 -31t-12 -31t-33 -6h-97 q-25 0 -31.5 -6t-11.5 -31l-51 -258q-5 -26 -12 -32.5t-33 -6.5t-31.5 6.5t-1.5 32.5z" />
<glyph unicode="&#xa7;" horiz-adv-x="907" d="M301 760q7 72 51.5 131.5t112.5 95.5q-96 73 -86 182q15 119 115.5 196t236.5 77q129 0 248 -70q15 -10 14.5 -19t-14.5 -28q-15 -22 -25 -24.5t-30 10.5q-92 57 -207 57q-107 0 -176 -53t-84 -125q-9 -47 13.5 -85t65 -64t96 -50t107 -50.5t97 -57.5t68 -77.5 t18.5 -105.5q-9 -75 -49.5 -136.5t-104.5 -100.5q84 -74 74 -172q-15 -135 -122.5 -217t-270.5 -82q-165 0 -306 84q-17 9 -18 19t14 32q14 20 25.5 23t34.5 -9q139 -75 264 -75q120 0 200 52t97 140q9 48 -6.5 86.5t-48.5 64t-77 49.5t-91.5 42.5t-92 43.5t-79 52.5 t-52.5 69.5t-12 94zM379 780q-9 -43 6.5 -77t54 -60.5t77 -46t96.5 -45t92 -45.5q114 52 135 162q7 39 -2.5 71.5t-28.5 54.5t-54.5 44.5t-65 36t-75.5 34.5t-73 35q-68 -21 -110.5 -66t-51.5 -98z" />
<glyph unicode="&#xa8;" horiz-adv-x="538" d="M651 1612q6 28 28 46.5t50 18.5t42.5 -18.5t8.5 -46.5t-28 -46t-50 -18t-42.5 18t-8.5 46zM383 1612q6 28 28 46.5t50 18.5t42.5 -18.5t8.5 -46.5t-28 -46t-50 -18t-42.5 18t-8.5 46z" />
<glyph unicode="&#xa9;" horiz-adv-x="1763" d="M303 717q28 146 111 279.5t198 229.5t259 153t290 57q117 0 219.5 -36.5t176.5 -102t125 -156t64 -197.5t-7 -227q-38 -195 -166.5 -360.5t-312 -261t-377.5 -95.5q-146 0 -268 56.5t-200 152.5t-109.5 229t-2.5 279zM367 715q-34 -177 24 -327.5t191.5 -238.5t310.5 -88 t344.5 88t284.5 238.5t151 327.5q27 133 -1.5 253.5t-99 208t-181.5 139.5t-244 52q-177 0 -344 -87.5t-284 -238t-152 -327.5zM645 782q41 219 173 338t308 119q84 0 154.5 -34.5t114.5 -98.5q22 -31 -11 -57q-19 -15 -30.5 -14t-22.5 16q-81 114 -221 114 q-145 0 -251.5 -104.5t-141.5 -290.5l-21 -102q-36 -186 29.5 -291t210.5 -105q138 0 266 115q18 15 29.5 16t23.5 -14q23 -26 -10 -57q-70 -64 -153.5 -98.5t-167.5 -34.5q-176 0 -261 118.5t-42 337.5z" />
<glyph unicode="&#xaa;" horiz-adv-x="632" d="M557 1227q87 -6 139 -64l13 66q13 71 -20 112t-97 41q-72 0 -129 -49q-16 -16 -29 0l-8 10q-10 13 6 27q73 66 172 66q84 0 133.5 -53.5t32.5 -137.5l-74 -373q-2 -20 -32 -20q-15 0 -20.5 3.5t-4.5 16.5l8 37q-72 -55 -164 -61q-87 -6 -139 43.5t-33 144.5 q18 95 90 145.5t156 45.5zM504 895q83 9 151 63l31 156q-56 56 -127 64q-70 6 -124 -29.5t-68 -112.5t26 -112t111 -29z" />
<glyph unicode="&#xab;" horiz-adv-x="972" d="M244 489q-19 22 8 46l393 321q12 10 21.5 6t7.5 -18l-6 -25q0 -1 -1 -5.5t-1.5 -5.5t-1.5 -4.5t-1.5 -5t-2 -4.5t-3.5 -5t-4.5 -5t-6 -6t-7.5 -6l-305 -248q-14 -11 -4 -24l207 -248q11 -14 13 -24.5t-1 -22.5l-4 -25q-2 -12 -14 -17t-21 5zM604 489q-19 22 8 46l394 321 q12 10 21 6t7 -18l-6 -25q0 -1 -1 -5.5t-1.5 -5.5t-1.5 -4.5t-1.5 -5t-2 -4.5t-3.5 -5t-4.5 -5t-6 -6t-7.5 -6l-305 -248q-14 -11 -4 -24l207 -248q11 -14 13 -24.5t-1 -22.5l-4 -25q-2 -14 -14 -18t-21 6z" />
<glyph unicode="&#xad;" horiz-adv-x="1206" d="M1167 526h-927q-24 0 -29 6t0 31t11.5 31t31.5 6h928q25 0 30 -6t0 -31q-4 -25 -12 -31t-33 -6z" />
<glyph unicode="&#xae;" horiz-adv-x="1763" d="M303 717q28 146 111 279.5t198 229.5t259 153t290 57q117 0 219.5 -36.5t176.5 -102t125 -156t64 -197.5t-7 -227q-38 -195 -166.5 -360.5t-312 -261t-377.5 -95.5q-146 0 -268 56.5t-200 152.5t-109.5 229t-2.5 279zM367 715q-34 -177 24 -327.5t191.5 -238.5t310.5 -88 t344.5 88t284.5 238.5t151 327.5q27 133 -1.5 253.5t-99 208t-181.5 139.5t-244 52q-177 0 -344 -87.5t-284 -238t-152 -327.5zM1108 1217q159 0 227 -71.5t43 -199.5q-20 -110 -94 -177.5t-197 -84.5l158 -395q4 -10 -1.5 -18.5t-14.5 -8.5h-25q-15 0 -18.5 3t-9.5 18 l-158 395h-176q-20 0 -24 -3.5t-9 -25.5l-70 -360q-5 -27 -32 -27h-13q-14 0 -18.5 6t-1.5 21l174 901q6 27 33 27h227zM901 1120l-70 -352q-3 -19 0 -22t23 -3h174q251 0 289 203q20 97 -29.5 151t-179.5 54h-174q-20 0 -24 -4t-9 -27z" />
<glyph unicode="&#xaf;" horiz-adv-x="530" d="M342 1593q4 21 13.5 27t33.5 6h383q25 0 32 -6t3 -27t-13 -26.5t-34 -5.5h-383q-25 0 -32 5.5t-3 26.5z" />
<glyph unicode="&#xb0;" horiz-adv-x="626" d="M508 1020q-85 0 -135 62t-33 147q17 88 91 150.5t159 62.5q88 0 138.5 -62.5t33.5 -150.5q-17 -85 -92 -147t-162 -62zM399 1229q-12 -61 23.5 -105.5t97.5 -44.5q61 0 113.5 44t64.5 106q12 61 -23 105t-97 44t-114.5 -44t-64.5 -105z" />
<glyph unicode="&#xb2;" horiz-adv-x="499" d="M528 1440q61 2 98 -36.5t25 -103.5q-8 -40 -40 -77t-72.5 -67t-81 -61t-72.5 -72t-41 -87l-2 -10q-2 -14 0 -16.5t14 -2.5h201q15 0 12 -16l-4 -23q-3 -16 -20 -16h-260q-10 0 -13.5 3.5t-1.5 12.5l15 72q9 46 34 86.5t56.5 68.5t67.5 56t67 49.5t54.5 47.5t29.5 52 q10 44 -15 66t-65 20t-84 -36q-15 -10 -22 0l-13 14q-6 10 6 22q58 51 127 54z" />
<glyph unicode="&#xb3;" horiz-adv-x="524" d="M469 1133q-15 0 -12 16l4 22q3 17 18 17q80 0 115 61q29 49 8 94q-19 43 -72 43q-51 0 -106 -43q-14 -11 -25 3l-10 14q-9 11 4 24q58 55 139 58t117 -50.5t15 -122.5t-86 -108q43 -29 48.5 -83.5t-19.5 -106t-82 -89t-126 -34.5q-80 3 -118 57q-8 14 6 25l16 14 q17 13 25 2q38 -40 90 -43q76 -2 122 62q40 55 24 108q-17 60 -95 60z" />
<glyph unicode="&#xb4;" horiz-adv-x="348" d="M385 1571q-23 -17 -30.5 -18.5t-16.5 8.5q-9 11 -5.5 18.5t23.5 26.5l254 225q22 18 30.5 18t21.5 -16q14 -15 12 -24.5t-23 -26.5z" />
<glyph unicode="&#xb6;" horiz-adv-x="1644" d="M1135 -557l364 1880q5 25 0 31t-29 6h-366q-23 0 -32 -7t-13 -30l-365 -1880q-6 -26 -13.5 -32.5t-33.5 -6.5t-31.5 6.5t0.5 32.5l207 1063q9 51 2.5 59t-57.5 8h-150q-175 0 -276 125.5t-66 305.5q34 176 175 303t307 127h1046q24 0 29 -6t0 -31t-11.5 -31t-31.5 -6 h-168q-25 0 -33 -6t-12 -31l-365 -1880q-6 -26 -13.5 -32.5t-33.5 -6.5t-31 6.5t1 32.5z" />
<glyph unicode="&#xb7;" horiz-adv-x="376" d="M266 754q6 29 29.5 49t52.5 20t45 -20t10 -49t-29 -48.5t-52 -19.5t-45.5 19.5t-10.5 48.5z" />
<glyph unicode="&#xb8;" horiz-adv-x="468" d="M41 -236l-6 3q-15 5 -18 9.5t3 18.5l117 232h68l-78 -158q78 35 137 22.5t89.5 -64t17.5 -118.5q-9 -46 -35.5 -85.5t-63 -64.5t-77.5 -38.5t-82.5 -9.5t-73.5 26q-13 8 -2 25l12 18q12 19 29 10q70 -33 139.5 6.5t83.5 110.5q8 43 -11.5 77.5t-54 48t-80.5 0t-85 -57.5 q-12 -15 -29 -11z" />
<glyph unicode="&#xb9;" horiz-adv-x="432" d="M313 1311l138 114q9 9 22 9h25q15 0 12 -17l-107 -549q-3 -16 -20 -16h-29q-15 0 -12 16l92 480l-88 -76q-15 -12 -24 0l-13 16q-9 12 4 23z" />
<glyph unicode="&#xba;" horiz-adv-x="667" d="M793 1178l-13 -70q-22 -124 -101 -192t-181 -68q-101 0 -152 67.5t-29 192.5l13 70q22 124 101 192t181 68q101 0 152 -67.5t29 -192.5zM508 905q85 0 139 60t80 192q45 223 -125 223q-85 0 -139 -60t-80 -192q-45 -223 125 -223z" />
<glyph unicode="&#xbb;" horiz-adv-x="972" d="M918 489l-394 -321q-12 -10 -20.5 -6t-5.5 18l4 25q0 2 1 7t1.5 6.5l2 6t3 6.5l4.5 6t7 7.5t9 7.5l306 248q14 11 4 24l-207 248q-18 22 -12 47l6 25q3 14 13 18t19 -6l267 -321q19 -22 -8 -46zM557 489l-393 -321q-12 -10 -21 -6t-6 18l4 25q0 1 1 5.5t1.5 5.5t1.5 4.5 t1.5 5t2 4.5t3.5 5t4.5 5t6 6t7.5 6l305 248q14 11 4 24l-207 248q-18 22 -12 47l6 25q3 14 13.5 18t19.5 -6l266 -321q19 -22 -8 -46z" />
<glyph unicode="&#xbc;" horiz-adv-x="1341" d="M449 41l561 1348q12 27 21.5 36t27.5 9q19 0 22 -11t-6 -30l-561 -1348q-12 -28 -21 -36.5t-26 -8.5q-34 0 -18 41zM1212 686l-348 -399q-4 -6 -2.5 -9.5t6.5 -3.5h269q9 0 12 13l76 395q2 6 -3.5 8t-9.5 -4zM1161 23q-6 -23 -26 -23h-17q-26 0 -20 23l35 184q3 12 -9 12 h-331q-12 0 -16 5t-3 18q2 26 21 45l446 514q13 16 33 16h18q22 0 19 -22l-99 -508q-3 -13 11 -13h26q23 0 17 -22l-2 -10q-5 -23 -27 -23h-27q-11 0 -14 -12zM377 1262l194 161q13 11 25 11h16q23 0 17 -23l-150 -772q-3 -23 -26 -23h-17q-23 0 -20 23l135 696l-141 -116 q-11 -8 -16.5 -8t-14.5 10l-8 10q-7 11 -6 16.5t12 14.5z" />
<glyph unicode="&#xbd;" horiz-adv-x="1329" d="M449 41l561 1348q12 27 21.5 36t27.5 9q19 0 22 -11t-6 -30l-561 -1348q-12 -28 -21 -36.5t-26 -8.5q-34 0 -18 41zM1157 817q84 0 132.5 -53t31.5 -137q-9 -44 -43 -88t-79 -78t-97 -75t-97 -78.5t-80 -89t-46 -105.5l-7 -33q-3 -19 -0.5 -22t21.5 -3h299q26 0 20 -22 l-2 -10q-6 -23 -28 -23h-363q-24 0 -18 23l18 100q13 66 61 129.5t107.5 111t119 91.5t103.5 88.5t52 83.5q11 60 -25.5 97.5t-93.5 37.5q-69 0 -131 -53q-19 -14 -33 0l-6 6q-14 14 8 33q78 69 176 69zM377 1262l194 161q13 11 25 11h16q12 0 16 -5t1 -18l-150 -772 q-6 -23 -26 -23h-17q-26 0 -20 23l135 696l-141 -116q-11 -8 -16.5 -8t-14.5 10l-8 10q-7 11 -6 16.5t12 14.5z" />
<glyph unicode="&#xbe;" horiz-adv-x="1521" d="M629 41l561 1348q12 27 21.5 36t27.5 9q19 0 22 -11t-6 -30l-561 -1348q-12 -28 -21 -36.5t-26 -8.5q-34 0 -18 41zM678 858q13 69 -13.5 118.5t-89.5 49.5q-13 0 -16.5 5t-1.5 18l2 14q3 22 29 22q57 0 95 41.5t50 98.5q14 78 -26.5 118.5t-112.5 40.5q-80 0 -143 -55 q-17 -14 -31 0l-8 8q-15 15 8 33q78 72 184 72q96 0 153 -57.5t38 -159.5q-19 -103 -115 -168q39 -31 55.5 -82t3.5 -117q-22 -115 -106.5 -178.5t-188.5 -63.5q-121 0 -178 78q-11 18 8 37l7 6q21 21 34 -2q46 -63 140 -63q79 0 142 49t81 137zM1393 686l-349 -399 q-4 -6 -2 -9.5t7 -3.5h268q9 0 12 13l76 395q2 6 -3 8t-9 -4zM1341 23q-6 -23 -26 -23h-17q-26 0 -20 23l35 184q3 12 -8 12h-332q-12 0 -16 5t-3 18q2 26 21 45l446 514q13 16 33 16h19q21 0 18 -22l-98 -508q-3 -13 10 -13h27q22 0 16 -22l-2 -10q-5 -23 -27 -23h-26 q-12 0 -15 -12z" />
<glyph unicode="&#xbf;" horiz-adv-x="864" d="M719 963q-6 -29 -29.5 -49.5t-52.5 -20.5t-45 20.5t-10 49.5t29.5 48t52.5 19t45 -19t10 -48zM621 604q-17 -89 -48.5 -161t-68 -120t-77.5 -87.5t-80.5 -73t-73 -67t-59.5 -79t-36 -100.5q-23 -116 37.5 -189t175.5 -73q72 0 131 27t121 81q22 19 32 19t23 -17 q12 -11 10.5 -22t-20.5 -27q-77 -71 -150.5 -103t-160.5 -32q-140 0 -222.5 93t-52.5 243q12 64 39 115.5t61 87t73 69t79 71t76 82t66 112.5t47 153l4 21q4 26 12 32.5t35 6.5q26 0 31 -6t0 -33z" />
<glyph unicode="&#xc0;" horiz-adv-x="1249" d="M428 422q-20 0 -28 -5t-19 -24l-193 -352q-14 -29 -24 -35t-35 -6q-42 0 -20 41l733 1352q16 28 27 34.5t34 6.5q16 0 23 -1.5t13 -10.5t9 -29l205 -1352q7 -41 -33 -41q-25 0 -33 6t-14 35l-53 352q-3 19 -9 24t-26 5h-557zM891 1307q-1 11 -11 11t-14 -11l-420 -789 q-6 -12 -2 -17t13 -5h528q22 0 19 22zM1026 1595l-184 211q-14 17 -12.5 27t20.5 25q18 16 28 15.5t23 -18.5l168 -225q12 -19 12.5 -26.5t-12.5 -18.5q-12 -11 -20 -9t-23 19z" />
<glyph unicode="&#xc1;" horiz-adv-x="1249" d="M428 422q-20 0 -28 -5t-19 -24l-193 -352q-14 -29 -24 -35t-35 -6q-42 0 -20 41l733 1352q16 28 27 34.5t34 6.5q16 0 23 -1.5t13 -10.5t9 -29l205 -1352q7 -41 -33 -41q-25 0 -33 6t-14 35l-53 352q-3 19 -9 24t-26 5h-557zM891 1307q-1 11 -11 11t-14 -11l-420 -789 q-6 -12 -2 -17t13 -5h528q22 0 19 22zM844 1595q-23 -17 -30.5 -18.5t-16.5 8.5q-9 11 -5.5 18.5t23.5 26.5l254 225q21 18 30.5 18.5t20.5 -15.5q14 -14 12.5 -24.5t-22.5 -27.5z" />
<glyph unicode="&#xc2;" horiz-adv-x="1249" d="M428 422q-20 0 -28 -5t-19 -24l-193 -352q-14 -29 -24 -35t-35 -6q-42 0 -20 41l733 1352q16 28 27 34.5t34 6.5q16 0 23 -1.5t13 -10.5t9 -29l205 -1352q7 -41 -33 -41q-25 0 -33 6t-14 35l-53 352q-3 19 -9 24t-26 5h-557zM891 1307q-1 11 -11 11t-14 -11l-420 -789 q-6 -12 -2 -17t13 -5h528q22 0 19 22zM963 1849q23 20 41 0l176 -207q14 -18 11.5 -27.5t-20.5 -23.5q-19 -15 -27.5 -15.5t-23.5 17.5l-141 191q-8 10 -21 0l-215 -191q-21 -18 -30.5 -17.5t-20.5 15.5q-12 13 -10 24t23 27z" />
<glyph unicode="&#xc3;" horiz-adv-x="1249" d="M428 422q-20 0 -28 -5t-19 -24l-193 -352q-14 -29 -24 -35t-35 -6q-42 0 -20 41l733 1352q16 28 27 34.5t34 6.5q16 0 23 -1.5t13 -10.5t9 -29l205 -1352q7 -41 -33 -41q-25 0 -33 6t-14 35l-53 352q-3 19 -9 24t-26 5h-557zM891 1307q-1 11 -11 11t-14 -11l-420 -789 q-6 -12 -2 -17t13 -5h528q22 0 19 22zM1057 1577q-37 0 -71.5 17t-55.5 37.5t-49.5 37.5t-55.5 17t-56 -18t-42.5 -32.5t-38.5 -44.5q-15 -18 -35 -6l-12 8q-15 12 -2 31q97 123 195 123q37 0 70.5 -17t54.5 -37.5t49 -37.5t55 -17t55.5 17.5t44.5 34.5t37 43q18 18 35 6 l12 -8q17 -14 2 -31q-97 -123 -192 -123z" />
<glyph unicode="&#xc4;" horiz-adv-x="1249" d="M428 422q-20 0 -28 -5t-19 -24l-193 -352q-14 -29 -24 -35t-35 -6q-42 0 -20 41l733 1352q16 28 27 34.5t34 6.5q16 0 23 -1.5t13 -10.5t9 -29l205 -1352q7 -41 -33 -41q-25 0 -33 6t-14 35l-53 352q-3 19 -9 24t-26 5h-557zM891 1307q-1 11 -11 11t-14 -11l-420 -789 q-6 -12 -2 -17t13 -5h528q22 0 19 22zM1010 1640q6 28 28 47t49 19q28 0 43 -19t9 -47t-28 -45.5t-50 -17.5t-42.5 17.5t-8.5 45.5zM741 1640q6 28 28 47t50 19t42.5 -19t8.5 -47t-27.5 -45.5t-49.5 -17.5t-43 18t-9 45z" />
<glyph unicode="&#xc5;" horiz-adv-x="1249" d="M428 422q-20 0 -28 -5t-19 -24l-193 -352q-14 -29 -24 -35t-35 -6q-42 0 -20 41l733 1352q16 28 27 34.5t34 6.5q16 0 23 -1.5t13 -10.5t9 -29l205 -1352q7 -41 -33 -41q-25 0 -33 6t-14 35l-53 352q-3 19 -9 24t-26 5h-557zM891 1307q-1 11 -11 11t-14 -11l-420 -789 q-6 -12 -2 -17t13 -5h528q22 0 19 22zM856 1737q-9 -43 16 -74t68 -31t79.5 31t45.5 74q8 43 -16.5 73.5t-67.5 30.5t-80.5 -31t-44.5 -73zM801 1737q12 67 67 114t123 47q67 0 105 -46.5t26 -114.5q-14 -67 -69 -113.5t-123 -46.5t-105 46.5t-24 113.5z" />
<glyph unicode="&#xc6;" horiz-adv-x="1517" d="M698 385q5 25 0.5 31t-28.5 6h-242q-21 0 -29 -4.5t-18 -24.5l-193 -352q-14 -29 -24 -35t-35 -6q-42 0 -20 41l733 1352q16 28 27 34.5t34 6.5h721q24 0 29 -6t0 -31t-11.5 -31t-31.5 -6h-606q-25 0 -33.5 -6.5t-12.5 -30.5l-96 -494q-4 -24 1 -30t30 -6h504 q24 0 28.5 -6t-0.5 -31t-11.5 -31t-31.5 -6h-503q-25 0 -33 -6t-12 -31l-111 -571q-5 -25 0 -31t29 -6h606q25 0 30 -6t1 -31q-5 -25 -11.5 -31t-31.5 -6h-684q-25 0 -30 6t-1 31zM684 496q25 0 32 5.5t11 30.5l152 785q-8 0 -13 -10l-420 -789q-11 -22 11 -22h227z" />
<glyph unicode="&#xc7;" horiz-adv-x="1226" d="M485 -236l-6 3q-15 5 -17.5 9.5t3.5 18.5l104 209q-187 41 -273.5 202.5t-35.5 422.5l35 176q30 154 97 276t158.5 200.5t201 119.5t229.5 41q228 0 362 -166q13 -17 11.5 -25.5t-21.5 -25.5t-30 -17t-25 19q-58 72 -130 106.5t-181 34.5q-224 0 -383.5 -150.5 t-212.5 -426.5l-29 -148q-55 -276 47 -426.5t326 -150.5q108 0 192.5 34.5t171.5 106.5q22 19 32.5 19t23.5 -17q14 -17 12 -25.5t-23 -25.5q-196 -166 -424 -166q-21 0 -67 4l-62 -127q78 35 137 22.5t89.5 -64t17.5 -118.5q-9 -46 -35.5 -85.5t-63 -64.5t-77.5 -38.5 t-82.5 -9.5t-73.5 26q-13 8 -2 25l13 18q7 11 13 13t15 -3q70 -33 139.5 6.5t83.5 110.5q8 43 -11.5 77.5t-54 48t-80.5 0t-85 -57.5q-12 -15 -29 -11z" />
<glyph unicode="&#xc8;" horiz-adv-x="1114" d="M492 1397q4 25 12 31t33 6h684q24 0 28.5 -6t-0.5 -31t-11.5 -31t-31.5 -6h-606q-25 0 -33 -6t-12 -31l-96 -494q-4 -25 0.5 -30.5t29.5 -5.5h504q24 0 29 -6t0 -31t-11.5 -31t-31.5 -6h-504q-25 0 -33 -6t-12 -31l-111 -571q-5 -25 0 -31t29 -6h606q25 0 30 -6t1 -31 q-5 -25 -11.5 -31t-31.5 -6h-684q-25 0 -30 6t-1 31zM977 1595l-184 211q-14 17 -12.5 27t20.5 25q18 16 28 15.5t23 -18.5l168 -225q12 -19 12.5 -26.5t-12.5 -18.5q-12 -11 -20 -9t-23 19z" />
<glyph unicode="&#xc9;" horiz-adv-x="1114" d="M492 1397q4 25 12 31t33 6h684q24 0 28.5 -6t-0.5 -31t-11.5 -31t-31.5 -6h-606q-25 0 -33 -6t-12 -31l-96 -494q-4 -25 0.5 -30.5t29.5 -5.5h504q24 0 29 -6t0 -31t-11.5 -31t-31.5 -6h-504q-25 0 -33 -6t-12 -31l-111 -571q-5 -25 0 -31t29 -6h606q25 0 30 -6t1 -31 q-5 -25 -11.5 -31t-31.5 -6h-684q-25 0 -30 6t-1 31zM834 1595q-23 -17 -31 -19t-17 9q-8 11 -5 18.5t24 26.5l254 225q21 18 30.5 18.5t20.5 -15.5q14 -14 12.5 -24.5t-22.5 -27.5z" />
<glyph unicode="&#xca;" horiz-adv-x="1114" d="M492 1397q4 25 12 31t33 6h684q24 0 28.5 -6t-0.5 -31t-11.5 -31t-31.5 -6h-606q-25 0 -33 -6t-12 -31l-96 -494q-4 -25 0.5 -30.5t29.5 -5.5h504q24 0 29 -6t0 -31t-11.5 -31t-31.5 -6h-504q-25 0 -33 -6t-12 -31l-111 -571q-5 -25 0 -31t29 -6h606q25 0 30 -6t1 -31 q-5 -25 -11.5 -31t-31.5 -6h-684q-25 0 -30 6t-1 31zM936 1849q23 20 41 0l176 -207q14 -18 12 -27.5t-20 -23.5q-19 -15 -27.5 -15.5t-23.5 17.5l-142 191q-7 6 -10 6t-10 -6l-215 -191q-21 -18 -30.5 -17.5t-20.5 15.5q-12 12 -10 23.5t22 27.5z" />
<glyph unicode="&#xcb;" horiz-adv-x="1114" d="M492 1397q4 25 12 31t33 6h684q24 0 28.5 -6t-0.5 -31t-11.5 -31t-31.5 -6h-606q-25 0 -33 -6t-12 -31l-96 -494q-4 -25 0.5 -30.5t29.5 -5.5h504q24 0 29 -6t0 -31t-11.5 -31t-31.5 -6h-504q-25 0 -33 -6t-12 -31l-111 -571q-5 -25 0 -31t29 -6h606q25 0 30 -6t1 -31 q-5 -25 -11.5 -31t-31.5 -6h-684q-25 0 -30 6t-1 31zM983 1640q6 28 28 47t50 19t42.5 -19t8.5 -47t-28 -45.5t-50 -17.5t-42.5 17.5t-8.5 45.5zM715 1640q6 28 28 47t50 19t42.5 -19t8.5 -47t-28 -45.5t-50 -17.5t-42.5 17.5t-8.5 45.5z" />
<glyph unicode="&#xcc;" horiz-adv-x="520" d="M305 39q-5 -26 -12 -32.5t-33 -6.5t-31.5 6.5t-1.5 32.5l265 1356q4 26 12 32.5t35 6.5q26 0 30.5 -6.5t-0.5 -32.5zM659 1595l-184 211q-14 17 -12.5 27t20.5 25q18 16 28.5 15.5t23.5 -18.5l167 -225q12 -19 12.5 -26.5t-12.5 -18.5q-12 -11 -20 -9t-23 19z" />
<glyph unicode="&#xcd;" horiz-adv-x="520" d="M305 39q-5 -26 -12 -32.5t-33 -6.5t-31.5 6.5t-1.5 32.5l265 1356q4 26 12 32.5t35 6.5q26 0 30.5 -6.5t-0.5 -32.5zM475 1595q-23 -17 -30.5 -18.5t-16.5 8.5q-9 11 -5.5 18.5t23.5 26.5l254 225q21 18 31 18.5t21 -15.5q14 -15 12 -25t-23 -27z" />
<glyph unicode="&#xce;" horiz-adv-x="520" d="M305 39q-5 -26 -12 -32.5t-33 -6.5t-31.5 6.5t-1.5 32.5l265 1356q4 26 12 32.5t35 6.5q26 0 30.5 -6.5t-0.5 -32.5zM600 1849q23 20 41 0l176 -207q14 -18 12 -27.5t-20 -23.5q-19 -15 -27.5 -15.5t-23.5 17.5l-142 191q-7 6 -10 6t-10 -6l-215 -191 q-21 -18 -30.5 -17.5t-20.5 15.5q-12 12 -10 23.5t22 27.5z" />
<glyph unicode="&#xcf;" horiz-adv-x="520" d="M305 39q-5 -26 -12 -32.5t-33 -6.5t-31.5 6.5t-1.5 32.5l265 1356q4 26 12 32.5t35 6.5q26 0 30.5 -6.5t-0.5 -32.5zM647 1640q6 28 28 47t50 19t42.5 -19t8.5 -47t-28 -45.5t-50 -17.5t-42.5 17.5t-8.5 45.5zM379 1640q6 28 28 47t50 19t42.5 -19t8.5 -47t-28 -45.5 t-50 -17.5t-42.5 17.5t-8.5 45.5z" />
<glyph unicode="&#xd0;" horiz-adv-x="1351" d="M395 901q5 25 0.5 31t-28.5 6h-74q-25 0 -30 6t-1 31t12 31t33 6h74q25 0 31.5 6t11.5 31l68 348q4 25 12 31t33 6h391q120 0 214 -39t155.5 -118t80.5 -197t-10 -275l-35 -176q-30 -154 -96.5 -275t-157.5 -197.5t-200.5 -116.5t-229.5 -40h-391q-25 0 -30 6t-1 31z M473 901l-154 -790q-5 -25 0 -31t29 -6h314q225 0 384.5 146.5t213.5 422.5l28 148q53 276 -48.5 422.5t-326.5 146.5h-313q-25 0 -33 -6t-12 -31l-53 -274q-5 -25 0 -31t30 -6h173q24 0 28.5 -6t-0.5 -31t-11.5 -31t-31.5 -6h-172q-25 0 -33 -6t-12 -31z" />
<glyph unicode="&#xd1;" horiz-adv-x="1427" d="M539 1434q20 0 26 -3.5t13 -21.5l563 -1225q5 -10 12.5 -8t9.5 12l236 1207q4 26 12 32.5t35 6.5q26 0 31 -6t0 -33l-265 -1356q-5 -26 -12 -32.5t-33 -6.5q-20 0 -26 3.5t-15 21.5l-563 1224q-5 10 -12.5 8t-9.5 -12l-236 -1206q-5 -26 -12 -32.5t-33 -6.5t-31.5 6.5 t-1.5 32.5l265 1356q4 26 12 32.5t35 6.5zM1145 1577q-37 0 -71.5 17t-55.5 37.5t-49.5 37.5t-55.5 17t-56 -18t-42.5 -32.5t-38.5 -44.5q-15 -18 -35 -6l-12 8q-15 12 -2 31q97 123 195 123q37 0 70.5 -17t54.5 -37.5t49 -37.5t55 -17t55.5 17.5t44.5 34.5t37 43 q18 18 35 6l12 -8q17 -14 2 -31q-97 -123 -192 -123z" />
<glyph unicode="&#xd2;" horiz-adv-x="1404" d="M700 -8q-120 0 -214 40.5t-155.5 120.5t-81 199.5t10.5 276.5l35 176q30 154 97 276t158.5 200.5t201 119.5t229.5 41t214 -40.5t155.5 -120.5t81 -199.5t-10.5 -276.5l-35 -176q-30 -154 -97 -276t-158.5 -200.5t-201 -119.5t-229.5 -41zM967 1368q-224 0 -383.5 -150.5 t-212.5 -426.5l-29 -148q-55 -276 47 -426.5t326 -150.5t383.5 150t214.5 427l28 148q53 277 -48.5 427t-325.5 150zM1102 1595l-184 211q-14 17 -12.5 27t20.5 25q18 16 28 15.5t23 -18.5l168 -225q12 -19 12.5 -26.5t-12.5 -18.5q-12 -11 -20 -9t-23 19z" />
<glyph unicode="&#xd3;" horiz-adv-x="1404" d="M700 -8q-120 0 -214 40.5t-155.5 120.5t-81 199.5t10.5 276.5l35 176q30 154 97 276t158.5 200.5t201 119.5t229.5 41t214 -40.5t155.5 -120.5t81 -199.5t-10.5 -276.5l-35 -176q-30 -154 -97 -276t-158.5 -200.5t-201 -119.5t-229.5 -41zM967 1368q-224 0 -383.5 -150.5 t-212.5 -426.5l-29 -148q-55 -276 47 -426.5t326 -150.5t383.5 150t214.5 427l28 148q53 277 -48.5 427t-325.5 150zM969 1595q-23 -17 -30.5 -18.5t-16.5 8.5q-9 11 -5.5 18.5t23.5 26.5l254 225q21 18 30.5 18.5t20.5 -15.5q14 -14 12.5 -24.5t-22.5 -27.5z" />
<glyph unicode="&#xd4;" horiz-adv-x="1404" d="M700 -8q-120 0 -214 40.5t-155.5 120.5t-81 199.5t10.5 276.5l35 176q30 154 97 276t158.5 200.5t201 119.5t229.5 41t214 -40.5t155.5 -120.5t81 -199.5t-10.5 -276.5l-35 -176q-30 -154 -97 -276t-158.5 -200.5t-201 -119.5t-229.5 -41zM967 1368q-224 0 -383.5 -150.5 t-212.5 -426.5l-29 -148q-55 -276 47 -426.5t326 -150.5t383.5 150t214.5 427l28 148q53 277 -48.5 427t-325.5 150zM1040 1849q23 20 41 0l176 -207q14 -18 12 -27.5t-20 -23.5q-19 -15 -27.5 -15.5t-23.5 17.5l-141 191q-8 10 -21 0l-215 -191q-21 -18 -30.5 -17.5 t-20.5 15.5q-12 12 -10 23.5t22 27.5z" />
<glyph unicode="&#xd5;" horiz-adv-x="1404" d="M700 -8q-120 0 -214 40.5t-155.5 120.5t-81 199.5t10.5 276.5l35 176q30 154 97 276t158.5 200.5t201 119.5t229.5 41t214 -40.5t155.5 -120.5t81 -199.5t-10.5 -276.5l-35 -176q-30 -154 -97 -276t-158.5 -200.5t-201 -119.5t-229.5 -41zM967 1368q-224 0 -383.5 -150.5 t-212.5 -426.5l-29 -148q-55 -276 47 -426.5t326 -150.5t383.5 150t214.5 427l28 148q53 277 -48.5 427t-325.5 150zM1135 1577q-37 0 -70.5 17t-54.5 37.5t-49.5 37.5t-55.5 17q-20 0 -39 -8t-39 -26.5t-29 -28t-28 -32.5q-15 -18 -35 -6l-12 8q-15 12 -2 31 q97 123 192 123q37 0 70.5 -17t54.5 -37.5t49 -37.5t54 -17q27 0 55.5 17.5t44.5 34.5t37 43q15 18 33 6l12 -8q17 -14 2 -31q-95 -123 -190 -123z" />
<glyph unicode="&#xd6;" horiz-adv-x="1404" d="M700 -8q-120 0 -214 40.5t-155.5 120.5t-81 199.5t10.5 276.5l35 176q30 154 97 276t158.5 200.5t201 119.5t229.5 41t214 -40.5t155.5 -120.5t81 -199.5t-10.5 -276.5l-35 -176q-30 -154 -97 -276t-158.5 -200.5t-201 -119.5t-229.5 -41zM967 1368q-224 0 -383.5 -150.5 t-212.5 -426.5l-29 -148q-55 -276 47 -426.5t326 -150.5t383.5 150t214.5 427l28 148q53 277 -48.5 427t-325.5 150zM1087 1640q6 28 28 47t50 19t43 -19t9 -47t-28 -45.5t-50 -17.5t-43 18t-9 45zM819 1640q6 28 28 47t50 19t42.5 -19t8.5 -47t-28 -45.5t-50 -17.5 t-42.5 17.5t-8.5 45.5z" />
<glyph unicode="&#xd7;" horiz-adv-x="761" d="M588 766q-12 -10 -4 -21l166 -204q13 -21 -9 -41l-10 -8q-13 -12 -21.5 -12t-19.5 12l-164 204q-10 10 -20 0l-246 -204q-24 -22 -43 0l-8 10q-15 18 12 39l242 204q12 10 4 21l-162 205q-10 12 -8.5 20.5t16.5 20.5l9 8q15 12 23 12t17 -12l166 -203q8 -11 21 0l244 205 q28 20 43 0l8 -8q15 -21 -8 -41z" />
<glyph unicode="&#xd8;" horiz-adv-x="1404" d="M250 41l84 104q-134 169 -74 484l35 176q30 154 97 276t158.5 200.5t201 119.5t229.5 41q198 0 315 -105l43 52q29 34 39 39.5t41 5.5q16 0 20 -11t-9 -30l-84 -105q135 -170 75 -483l-35 -176q-30 -154 -97 -276t-158.5 -200.5t-201 -119.5t-229.5 -41q-200 0 -319 104 l-41 -51q-26 -34 -36 -39.5t-42 -5.5q-16 0 -20.5 11t8.5 30zM1341 791q52 279 -53 430l-854 -1059q104 -96 281 -96q224 0 383.5 150t214.5 427zM967 1368q-224 0 -383.5 -150.5t-212.5 -426.5l-29 -148q-55 -280 49 -430l854 1059q-104 96 -278 96z" />
<glyph unicode="&#xd9;" horiz-adv-x="1343" d="M670 -8q-48 0 -93 7t-91.5 24.5t-83.5 45.5t-69 70t-46.5 99t-18 132t16.5 169l166 854q4 23 15 32t34 9q19 -2 25 -10.5t3 -30.5l-168 -863q-22 -105 -11.5 -183t38.5 -131.5t76.5 -87t103 -48t117.5 -14.5t123 14.5t121.5 48.5t111 86t89 133t59.5 182l168 863 q3 22 12.5 31t32.5 10q23 0 30.5 -9t2.5 -32l-166 -854q-25 -127 -75.5 -225.5t-110.5 -157.5t-134.5 -97.5t-141.5 -52.5t-136 -14zM1030 1595l-184 211q-14 17 -12.5 27t20.5 25q18 16 28 15.5t23 -18.5l168 -225q12 -19 12.5 -26.5t-12.5 -18.5q-12 -11 -20 -9t-23 19z " />
<glyph unicode="&#xda;" horiz-adv-x="1343" d="M670 -8q-48 0 -93 7t-91.5 24.5t-83.5 45.5t-69 70t-46.5 99t-18 132t16.5 169l166 854q4 23 15 32t34 9q19 -2 25 -10.5t3 -30.5l-168 -863q-22 -105 -11.5 -183t38.5 -131.5t76.5 -87t103 -48t117.5 -14.5t123 14.5t121.5 48.5t111 86t89 133t59.5 182l168 863 q3 22 12.5 31t32.5 10q23 0 30.5 -9t2.5 -32l-166 -854q-25 -127 -75.5 -225.5t-110.5 -157.5t-134.5 -97.5t-141.5 -52.5t-136 -14zM928 1595q-23 -17 -30.5 -18.5t-16.5 8.5q-9 11 -5.5 18.5t23.5 26.5l254 225q21 18 30.5 18.5t20.5 -15.5q14 -14 12.5 -24.5t-22.5 -27.5 z" />
<glyph unicode="&#xdb;" horiz-adv-x="1343" d="M670 -8q-48 0 -93 7t-91.5 24.5t-83.5 45.5t-69 70t-46.5 99t-18 132t16.5 169l166 854q4 23 15 32t34 9q19 -2 25 -10.5t3 -30.5l-168 -863q-22 -105 -11.5 -183t38.5 -131.5t76.5 -87t103 -48t117.5 -14.5t123 14.5t121.5 48.5t111 86t89 133t59.5 182l168 863 q3 22 12.5 31t32.5 10q23 0 30.5 -9t2.5 -32l-166 -854q-25 -127 -75.5 -225.5t-110.5 -157.5t-134.5 -97.5t-141.5 -52.5t-136 -14zM1010 1849q23 20 41 0l176 -207q14 -18 12 -27.5t-20 -23.5q-19 -15 -28 -15.5t-24 17.5l-141 191q-7 6 -10 6t-10 -6l-215 -191 q-21 -18 -31 -17.5t-21 15.5q-12 13 -10 24t23 27z" />
<glyph unicode="&#xdc;" horiz-adv-x="1343" d="M670 -8q-48 0 -93 7t-91.5 24.5t-83.5 45.5t-69 70t-46.5 99t-18 132t16.5 169l166 854q4 23 15 32t34 9q19 -2 25 -10.5t3 -30.5l-168 -863q-22 -105 -11.5 -183t38.5 -131.5t76.5 -87t103 -48t117.5 -14.5t123 14.5t121.5 48.5t111 86t89 133t59.5 182l168 863 q3 22 12.5 31t32.5 10q23 0 30.5 -9t2.5 -32l-166 -854q-25 -127 -75.5 -225.5t-110.5 -157.5t-134.5 -97.5t-141.5 -52.5t-136 -14zM1057 1640q6 28 28 47t50 19t42.5 -19t8.5 -47t-28 -45.5t-50 -17.5t-42.5 17.5t-8.5 45.5zM788 1640q6 28 28 47t50 19t43 -19t9 -47 t-28 -45.5t-50 -17.5t-43 18t-9 45z" />
<glyph unicode="&#xdd;" horiz-adv-x="1110" d="M600 39q-5 -26 -12 -32.5t-33 -6.5t-31.5 6.5t-1.5 32.5l129 666l-274 688q-7 18 1.5 29.5t24.5 11.5h9q24 0 31 -4t14 -25l241 -604q3 -7 11 -7t14 7l475 604q17 21 25 25t32 4h9q16 0 19.5 -12t-9.5 -29l-545 -688zM811 1595q-23 -17 -30.5 -18.5t-16.5 8.5 q-9 11 -5.5 18.5t23.5 26.5l254 225q21 18 30.5 18.5t20.5 -15.5q14 -14 12.5 -24.5t-22.5 -27.5z" />
<glyph unicode="&#xde;" horiz-adv-x="1142" d="M492 1395q4 26 12 32.5t35 6.5q26 0 30.5 -6.5t-0.5 -32.5l-39 -201q-5 -25 0 -31t29 -6h240q234 0 329 -121.5t56 -320.5t-181 -321t-376 -122h-240q-25 0 -32 -5.5t-11 -30.5l-39 -197q-5 -26 -12 -32.5t-33 -6.5t-31.5 6.5t-1.5 32.5zM545 1083q-25 0 -32 -5.5 t-11 -30.5l-129 -664q-5 -25 -0.5 -31t28.5 -6h234q107 0 192 29t141 80.5t90.5 116.5t49.5 143q10 61 9 115.5t-23.5 101t-61 80t-103.5 52.5t-151 19h-233z" />
<glyph unicode="&#xdf;" horiz-adv-x="1013" d="M223 37q-5 -25 -11.5 -31t-31.5 -6t-30 6t0 31l196 1014q43 220 203 325q124 81 267 64q127 -16 194 -102q63 -82 41 -197q-11 -59 -40 -113t-63 -93.5t-67 -75t-58.5 -72t-31.5 -70.5q-10 -47 9.5 -87t52 -71t65 -64t50.5 -81t7 -107q-39 -188 -295 -293 q-26 -9 -35 -4.5t-12 25.5q-2 14 -1.5 23.5t8.5 16t28 13.5q203 75 233 219q7 34 -2 64.5t-28 52t-43 46t-47.5 46t-41 52t-24.5 65.5t2 84q9 47 35.5 90t59 77.5t65.5 69.5t60.5 81.5t37.5 97.5q23 118 -61 186q-75 61 -188 47q-129 -15 -216 -119q-67 -80 -90 -198z" />
<glyph unicode="&#xe0;" d="M788 37l19 98q-141 -133 -289 -143q-170 -12 -253 111.5t-40 345.5l25 126q43 222 174 345.5t295 111.5q144 -10 235 -143l19 98q4 25 12 31t33 6q24 0 29 -6t0 -31l-185 -950q-5 -25 -11.5 -31t-31.5 -6t-30 6t-1 31zM823 211l117 602q-39 67 -99 104.5t-134 40.5 q-137 6 -241.5 -92.5t-139.5 -277.5l-29 -152q-35 -179 31.5 -277.5t206.5 -92.5q152 6 288 145zM836 1186l-267 211q-21 17 -22.5 27t12.5 24q13 16 21 16t30 -18l254 -225q21 -19 24 -26.5t-5 -18.5q-9 -10 -16.5 -8.5t-30.5 18.5z" />
<glyph unicode="&#xe1;" d="M788 37l19 98q-141 -133 -289 -143q-170 -12 -253 111.5t-40 345.5l25 126q43 222 174 345.5t295 111.5q144 -10 235 -143l19 98q4 25 12 31t33 6q24 0 29 -6t0 -31l-185 -950q-5 -25 -11.5 -31t-31.5 -6t-30 6t-1 31zM823 211l117 602q-39 67 -99 104.5t-134 40.5 q-137 6 -241.5 -92.5t-139.5 -277.5l-29 -152q-35 -179 31.5 -277.5t206.5 -92.5q152 6 288 145zM641 1186q-23 -17 -30.5 -18.5t-16.5 8.5q-9 11 -5.5 18.5t23.5 26.5l254 225q22 18 30.5 18t21.5 -16q14 -15 12 -24.5t-23 -26.5z" />
<glyph unicode="&#xe2;" d="M788 37l19 98q-141 -133 -289 -143q-170 -12 -253 111.5t-40 345.5l25 126q43 222 174 345.5t295 111.5q144 -10 235 -143l19 98q4 25 12 31t33 6q24 0 29 -6t0 -31l-185 -950q-5 -25 -11.5 -31t-31.5 -6t-30 6t-1 31zM823 211l117 602q-39 67 -99 104.5t-134 40.5 q-137 6 -241.5 -92.5t-139.5 -277.5l-29 -152q-35 -179 31.5 -277.5t206.5 -92.5q152 6 288 145zM764 1440q23 20 41 0l176 -207q14 -18 12 -27.5t-20 -23.5q-19 -15 -27.5 -15.5t-23.5 17.5l-142 190q-7 6 -10 6t-10 -6l-215 -190q-21 -18 -30.5 -17.5t-20.5 15.5 q-12 12 -10 23.5t22 27.5z" />
<glyph unicode="&#xe3;" d="M788 37l19 98q-141 -133 -289 -143q-170 -12 -253 111.5t-40 345.5l25 126q43 222 174 345.5t295 111.5q144 -10 235 -143l19 98q4 25 12 31t33 6q24 0 29 -6t0 -31l-185 -950q-5 -25 -11.5 -31t-31.5 -6t-30 6t-1 31zM823 211l117 602q-39 67 -99 104.5t-134 40.5 q-137 6 -241.5 -92.5t-139.5 -277.5l-29 -152q-35 -179 31.5 -277.5t206.5 -92.5q152 6 288 145zM870 1167q-37 0 -71 17t-55.5 37.5t-49.5 37.5t-55 17t-56 -17.5t-42.5 -32.5t-38.5 -44q-15 -18 -35 -6l-12 8q-15 12 -2 30q97 123 194 123q37 0 70.5 -17t54.5 -37 t49.5 -37t55.5 -17q62 0 137 94q18 18 35 6l12 -8q17 -14 2 -31q-97 -123 -193 -123z" />
<glyph unicode="&#xe4;" d="M788 37l19 98q-141 -133 -289 -143q-170 -12 -253 111.5t-40 345.5l25 126q43 222 174 345.5t295 111.5q144 -10 235 -143l19 98q4 25 12 31t33 6q24 0 29 -6t0 -31l-185 -950q-5 -25 -11.5 -31t-31.5 -6t-30 6t-1 31zM823 211l117 602q-39 67 -99 104.5t-134 40.5 q-137 6 -241.5 -92.5t-139.5 -277.5l-29 -152q-35 -179 31.5 -277.5t206.5 -92.5q152 6 288 145zM811 1231q6 28 28 46.5t50 18.5t42.5 -18.5t8.5 -46.5t-28 -46t-50 -18t-42.5 18t-8.5 46zM543 1231q6 28 28 46.5t50 18.5t42.5 -18.5t8.5 -46.5t-28 -46t-50 -18t-42.5 18 t-8.5 46z" />
<glyph unicode="&#xe5;" d="M788 37l19 98q-141 -133 -289 -143q-170 -12 -253 111.5t-40 345.5l25 126q43 222 174 345.5t295 111.5q144 -10 235 -143l19 98q4 25 12 31t33 6q24 0 29 -6t0 -31l-185 -950q-5 -25 -11.5 -31t-31.5 -6t-30 6t-1 31zM823 211l117 602q-39 67 -99 104.5t-134 40.5 q-137 6 -241.5 -92.5t-139.5 -277.5l-29 -152q-35 -179 31.5 -277.5t206.5 -92.5q152 6 288 145zM657 1327q-9 -43 16 -73.5t68 -30.5t79.5 30.5t45.5 73.5q8 43 -16.5 74t-67.5 31t-80.5 -31t-44.5 -74zM602 1327q12 67 67.5 114.5t123.5 47.5q67 0 105 -47t26 -115 q-13 -67 -69 -113.5t-124 -46.5t-105 46.5t-24 113.5z" />
<glyph unicode="&#xe6;" horiz-adv-x="1581" d="M932 479l-37 -192q3 -113 71 -167t187 -54q127 0 254 114q18 15 29.5 16t23.5 -14q21 -27 -12 -57q-145 -133 -307 -133q-194 0 -279 131l-16 -86q-5 -25 -11.5 -31t-31.5 -6t-30 6t-1 31l14 76q-75 -57 -142 -86t-142 -35q-71 -5 -136.5 17t-112.5 64t-68.5 108 t-6.5 145q31 157 160 251t274 85q171 -11 256 -125l31 151q24 124 -42.5 197t-180.5 73q-134 0 -244 -98q-18 -14 -26 -13.5t-19 13.5l-10 12q-7 10 -4.5 19.5t18.5 23.5q64 57 135 87t168 30q105 0 180.5 -50.5t98.5 -137.5q67 92 159.5 140t190.5 48q65 0 117.5 -19 t89.5 -58.5t49.5 -99.5t-2.5 -142v-2q-20 -98 -102.5 -165t-184.5 -67h-358zM801 184l55 283q-39 49 -100.5 85t-134.5 40q-126 8 -232.5 -61t-134.5 -205q-26 -136 53.5 -205.5t208.5 -61.5q76 4 151 39.5t134 85.5zM944 545h338q94 0 150 53t67 115q24 123 -30 184 t-160 61q-104 0 -191 -61.5t-141 -183.5z" />
<glyph unicode="&#xe7;" horiz-adv-x="954" d="M332 -236l-6 3q-15 5 -18 9.5t3 18.5l107 211q-123 35 -176 148.5t-17 294.5l25 126q43 219 174 338t307 119q84 0 154.5 -34.5t115.5 -98.5q21 -31 -12 -57q-19 -15 -29.5 -14t-21.5 16q-84 114 -223 114q-145 0 -251 -104.5t-142 -290.5l-21 -102q-36 -186 30.5 -290.5 t211.5 -104.5q139 0 266 114q18 15 29.5 16t23.5 -14q21 -27 -12 -57q-145 -133 -320 -133q-19 0 -51 4l-61 -127q78 35 137 22.5t89.5 -64t17.5 -118.5q-9 -46 -35.5 -85.5t-63 -64.5t-77.5 -38.5t-82.5 -9.5t-73.5 26q-13 8 -2 25l12 18q12 19 29 10q70 -33 139.5 6.5 t83.5 110.5q7 35 -4.5 64.5t-36 46t-55.5 21t-68 -12t-68 -51.5q-12 -15 -28 -11z" />
<glyph unicode="&#xe8;" horiz-adv-x="970" d="M346 479q-17 0 -24 -0.5t-13 -4.5t-8 -13q-36 -186 30.5 -290.5t211.5 -104.5q137 0 254 114q18 15 29.5 16t23.5 -14q21 -27 -12 -57q-136 -133 -308 -133q-176 0 -262 119t-43 338l25 126q28 147 102 253t166.5 155t194.5 49q65 0 117.5 -19t89.5 -58.5t49.5 -99.5 t-2.5 -142v-2q-20 -98 -102.5 -165t-184.5 -67h-334zM322 565q-3 -14 4 -17t32 -3h314q94 0 150 53t67 115q24 123 -30.5 184t-160.5 61q-129 0 -230.5 -98t-145.5 -295zM823 1186l-184 211q-14 17 -12.5 26.5t20.5 24.5q20 16 28.5 16t22.5 -18l168 -225q12 -19 12.5 -26.5 t-12.5 -18.5q-12 -11 -20 -9t-23 19z" />
<glyph unicode="&#xe9;" horiz-adv-x="970" d="M346 479q-17 0 -24 -0.5t-13 -4.5t-8 -13q-36 -186 30.5 -290.5t211.5 -104.5q137 0 254 114q18 15 29.5 16t23.5 -14q21 -27 -12 -57q-136 -133 -308 -133q-176 0 -262 119t-43 338l25 126q28 147 102 253t166.5 155t194.5 49q65 0 117.5 -19t89.5 -58.5t49.5 -99.5 t-2.5 -142v-2q-20 -98 -102.5 -165t-184.5 -67h-334zM322 565q-3 -14 4 -17t32 -3h314q94 0 150 53t67 115q24 123 -30.5 184t-160.5 61q-129 0 -230.5 -98t-145.5 -295zM680 1186q-23 -17 -30.5 -18.5t-16.5 8.5q-9 11 -5.5 18.5t23.5 26.5l254 225q22 18 30 18t21 -16 q14 -14 12.5 -24t-22.5 -27z" />
<glyph unicode="&#xea;" horiz-adv-x="970" d="M346 479q-17 0 -24 -0.5t-13 -4.5t-8 -13q-36 -186 30.5 -290.5t211.5 -104.5q137 0 254 114q18 15 29.5 16t23.5 -14q21 -27 -12 -57q-136 -133 -308 -133q-176 0 -262 119t-43 338l25 126q28 147 102 253t166.5 155t194.5 49q65 0 117.5 -19t89.5 -58.5t49.5 -99.5 t-2.5 -142v-2q-20 -98 -102.5 -165t-184.5 -67h-334zM322 565q-3 -14 4 -17t32 -3h314q94 0 150 53t67 115q24 123 -30.5 184t-160.5 61q-129 0 -230.5 -98t-145.5 -295zM762 1440q23 20 41 0l176 -207q14 -18 12 -27.5t-20 -23.5q-19 -15 -27.5 -15.5t-23.5 17.5l-142 190 q-7 6 -10 6t-10 -6l-215 -190q-21 -18 -30.5 -17.5t-20.5 15.5q-12 12 -10 23.5t22 27.5z" />
<glyph unicode="&#xeb;" horiz-adv-x="970" d="M346 479q-17 0 -24 -0.5t-13 -4.5t-8 -13q-36 -186 30.5 -290.5t211.5 -104.5q137 0 254 114q18 15 29.5 16t23.5 -14q21 -27 -12 -57q-136 -133 -308 -133q-176 0 -262 119t-43 338l25 126q28 147 102 253t166.5 155t194.5 49q65 0 117.5 -19t89.5 -58.5t49.5 -99.5 t-2.5 -142v-2q-20 -98 -102.5 -165t-184.5 -67h-334zM322 565q-3 -14 4 -17t32 -3h314q94 0 150 53t67 115q24 123 -30.5 184t-160.5 61q-129 0 -230.5 -98t-145.5 -295zM809 1231q6 28 28 46.5t50 18.5t42.5 -18.5t8.5 -46.5t-28 -46t-50 -18t-42.5 18t-8.5 46zM541 1231 q6 28 27.5 46.5t49.5 18.5t43 -18.5t9 -46.5t-28 -46t-50 -18t-42.5 18t-8.5 46z" />
<glyph unicode="&#xec;" horiz-adv-x="434" d="M260 37q-5 -25 -11.5 -31t-31.5 -6t-30 6t-1 31l185 950q4 25 12 31t33 6q24 0 28.5 -6t-0.5 -31zM539 1186l-185 211q-14 17 -12.5 26.5t20.5 24.5q20 16 29 16t23 -18l168 -225q12 -19 12.5 -26.5t-12.5 -18.5q-12 -11 -20 -9t-23 19z" />
<glyph unicode="&#xed;" horiz-adv-x="434" d="M260 37q-5 -25 -11.5 -31t-31.5 -6t-30 6t-1 31l185 950q4 25 12 31t33 6q24 0 28.5 -6t-0.5 -31zM354 1186q-23 -17 -30.5 -18.5t-16.5 8.5q-8 11 -5 18.5t24 26.5l254 225q22 18 30 18t21 -16q14 -14 12.5 -24t-22.5 -27z" />
<glyph unicode="&#xee;" horiz-adv-x="434" d="M260 37q-5 -25 -11.5 -31t-31.5 -6t-30 6t-1 31l185 950q4 25 12 31t33 6q24 0 28.5 -6t-0.5 -31zM477 1440q23 20 41 0l176 -207q14 -18 12 -27.5t-20 -23.5q-19 -15 -27.5 -15.5t-23.5 17.5l-141 190q-8 10 -21 0l-215 -190q-21 -18 -30.5 -17.5t-20.5 15.5 q-12 12 -10 23.5t22 27.5z" />
<glyph unicode="&#xef;" horiz-adv-x="434" d="M260 37q-5 -25 -11.5 -31t-31.5 -6t-30 6t-1 31l185 950q4 25 12 31t33 6q24 0 28.5 -6t-0.5 -31zM524 1231q6 28 28 46.5t50 18.5t42.5 -18.5t8.5 -46.5t-28 -46t-50 -18t-42.5 18t-8.5 46zM256 1231q6 28 28 46.5t50 18.5t42.5 -18.5t8.5 -46.5t-28 -46t-50 -18 t-42.5 18t-8.5 46z" />
<glyph unicode="&#xf0;" horiz-adv-x="1069" d="M1059 1360l-70 -47q77 -82 102.5 -207.5t-6.5 -300.5l-69 -356q-43 -219 -175.5 -338t-308.5 -119q-177 0 -263.5 119t-43.5 338l6 34q43 219 176 338t310 119q95 0 172.5 -43.5t114.5 -136.5l6 33q61 324 -88 473l-215 -146q-16 -10 -25 -12.5t-15.5 2t-13.5 18.5 q-10 17 -6.5 27t25.5 25l194 129q-96 59 -233 59h-2q-24 0 -29 6t0 31t11.5 31t31.5 6h2q176 0 289 -84l88 59q17 11 24.5 13.5t13.5 -1.5t13 -18q12 -19 9.5 -27.5t-25.5 -23.5zM547 66q148 0 254 101.5t143 293.5l2 10q37 192 -29.5 293.5t-214.5 101.5 q-149 0 -255.5 -101.5t-143.5 -293.5l-2 -10q-37 -192 30 -293.5t216 -101.5z" />
<glyph unicode="&#xf1;" horiz-adv-x="1032" d="M260 37q-5 -25 -11.5 -31t-31.5 -6t-30 6t-1 31l185 950q4 25 12 31t33 6q24 0 28.5 -6t-0.5 -31l-14 -74q142 109 277 119q151 9 241.5 -80.5t59.5 -246.5l-129 -668q-5 -25 -11.5 -31t-31.5 -6t-30 6t-1 31l129 668q24 118 -46.5 187t-189.5 66q-139 -5 -282 -118z M877 1167q-36 0 -68.5 16.5t-53.5 36t-48.5 36t-53.5 16.5t-54 -17.5t-41 -31.5t-38 -43q-13 -16 -33 -4l-12 6q-15 12 -2 30q94 117 189 117q35 0 67.5 -16t53 -35t47.5 -35t53 -16q66 0 133 90q18 15 35 6l10 -8q17 -14 2 -31q-92 -117 -186 -117z" />
<glyph unicode="&#xf2;" horiz-adv-x="1069" d="M1040 575l-24 -126q-43 -219 -175.5 -338t-308.5 -119q-177 0 -263.5 119t-43.5 338l25 126q43 219 175 338t308 119q177 0 263.5 -119t43.5 -338zM547 66q148 0 254 101.5t143 293.5l21 102q37 192 -30 293.5t-216 101.5q-148 0 -254 -101.5t-143 -293.5l-21 -102 q-37 -192 30 -293.5t216 -101.5zM854 1186l-184 211q-14 17 -12.5 26.5t20.5 24.5q20 16 28.5 16t22.5 -18l168 -225q12 -19 12.5 -26.5t-12.5 -18.5q-12 -11 -20 -9t-23 19z" />
<glyph unicode="&#xf3;" horiz-adv-x="1069" d="M1040 575l-24 -126q-43 -219 -175.5 -338t-308.5 -119q-177 0 -263.5 119t-43.5 338l25 126q43 219 175 338t308 119q177 0 263.5 -119t43.5 -338zM547 66q148 0 254 101.5t143 293.5l21 102q37 192 -30 293.5t-216 101.5q-148 0 -254 -101.5t-143 -293.5l-21 -102 q-37 -192 30 -293.5t216 -101.5zM711 1186q-23 -17 -30.5 -18.5t-16.5 8.5q-9 11 -5.5 18.5t23.5 26.5l254 225q22 18 30 18t21 -16q14 -14 12.5 -24t-22.5 -27z" />
<glyph unicode="&#xf4;" horiz-adv-x="1069" d="M1040 575l-24 -126q-43 -219 -175.5 -338t-308.5 -119q-177 0 -263.5 119t-43.5 338l25 126q43 219 175 338t308 119q177 0 263.5 -119t43.5 -338zM547 66q148 0 254 101.5t143 293.5l21 102q37 192 -30 293.5t-216 101.5q-148 0 -254 -101.5t-143 -293.5l-21 -102 q-37 -192 30 -293.5t216 -101.5zM793 1440q23 20 41 0l176 -207q14 -18 11.5 -27.5t-20.5 -23.5q-19 -15 -27.5 -15.5t-23.5 17.5l-141 190q-8 10 -21 0l-215 -190q-21 -18 -30.5 -17.5t-20.5 15.5q-12 13 -10 24t23 27z" />
<glyph unicode="&#xf5;" horiz-adv-x="1069" d="M1040 575l-24 -126q-43 -219 -175.5 -338t-308.5 -119q-177 0 -263.5 119t-43.5 338l25 126q43 219 175 338t308 119q177 0 263.5 -119t43.5 -338zM547 66q148 0 254 101.5t143 293.5l21 102q37 192 -30 293.5t-216 101.5q-148 0 -254 -101.5t-143 -293.5l-21 -102 q-37 -192 30 -293.5t216 -101.5zM881 1165q-36 0 -68.5 16.5t-53.5 36t-48.5 36t-53.5 16.5t-54 -17.5t-41 -31.5t-38 -43q-12 -15 -32 -4l-13 6q-15 12 -2 30q94 117 189 117q35 0 67.5 -16t53 -35t47.5 -35t53 -16q66 0 133 90q18 15 35 6l10 -8q17 -14 2 -31 q-92 -117 -186 -117z" />
<glyph unicode="&#xf6;" horiz-adv-x="1069" d="M1040 575l-24 -126q-43 -219 -175.5 -338t-308.5 -119q-177 0 -263.5 119t-43.5 338l25 126q43 219 175 338t308 119q177 0 263.5 -119t43.5 -338zM547 66q148 0 254 101.5t143 293.5l21 102q37 192 -30 293.5t-216 101.5q-148 0 -254 -101.5t-143 -293.5l-21 -102 q-37 -192 30 -293.5t216 -101.5zM840 1231q6 28 28 46.5t50 18.5t42.5 -18.5t8.5 -46.5t-28 -46t-50 -18t-42.5 18t-8.5 46zM571 1231q6 28 28 46.5t50 18.5t42.5 -18.5t8.5 -46.5t-27.5 -46t-49.5 -18t-43 18t-9 46z" />
<glyph unicode="&#xf7;" horiz-adv-x="901" d="M469 453q6 29 29.5 49t52.5 20t45 -20t10 -49t-29.5 -48.5t-52.5 -19.5t-45 19.5t-10 48.5zM586 1055q6 29 29.5 49t52.5 20t45 -20t10 -49q-4 -29 -28 -48.5t-54 -19.5q-29 0 -44.5 19t-10.5 49zM901 719h-622q-25 0 -30 6t-1 31t12 31t33 6h622q24 0 29 -6t0 -31 t-11.5 -31t-31.5 -6z" />
<glyph unicode="&#xf8;" horiz-adv-x="1069" d="M1040 575l-24 -126q-43 -219 -175.5 -338t-308.5 -119q-165 0 -247 98l-49 -53q-31 -34 -40.5 -39.5t-37.5 -5.5q-17 0 -22 12t11 29l101 110q-59 119 -23 306l25 126q43 219 175 338t308 119q163 0 248 -98l49 53q31 34 40.5 39.5t37.5 5.5q16 0 21 -12t-9 -29 l-104 -110q61 -119 24 -306zM547 66q148 0 254 101.5t143 293.5l21 102q30 154 -9 252l-614 -663q65 -86 205 -86zM301 461q-30 -156 8 -252l615 661q-66 88 -205 88q-148 0 -254 -101.5t-143 -293.5z" />
<glyph unicode="&#xf9;" horiz-adv-x="1015" d="M295 319q-25 -127 35.5 -191.5t183.5 -61.5q122 2 283 118l155 803q4 25 12 31t33 6q24 0 29 -6t0 -31l-184 -950q-5 -25 -11.5 -31t-31.5 -6t-30 6t-1 31l16 82q-162 -117 -288 -127q-66 -5 -122.5 13.5t-97 59.5t-56 104.5t0.5 149.5l129 668q4 25 12 31t33 6 q24 0 29 -6t0 -31zM817 1186l-184 211q-14 17 -12.5 26.5t20.5 24.5q20 16 28.5 16t22.5 -18l168 -225q12 -19 12.5 -26.5t-12.5 -18.5q-12 -11 -20 -9t-23 19z" />
<glyph unicode="&#xfa;" horiz-adv-x="1015" d="M295 319q-25 -127 35.5 -191.5t183.5 -61.5q122 2 283 118l155 803q4 25 12 31t33 6q24 0 29 -6t0 -31l-184 -950q-5 -25 -11.5 -31t-31.5 -6t-30 6t-1 31l16 82q-162 -117 -288 -127q-66 -5 -122.5 13.5t-97 59.5t-56 104.5t0.5 149.5l129 668q4 25 12 31t33 6 q24 0 29 -6t0 -31zM633 1186q-23 -17 -30.5 -18.5t-16.5 8.5q-9 11 -5.5 18.5t23.5 26.5l254 225q22 18 30 18t21 -16q14 -14 12.5 -24t-22.5 -27z" />
<glyph unicode="&#xfb;" horiz-adv-x="1015" d="M295 319q-25 -127 35.5 -191.5t183.5 -61.5q122 2 283 118l155 803q4 25 12 31t33 6q24 0 29 -6t0 -31l-184 -950q-5 -25 -11.5 -31t-31.5 -6t-30 6t-1 31l16 82q-162 -117 -288 -127q-66 -5 -122.5 13.5t-97 59.5t-56 104.5t0.5 149.5l129 668q4 25 12 31t33 6 q24 0 29 -6t0 -31zM756 1440q23 20 41 0l176 -207q14 -18 12 -27.5t-20 -23.5q-19 -15 -28 -15.5t-24 17.5l-141 190q-7 6 -10 6t-10 -6l-215 -190q-21 -18 -31 -17.5t-21 15.5q-12 13 -10 24t23 27z" />
<glyph unicode="&#xfc;" horiz-adv-x="1015" d="M295 319q-25 -127 35.5 -191.5t183.5 -61.5q122 2 283 118l155 803q4 25 12 31t33 6q24 0 29 -6t0 -31l-184 -950q-5 -25 -11.5 -31t-31.5 -6t-30 6t-1 31l16 82q-162 -117 -288 -127q-66 -5 -122.5 13.5t-97 59.5t-56 104.5t0.5 149.5l129 668q4 25 12 31t33 6 q24 0 29 -6t0 -31zM803 1231q6 28 28 46.5t50 18.5t42.5 -18.5t8.5 -46.5t-28 -46t-50 -18t-42.5 18t-8.5 46zM535 1231q6 28 27.5 46.5t49.5 18.5t43 -18.5t9 -46.5t-28 -46t-50 -18t-42.5 18t-8.5 46z" />
<glyph unicode="&#xfd;" horiz-adv-x="950" d="M188 -467l232 418q12 23 13.5 31.5t-1.5 31.5l-160 975q-2 16 5.5 24.5t14 9.5t17.5 1q13 0 18.5 -1t11 -8t7.5 -22l139 -893q1 -5 4 -6.5t6.5 0t6.5 6.5l487 893q8 15 16 22t14 8t19 1q8 0 12.5 -0.5t10.5 -3.5t5.5 -11t-7.5 -20l-799 -1460q-8 -15 -15.5 -22t-12.5 -8 t-15 -1t-15.5 0.5t-13.5 4t-6 10.5t6 20zM610 1186q-23 -17 -30.5 -18.5t-16.5 8.5q-8 11 -5 18.5t24 26.5l254 225q22 18 30 18t21 -16q14 -14 12.5 -24t-22.5 -27z" />
<glyph unicode="&#xfe;" d="M524 1397l-98 -508q141 133 289 143q170 12 253 -111.5t40 -345.5l-25 -126q-43 -222 -174 -345.5t-295 -111.5q-144 10 -235 143l-91 -467q-5 -25 -11.5 -31t-31.5 -6t-30 6t0 31l336 1729q4 25 12 31t33 6q24 0 28.5 -6t-0.5 -31zM412 813l-117 -602q37 -66 96.5 -104 t134.5 -41q137 -6 241.5 92.5t139.5 277.5l29 152q35 179 -31.5 277.5t-206.5 92.5q-153 -6 -286 -145z" />
<glyph unicode="&#xff;" horiz-adv-x="950" d="M188 -467l232 418q12 23 13.5 31.5t-1.5 31.5l-160 975q-2 16 5.5 24.5t14 9.5t17.5 1q13 0 18.5 -1t11 -8t7.5 -22l139 -893q1 -5 4 -6.5t6.5 0t6.5 6.5l487 893q8 15 16 22t14 8t19 1q8 0 12.5 -0.5t10.5 -3.5t5.5 -11t-7.5 -20l-799 -1460q-8 -15 -15.5 -22t-12.5 -8 t-15 -1t-15.5 0.5t-13.5 4t-6 10.5t6 20zM780 1231q6 28 28 46.5t50 18.5t42.5 -18.5t8.5 -46.5t-28 -46t-50 -18t-42.5 18t-8.5 46zM512 1231q6 28 28 46.5t50 18.5t42.5 -18.5t8.5 -46.5t-28 -46t-50 -18t-42.5 18t-8.5 46z" />
<glyph unicode="&#x152;" horiz-adv-x="2080" d="M1522 1323l-97 -496q-4 -23 1 -28.5t30 -5.5h504q24 0 29 -6t0 -31t-11.5 -31t-31.5 -6h-504q-25 0 -33 -6t-12 -31l-111 -571q-5 -25 0 -31t29 -6h606q25 0 30 -6t1 -31q-5 -25 -11.5 -31t-31.5 -6h-684q-25 0 -30 6t-1 31l45 235q-97 -137 -237.5 -208.5t-301.5 -71.5 q-120 0 -214 40.5t-155.5 120.5t-81 199.5t10.5 276.5l35 176q30 154 97 276t158.5 200.5t201 119.5t229.5 41q160 0 273.5 -72.5t158.5 -208.5l45 236q4 25 12 31t33 6h684q24 0 29 -6t0 -31t-11.5 -31t-31.5 -6h-606q-25 0 -33 -6t-12 -31zM967 1368q-224 0 -383.5 -150.5 t-212.5 -426.5l-29 -148q-55 -276 47 -426.5t326 -150.5t383.5 150t214.5 427l28 148q53 277 -48.5 427t-325.5 150z" />
<glyph unicode="&#x153;" horiz-adv-x="1687" d="M1063 479q-24 0 -32.5 -2.5t-12.5 -15.5l-4 -19q-29 -179 37.5 -277.5t208.5 -98.5q126 0 253 114q33 29 54 2q20 -26 -13 -57q-145 -133 -307 -133q-125 0 -206.5 60.5t-104.5 176.5q-68 -116 -173 -176.5t-231 -60.5q-177 0 -263.5 119t-43.5 338l25 126 q43 219 175 338t308 119q125 0 208 -61.5t106 -177.5q67 117 169 178t214 61q136 0 210 -81.5t43 -237.5v-2q-20 -98 -102 -165t-184 -67h-334zM547 66q144 0 250 100t147 295l21 102q37 192 -30 293.5t-216 101.5q-148 0 -254 -101.5t-143 -293.5l-21 -102 q-37 -192 30 -293.5t216 -101.5zM1389 545q94 0 150 53t67 115q24 123 -30.5 184t-160.5 61q-129 0 -230.5 -94t-142.5 -276l-4 -23q-3 -14 4 -17t33 -3h314z" />
<glyph unicode="&#x178;" horiz-adv-x="1110" d="M600 39q-5 -26 -12 -32.5t-33 -6.5t-31.5 6.5t-1.5 32.5l129 666l-274 688q-7 18 1.5 29.5t24.5 11.5h9q24 0 31 -4t14 -25l241 -604q3 -7 11 -7t14 7l475 604q17 21 25 25t32 4h9q16 0 19.5 -12t-9.5 -29l-545 -688zM940 1640q6 28 28 47t50 19t42.5 -19t8.5 -47 t-28 -45.5t-50 -17.5t-42.5 17.5t-8.5 45.5zM672 1640q6 28 28 47t50 19t42.5 -19t8.5 -47t-28 -45.5t-50 -17.5t-42.5 17.5t-8.5 45.5z" />
<glyph unicode="&#x2c6;" horiz-adv-x="630" d="M647 1812q23 20 41 0l176 -206q14 -18 12 -28t-20 -24q-19 -15 -27.5 -15.5t-23.5 17.5l-141 191q-8 10 -21 0l-215 -191q-21 -18 -30.5 -17.5t-20.5 15.5q-12 12 -10 24t22 28z" />
<glyph unicode="&#x2dc;" horiz-adv-x="684" d="M772 1550q-37 0 -71 17t-55.5 37.5t-49.5 37.5t-55 17t-56 -17.5t-43.5 -33t-38.5 -43.5q-14 -17 -34 -6l-13 8q-15 12 -2 30q97 123 195 123q37 0 70.5 -17t54.5 -37t49 -37t55 -17q62 0 137 94q18 18 35 6l13 -8q17 -14 2 -31q-97 -123 -193 -123z" />
<glyph unicode="&#x2000;" horiz-adv-x="949" />
<glyph unicode="&#x2001;" horiz-adv-x="1898" />
<glyph unicode="&#x2002;" horiz-adv-x="949" />
<glyph unicode="&#x2003;" horiz-adv-x="1898" />
<glyph unicode="&#x2004;" horiz-adv-x="632" />
<glyph unicode="&#x2005;" horiz-adv-x="474" />
<glyph unicode="&#x2006;" horiz-adv-x="316" />
<glyph unicode="&#x2007;" horiz-adv-x="316" />
<glyph unicode="&#x2008;" horiz-adv-x="237" />
<glyph unicode="&#x2009;" horiz-adv-x="379" />
<glyph unicode="&#x200a;" horiz-adv-x="105" />
<glyph unicode="&#x2010;" horiz-adv-x="700" d="M635 528h-445q-17 0 -21 6t-1 31q3 24 9 30.5t24 6.5h444q17 0 20.5 -6t0.5 -31t-8.5 -31t-22.5 -6z" />
<glyph unicode="&#x2011;" horiz-adv-x="700" d="M635 528h-445q-17 0 -21 6t-1 31q3 24 9 30.5t24 6.5h444q17 0 20.5 -6t0.5 -31t-8.5 -31t-22.5 -6z" />
<glyph unicode="&#x2012;" horiz-adv-x="700" d="M635 528h-445q-17 0 -21 6t-1 31q3 24 9 30.5t24 6.5h444q17 0 20.5 -6t0.5 -31t-8.5 -31t-22.5 -6z" />
<glyph unicode="&#x2013;" horiz-adv-x="1165" d="M1126 526h-886q-24 0 -29 6t0 31t11.5 31t31.5 6h887q25 0 30 -6t0 -31q-4 -25 -12 -31t-33 -6z" />
<glyph unicode="&#x2014;" horiz-adv-x="1431" d="M1393 526h-1153q-24 0 -29 6t0 31t11.5 31t31.5 6h1153q25 0 30 -6t1 -31t-12 -31t-33 -6z" />
<glyph unicode="&#x2018;" horiz-adv-x="389" d="M518 1276q-6 -31 -29.5 -51.5t-52.5 -20.5q-56 0 -67 58q-5 54 30.5 114.5t102.5 134.5q25 28 41 17q14 -11 -8 -39q-16 -19 -30 -39t-25.5 -43t-11 -41.5t16.5 -26.5q41 -20 33 -63z" />
<glyph unicode="&#x2019;" horiz-adv-x="389" d="M387 1370q4 31 27.5 51.5t52.5 20.5q57 0 68 -58q7 -53 -29 -113t-105 -136q-25 -28 -39 -17q-9 6 -7.5 14t14.5 25q16 18 30 38.5t25.5 43.5t11 41.5t-15.5 26.5q-44 19 -33 63z" />
<glyph unicode="&#x201a;" horiz-adv-x="389" d="M131 57q6 31 29.5 51.5t52.5 20.5q56 0 66 -57q12 -91 -132 -250q-26 -29 -41 -17q-8 6 -6 14t15 25q16 18 30 38.5t25.5 43.5t10.5 41.5t-17 26.5q-41 20 -33 63z" />
<glyph unicode="&#x201c;" horiz-adv-x="649" d="M778 1276q-6 -31 -29.5 -51.5t-52.5 -20.5q-56 0 -67 58q-5 54 30.5 114.5t102.5 134.5q25 28 41 17q14 -11 -8 -39q-16 -19 -30 -39t-25.5 -43t-11 -41.5t16.5 -26.5q41 -20 33 -63zM518 1276q-6 -31 -29.5 -51.5t-52.5 -20.5q-56 0 -67 58q-5 54 30.5 114.5 t102.5 134.5q25 28 41 17q14 -11 -8 -39q-16 -19 -30 -39t-25.5 -43t-11 -41.5t16.5 -26.5q41 -20 33 -63z" />
<glyph unicode="&#x201d;" horiz-adv-x="649" d="M387 1370q4 31 27.5 51.5t52.5 20.5q57 0 68 -58q7 -53 -29 -113t-105 -136q-25 -28 -39 -17q-9 6 -7.5 14t14.5 25q16 18 30 38.5t25.5 43.5t11 41.5t-15.5 26.5q-44 19 -33 63zM647 1370q4 31 27.5 51.5t52.5 20.5q57 0 68 -58q7 -53 -29 -113.5t-104 -135.5 q-25 -28 -39 -17q-9 6 -8 14t14 25q16 18 30 38.5t25.5 43.5t11 41.5t-15.5 26.5q-44 19 -33 63z" />
<glyph unicode="&#x201e;" horiz-adv-x="649" d="M131 57q6 31 29.5 51.5t52.5 20.5q56 0 66 -57q12 -91 -132 -250q-26 -29 -41 -17q-8 6 -6 14t15 25q16 18 30 38.5t25.5 43.5t10.5 41.5t-17 26.5q-41 20 -33 63zM391 57q6 31 29.5 51.5t52.5 20.5q56 0 66 -57q12 -92 -131 -250q-26 -29 -41 -17q-14 11 8 39 q16 18 30 38.5t25.5 43.5t10.5 41.5t-17 26.5q-41 20 -33 63z" />
<glyph unicode="&#x2022;" horiz-adv-x="518" d="M266 752q10 57 58.5 97t105.5 40t89.5 -40t21.5 -97q-10 -57 -58.5 -97.5t-105.5 -40.5t-89.5 40.5t-21.5 97.5z" />
<glyph unicode="&#x2026;" horiz-adv-x="1130" d="M131 59q6 29 29.5 49.5t52.5 20.5t45 -20.5t10 -49.5t-29.5 -48t-52.5 -19t-45 19t-10 48zM508 59q6 29 29.5 49.5t52.5 20.5t45 -20.5t10 -49.5t-29.5 -48t-52.5 -19t-45 19t-10 48zM885 59q6 29 29.5 49.5t52.5 20.5t45 -20.5t10 -49.5t-29.5 -48t-52.5 -19t-45 19 t-10 48z" />
<glyph unicode="&#x202f;" horiz-adv-x="379" />
<glyph unicode="&#x2039;" horiz-adv-x="612" d="M510 168l-266 321q-19 22 8 46l393 321q12 10 22 6t7 -18l-6 -25q0 -1 -1 -5.5t-1.5 -5.5t-1.5 -4.5t-1.5 -5t-2 -4.5t-3.5 -5t-4.5 -5t-6 -6t-7.5 -6l-305 -248q-14 -11 -4 -24l207 -248q11 -14 13 -24.5t-1 -22.5l-4 -25q-2 -14 -14 -18t-21 6z" />
<glyph unicode="&#x203a;" horiz-adv-x="612" d="M557 489l-393 -321q-12 -10 -21 -6t-6 18l4 25q0 1 1 5.5t1.5 5.5t1.5 4.5t1.5 5t2 4.5t3.5 5t4.5 5t6 6t7.5 6l305 248q14 11 4 24l-207 248q-18 22 -12 47l6 25q3 14 13.5 18t19.5 -6l266 -321q19 -22 -8 -46z" />
<glyph unicode="&#x205f;" horiz-adv-x="474" />
<glyph unicode="&#x20ac;" horiz-adv-x="1302" d="M432 688q-5 -25 0 -31t29 -6h397q25 0 30 -6t1 -31q-4 -24 -12 -30t-33 -6h-393q-23 0 -31.5 -4.5t-9.5 -20.5q-24 -234 79.5 -360.5t307.5 -126.5q108 0 192.5 34.5t171.5 106.5q22 19 32.5 19t23.5 -17q14 -17 12 -25.5t-23 -25.5q-196 -166 -424 -166 q-113 0 -203 36.5t-151.5 106t-87 178t-8.5 246.5q1 12 -6 15.5t-27 3.5h-78q-24 0 -28.5 5.5t0.5 30.5t11.5 31t31.5 6h73q25 0 33 6t12 31l11 57q5 25 0 31t-29 6h-74q-25 0 -30 6t-1 31t12 31t33 6h78q20 0 28 3.5t11 14.5q46 183 149 313.5t236 192.5t285 62 q228 0 362 -166q13 -17 11.5 -25.5t-21.5 -25.5t-30 -17t-25 19q-58 72 -130 106.5t-181 34.5q-204 0 -356.5 -126.5t-219.5 -360.5q-4 -16 3 -20.5t30 -4.5h393q24 0 29 -6t0 -31t-11.5 -31t-31.5 -6h-398q-25 0 -33 -6t-12 -31z" />
<glyph unicode="&#x2122;" horiz-adv-x="1200" d="M377 1417q3 17 20 17h332q15 0 12 -17l-4 -24q-3 -17 -20 -17h-119q-12 0 -14 -1.5t-4 -12.5l-97 -490q-3 -20 -22 -20h-25q-17 0 -14 20l96 490q2 10 0 12t-12 2h-121q-15 0 -12 17zM981 852q-12 0 -14 12l-82 406q-2 6 -5.5 5.5t-5.5 -5.5l-110 -398q-5 -20 -25 -20 h-20q-8 0 -11 5t-2 10l1 5l151 545q4 17 21 17h22q14 0 17 -11l86 -458q2 -5 5.5 -5t6.5 5l266 458q6 11 18 11h25q15 0 12 -17l-61 -545q-3 -20 -21 -20h-20q-9 0 -13 5t-4 10l1 5l45 398q0 3 -2 4.5t-4.5 0.5t-4.5 -5l-237 -406q-7 -12 -23 -12h-12z" />
<glyph unicode="&#x25fc;" horiz-adv-x="1024" d="M0 1024h1024v-1024h-1024v1024z" />
</font>
</defs>
</svg>
